SplineFontDB: 3.0
FontName: Average-Regular
FullName: Average
FamilyName: Average
Weight: Book
Copyright: Copyright (c) 2012, Eduardo Tunni (http://www.tipo.net.ar), with Reserved Font Name "Average"
Version: 1.001
ItalicAngle: 0
UnderlinePosition: -50
UnderlineWidth: 50
Ascent: 800
Descent: 200
sfntRevision: 0x00010042
LayerCount: 2
Layer: 0 1 "Back"  1
Layer: 1 1 "Fore"  0
XUID: [1021 415 1304879645 9553405]
FSType: 0
OS2Version: 2
OS2_WeightWidthSlopeOnly: 0
OS2_UseTypoMetrics: 1
CreationTime: 1330110538
ModificationTime: 1330127038
PfmFamily: 17
TTFWeight: 400
TTFWidth: 5
LineGap: 0
VLineGap: 0
Panose: 2 0 5 3 4 0 0 2 0 3
OS2TypoAscent: 153
OS2TypoAOffset: 1
OS2TypoDescent: -63
OS2TypoDOffset: 1
OS2TypoLinegap: 0
OS2WinAscent: 0
OS2WinAOffset: 1
OS2WinDescent: 0
OS2WinDOffset: 1
HheadAscent: 0
HheadAOffset: 1
HheadDescent: 0
HheadDOffset: 1
OS2SubXSize: 700
OS2SubYSize: 650
OS2SubXOff: 0
OS2SubYOff: 140
OS2SupXSize: 700
OS2SupYSize: 650
OS2SupXOff: 0
OS2SupYOff: 477
OS2StrikeYSize: 50
OS2StrikeYPos: 250
OS2Vendor: 'pyrs'
OS2CodePages: 20000001.00000000
OS2UnicodeRanges: 800000af.5000204a.00000000.00000000
Lookup: 4 0 1 "'liga' Standard Ligatures in Latin lookup 0"  {"'liga' Standard Ligatures in Latin lookup 0 subtable"  } ['liga' ('latn' <'dflt' > ) ]
Lookup: 258 0 0 "'kern' Horizontal Kerning in Latin lookup 0"  {"'kern' Horizontal Kerning in Latin lookup 0 per glyph data 0"  "'kern' Horizontal Kerning in Latin lookup 0 per glyph data 1"  "'kern' Horizontal Kerning in Latin lookup 0 kerning class 2"  } ['kern' ('latn' <'dflt' > ) ]
Lookup: 257 0 0 "'case' Case-Sensitive Forms in Latin lookup 1"  {"'case' Case-Sensitive Forms in Latin lookup 1 per glyph data 0"  "'case' Case-Sensitive Forms in Latin lookup 1 per glyph data 1"  } ['case' ('latn' <'dflt' > ) ]
Lookup: 257 0 0 "'cpsp' Capital Spacing in Latin lookup 2"  {"'cpsp' Capital Spacing in Latin lookup 2 subtable"  } ['cpsp' ('latn' <'dflt' > ) ]
DEI: 91125

StartChar: exclam
Encoding: 33 33 4
Width: 236
GlyphClass: 2
Flags: W
LayerCount: 2
Fore
SplineSet
118 -9 m 128,-1,1
 96 -9 96 -9 80.5 6.5 c 128,-1,2
 65 22 65 22 65 45 c 128,-1,3
 65 68 65 68 80.5 83.5 c 128,-1,4
 96 99 96 99 118 99 c 128,-1,5
 140 99 140 99 155.5 83.5 c 128,-1,6
 171 68 171 68 171 45 c 128,-1,7
 171 22 171 22 155.5 6.5 c 128,-1,0
 140 -9 140 -9 118 -9 c 128,-1,1
172 691 m 1,8,-1
 139 168 l 1,9,-1
 101 159 l 1,10,-1
 64 664 l 2,11,12
 64 667 64 667 67.5 671 c 128,-1,13
 71 675 71 675 98 682.5 c 128,-1,14
 125 690 125 690 172 691 c 1,8,-1
EndSplineSet
EndChar

StartChar: quotedbl
Encoding: 34 34 5
Width: 290
GlyphClass: 2
Flags: W
LayerCount: 2
Fore
SplineSet
127 683 m 1,0,-1
 95 451 l 1,1,2
 96 438 96 438 55 438 c 1,3,-1
 36 659 l 1,4,5
 37 662 37 662 40.5 666 c 128,-1,6
 44 670 44 670 67 676.5 c 128,-1,7
 90 683 90 683 127 683 c 1,0,-1
266 683 m 1,8,-1
 234 451 l 1,9,10
 235 438 235 438 194 438 c 1,11,-1
 175 659 l 2,12,13
 175 666 175 666 190 672 c 0,14,15
 219 683 219 683 266 683 c 1,8,-1
EndSplineSet
EndChar

StartChar: numbersign
Encoding: 35 35 6
Width: 523
GlyphClass: 2
Flags: W
LayerCount: 2
Fore
SplineSet
24 223 m 1,0,-1
 24 284 l 1,1,-1
 120 284 l 1,2,-1
 146 385 l 1,3,-1
 65 385 l 1,4,-1
 65 446 l 1,5,-1
 162 446 l 1,6,-1
 221 674 l 1,7,-1
 286 674 l 1,8,-1
 227 446 l 1,9,-1
 355 446 l 1,10,-1
 414 674 l 1,11,-1
 479 674 l 1,12,-1
 420 446 l 1,13,-1
 499 446 l 1,14,-1
 499 385 l 1,15,-1
 404 385 l 1,16,-1
 378 284 l 1,17,-1
 460 284 l 1,18,-1
 460 223 l 1,19,-1
 363 223 l 1,20,-1
 303 -9 l 1,21,-1
 238 -9 l 1,22,-1
 298 223 l 1,23,-1
 170 223 l 1,24,-1
 110 -9 l 1,25,-1
 45 -9 l 1,26,-1
 105 223 l 1,27,-1
 24 223 l 1,0,-1
211 385 m 1,28,-1
 185 284 l 1,29,-1
 313 284 l 1,30,-1
 339 385 l 1,31,-1
 211 385 l 1,28,-1
EndSplineSet
EndChar

StartChar: dollar
Encoding: 36 36 7
Width: 523
GlyphClass: 2
Flags: W
LayerCount: 2
Fore
SplineSet
89 152 m 1,0,-1
 88 170 l 1,1,-1
 112 181 l 1,2,3
 123 117 123 117 142.5 85.5 c 128,-1,4
 162 54 162 54 199 44 c 1,5,-1
 230 294 l 1,6,-1
 190 323 l 2,7,8
 132 364 132 364 109.5 397 c 128,-1,9
 87 430 87 430 87 493.5 c 128,-1,10
 87 557 87 557 136 599 c 128,-1,11
 185 641 185 641 265 641 c 2,12,-1
 274 641 l 1,13,-1
 289 762 l 1,14,-1
 334 762 l 1,15,-1
 318 635 l 1,16,17
 360 628 360 628 373 628 c 128,-1,18
 386 628 386 628 411 633 c 1,19,-1
 411 620 l 2,20,21
 411 566 411 566 422 493 c 1,22,-1
 398 481 l 1,23,24
 384 531 384 531 363.5 557 c 128,-1,25
 343 583 343 583 312 591 c 1,26,-1
 285 374 l 1,27,-1
 343 335 l 2,28,29
 401 295 401 295 427 256 c 128,-1,30
 453 217 453 217 453 166 c 0,31,32
 453 86 453 86 399 38.5 c 128,-1,33
 345 -9 345 -9 256 -9 c 2,34,-1
 238 -9 l 1,35,-1
 224 -121 l 1,36,-1
 179 -121 l 1,37,-1
 193 -4 l 1,38,39
 129 3 129 3 74 25 c 1,40,41
 89 93 89 93 89 152 c 1,0,-1
355 139 m 0,42,43
 355 181 355 181 339.5 204 c 128,-1,44
 324 227 324 227 291 251 c 2,45,-1
 272 265 l 1,46,-1
 244 39 l 1,47,48
 355 39 355 39 355 139 c 0,42,43
199 573.5 m 128,-1,50
 172 550 172 550 172 514.5 c 128,-1,51
 172 479 172 479 191 453 c 128,-1,52
 210 427 210 427 244 402 c 1,53,-1
 268 597 l 1,54,49
 226 597 226 597 199 573.5 c 128,-1,50
EndSplineSet
EndChar

StartChar: percent
Encoding: 37 37 8
Width: 784
GlyphClass: 2
Flags: W
LayerCount: 2
Fore
SplineSet
146 -1 m 1,0,-1
 558 679 l 1,1,-1
 606 679 l 1,2,-1
 194 -1 l 1,3,-1
 146 -1 l 1,0,-1
197 638 m 128,-1,5
 175 638 175 638 163 602 c 128,-1,6
 151 566 151 566 151 509.5 c 128,-1,7
 151 453 151 453 163 417.5 c 128,-1,8
 175 382 175 382 197 382 c 128,-1,9
 219 382 219 382 231 417.5 c 128,-1,10
 243 453 243 453 243 509.5 c 128,-1,11
 243 566 243 566 231 602 c 128,-1,4
 219 638 219 638 197 638 c 128,-1,5
314 509 m 128,-1,13
 314 438 314 438 284 392 c 128,-1,14
 254 346 254 346 197 346 c 128,-1,15
 140 346 140 346 110 392 c 128,-1,16
 80 438 80 438 80 509 c 128,-1,17
 80 580 80 580 110 626.5 c 128,-1,18
 140 673 140 673 197 673 c 128,-1,19
 254 673 254 673 284 626.5 c 128,-1,12
 314 580 314 580 314 509 c 128,-1,13
547 283 m 128,-1,21
 525 283 525 283 513 247 c 128,-1,22
 501 211 501 211 501 154.5 c 128,-1,23
 501 98 501 98 513 62.5 c 128,-1,24
 525 27 525 27 547 27 c 128,-1,25
 569 27 569 27 581 62.5 c 128,-1,26
 593 98 593 98 593 154.5 c 128,-1,27
 593 211 593 211 581 247 c 128,-1,20
 569 283 569 283 547 283 c 128,-1,21
664 154 m 128,-1,29
 664 83 664 83 634 37 c 128,-1,30
 604 -9 604 -9 547 -9 c 128,-1,31
 490 -9 490 -9 460 37 c 128,-1,32
 430 83 430 83 430 154 c 128,-1,33
 430 225 430 225 460 271.5 c 128,-1,34
 490 318 490 318 547 318 c 128,-1,35
 604 318 604 318 634 271.5 c 128,-1,28
 664 225 664 225 664 154 c 128,-1,29
EndSplineSet
EndChar

StartChar: ampersand
Encoding: 38 38 9
Width: 739
GlyphClass: 2
Flags: W
LayerCount: 2
Fore
SplineSet
245 -10 m 0,0,1
 156 -10 156 -10 103 38 c 128,-1,2
 50 86 50 86 50 155 c 128,-1,3
 50 224 50 224 90.5 275.5 c 128,-1,4
 131 327 131 327 218 379 c 1,5,6
 147 498 147 498 147 559 c 128,-1,7
 147 620 147 620 192.5 663.5 c 128,-1,8
 238 707 238 707 309.5 707 c 128,-1,9
 381 707 381 707 428.5 677 c 128,-1,10
 476 647 476 647 476 587 c 256,11,12
 476 527 476 527 416 473 c 1,13,14
 372 432 372 432 313 393 c 1,15,16
 389 272 389 272 486 167 c 1,17,18
 532 239 532 239 532 309 c 0,19,20
 532 326 532 326 513 336 c 128,-1,21
 494 346 494 346 446 355 c 1,22,-1
 449 384 l 1,23,24
 507 378 507 378 580.5 378 c 128,-1,25
 654 378 654 378 702 384 c 1,26,-1
 705 355 l 1,27,28
 624 339 624 339 610 303 c 0,29,30
 572 207 572 207 516 135 c 1,31,32
 553 100 553 100 602 81.5 c 128,-1,33
 651 63 651 63 736 62 c 1,34,-1
 739 33 l 1,35,36
 589 1 589 1 536 -13 c 1,37,38
 491 32 491 32 456 71 c 1,39,40
 358 -10 358 -10 245 -10 c 0,0,1
183 76.5 m 128,-1,42
 223 46 223 46 290.5 46 c 128,-1,43
 358 46 358 46 428 103 c 1,44,45
 310 239 310 239 241 345 c 1,46,47
 143 269 143 269 143 180 c 0,48,41
 143 107 143 107 183 76.5 c 128,-1,42
254 644 m 128,-1,50
 233 622 233 622 233 573.5 c 128,-1,51
 233 525 233 525 293 423 c 1,52,53
 387 489 387 489 387 578 c 0,54,55
 387 620 387 620 362.5 643 c 128,-1,56
 338 666 338 666 306.5 666 c 128,-1,49
 275 666 275 666 254 644 c 128,-1,50
EndSplineSet
EndChar

StartChar: quotesingle
Encoding: 39 39 10
Width: 152
GlyphClass: 2
Flags: W
LayerCount: 2
Fore
SplineSet
128 683 m 1,0,-1
 96 451 l 1,1,2
 97 438 97 438 56 438 c 1,3,-1
 36 659 l 1,4,5
 37 662 37 662 40.5 666 c 128,-1,6
 44 670 44 670 67 676.5 c 128,-1,7
 90 683 90 683 128 683 c 1,0,-1
EndSplineSet
EndChar

StartChar: parenleft
Encoding: 40 40 11
Width: 397
GlyphClass: 2
Flags: W
LayerCount: 2
Fore
SplineSet
164 291 m 0,0,1
 164 188 164 188 202.5 80 c 128,-1,2
 241 -28 241 -28 317 -116 c 1,3,-1
 286 -145 l 1,4,5
 171 -51 171 -51 120.5 64.5 c 128,-1,6
 70 180 70 180 70 291 c 0,7,8
 70 533 70 533 286 709 c 1,9,-1
 317 681 l 1,10,11
 164 501 164 501 164 291 c 0,0,1
EndSplineSet
Position2: "'case' Case-Sensitive Forms in Latin lookup 1 per glyph data 0" dx=0 dy=70 dh=0 dv=0
EndChar

StartChar: parenright
Encoding: 41 41 12
Width: 397
GlyphClass: 2
Flags: W
LayerCount: 2
Fore
SplineSet
233 291 m 0,0,1
 233 501 233 501 80 681 c 1,2,-1
 111 709 l 1,3,4
 327 533 327 533 327 291 c 0,5,6
 327 180 327 180 276.5 64.5 c 128,-1,7
 226 -51 226 -51 111 -145 c 1,8,-1
 80 -116 l 1,9,10
 156 -28 156 -28 194.5 80 c 128,-1,11
 233 188 233 188 233 291 c 0,0,1
EndSplineSet
Position2: "'case' Case-Sensitive Forms in Latin lookup 1 per glyph data 0" dx=0 dy=70 dh=0 dv=0
EndChar

StartChar: asterisk
Encoding: 42 42 13
Width: 457
GlyphClass: 2
Flags: W
LayerCount: 2
Fore
SplineSet
321 348 m 1,0,-1
 251 348 l 1,1,2
 239 424 239 424 216 494 c 1,3,-1
 110 370 l 1,4,-1
 76 380 l 1,5,-1
 53 446 l 1,6,7
 123 481 123 481 183 524 c 1,8,9
 82 565 82 565 48 580 c 2,10,11
 48 580 48 580 31 588 c 1,12,-1
 31 623 l 1,13,-1
 86 664 l 1,14,15
 141 608 141 608 201 564 c 1,16,-1
 214 730 l 1,17,-1
 248 742 l 1,18,-1
 303 701 l 1,19,20
 267 631 267 631 244 561 c 1,21,-1
 406 599 l 1,22,-1
 427 571 l 1,23,-1
 406 505 l 1,24,25
 329 517 329 517 255 518 c 1,26,-1
 340 377 l 1,27,-1
 321 348 l 1,0,-1
EndSplineSet
EndChar

StartChar: plus
Encoding: 43 43 14
Width: 523
GlyphClass: 2
Flags: W
LayerCount: 2
Fore
SplineSet
231 541 m 1,0,-1
 292 541 l 1,1,-1
 292 334 l 1,2,-1
 499 334 l 1,3,-1
 499 273 l 1,4,-1
 292 273 l 1,5,-1
 292 66 l 1,6,-1
 231 66 l 1,7,-1
 231 273 l 1,8,-1
 24 273 l 1,9,-1
 24 334 l 1,10,-1
 231 334 l 1,11,-1
 231 541 l 1,0,-1
EndSplineSet
EndChar

StartChar: comma
Encoding: 44 44 15
Width: 214
GlyphClass: 2
Flags: W
LayerCount: 2
Fore
SplineSet
73.5 77.5 m 128,-1,1
 90 91 90 91 116.5 91 c 128,-1,2
 143 91 143 91 164 66 c 128,-1,3
 185 41 185 41 185 1 c 128,-1,4
 185 -39 185 -39 149 -81 c 128,-1,5
 113 -123 113 -123 39 -147 c 1,6,-1
 30 -125 l 1,7,8
 138 -76 138 -76 138 7 c 1,9,10
 124 -8 124 -8 104 -8 c 128,-1,11
 84 -8 84 -8 70.5 6 c 128,-1,12
 57 20 57 20 57 42 c 128,-1,0
 57 64 57 64 73.5 77.5 c 128,-1,1
EndSplineSet
EndChar

StartChar: hyphen
Encoding: 45 45 16
Width: 314
GlyphClass: 2
Flags: W
LayerCount: 2
Fore
SplineSet
257 241 m 1,0,1
 232 241 232 241 173 237 c 0,2,3
 84 231 84 231 40 220 c 1,4,-1
 26 216 l 1,5,-1
 18 232 l 1,6,-1
 57 284 l 1,7,8
 69 284 69 284 134 288 c 0,9,10
 245 295 245 295 276 304 c 1,11,-1
 288 308 l 1,12,-1
 296 293 l 1,13,-1
 257 241 l 1,0,1
EndSplineSet
Position2: "'case' Case-Sensitive Forms in Latin lookup 1 per glyph data 0" dx=0 dy=70 dh=0 dv=0
EndChar

StartChar: period
Encoding: 46 46 17
Width: 165
GlyphClass: 2
Flags: W
LayerCount: 2
Fore
SplineSet
82 -9 m 128,-1,1
 60 -9 60 -9 45 6.5 c 128,-1,2
 30 22 30 22 30 45 c 128,-1,3
 30 68 30 68 45 83 c 128,-1,4
 60 98 60 98 82 98 c 128,-1,5
 104 98 104 98 119.5 83 c 128,-1,6
 135 68 135 68 135 45 c 128,-1,7
 135 22 135 22 119.5 6.5 c 128,-1,0
 104 -9 104 -9 82 -9 c 128,-1,1
EndSplineSet
EndChar

StartChar: slash
Encoding: 47 47 18
Width: 290
GlyphClass: 2
Flags: W
LayerCount: 2
Fore
SplineSet
20 -140 m 1,0,-1
 205 701 l 1,1,-1
 270 701 l 1,2,-1
 85 -140 l 1,3,-1
 20 -140 l 1,0,-1
EndSplineSet
EndChar

StartChar: zero
Encoding: 48 48 19
Width: 523
GlyphClass: 2
Flags: W
LayerCount: 2
Fore
SplineSet
485 332 m 128,-1,1
 485 235 485 235 461.5 160 c 128,-1,2
 438 85 438 85 386.5 38 c 128,-1,3
 335 -9 335 -9 261 -9 c 128,-1,4
 187 -9 187 -9 135.5 38 c 128,-1,5
 84 85 84 85 60.5 160 c 128,-1,6
 37 235 37 235 37 332 c 128,-1,7
 37 429 37 429 60.5 504 c 128,-1,8
 84 579 84 579 135.5 626 c 128,-1,9
 187 673 187 673 261 673 c 128,-1,10
 335 673 335 673 386.5 626 c 128,-1,11
 438 579 438 579 461.5 504 c 128,-1,0
 485 429 485 429 485 332 c 128,-1,1
261 628 m 128,-1,13
 198 628 198 628 165 545 c 128,-1,14
 132 462 132 462 132 332 c 128,-1,15
 132 202 132 202 165 119 c 128,-1,16
 198 36 198 36 261 36 c 128,-1,17
 324 36 324 36 357 119 c 128,-1,18
 390 202 390 202 390 332 c 128,-1,19
 390 462 390 462 357 545 c 128,-1,12
 324 628 324 628 261 628 c 128,-1,13
EndSplineSet
EndChar

StartChar: one
Encoding: 49 49 20
Width: 403
GlyphClass: 2
Flags: W
LayerCount: 2
Fore
SplineSet
263 663 m 1,0,1
 259 557 259 557 259 402 c 0,2,3
 259 151 259 151 265 90 c 2,4,-1
 267 69 l 2,5,6
 269 52 269 52 287.5 44 c 128,-1,7
 306 36 306 36 358 26 c 1,8,-1
 355 -3 l 1,9,10
 295 0 295 0 211 0 c 128,-1,11
 127 0 127 0 49 -3 c 1,12,-1
 46 26 l 1,13,14
 63 30 63 30 83.5 33.5 c 128,-1,15
 104 37 104 37 116.5 40 c 128,-1,16
 129 43 129 43 136 45.5 c 128,-1,17
 143 48 143 48 150 52 c 0,18,19
 163 58 163 58 165 69 c 0,20,21
 172 128 172 128 172 283 c 0,22,23
 172 524 172 524 166 580 c 1,24,-1
 165 596 l 1,25,-1
 44 617 l 1,26,-1
 41 653 l 1,27,28
 166 653 166 653 242 673 c 1,29,-1
 263 663 l 1,0,1
EndSplineSet
EndChar

StartChar: two
Encoding: 50 50 21
Width: 517
GlyphClass: 2
Flags: W
LayerCount: 2
Fore
SplineSet
444 492 m 0,0,1
 444 436 444 436 415 375 c 128,-1,2
 386 314 386 314 348.5 268.5 c 128,-1,3
 311 223 311 223 260 176 c 1,4,5
 188 112 188 112 129 71 c 1,6,-1
 131 66 l 1,7,8
 316 66 316 66 367 82 c 128,-1,9
 418 98 418 98 441 171 c 1,10,-1
 468 159 l 1,11,12
 450 104 450 104 444 0 c 1,13,-1
 42 0 l 1,14,-1
 30 40 l 1,15,16
 67 68 67 68 131.5 131 c 128,-1,17
 196 194 196 194 238 245 c 128,-1,18
 280 296 280 296 314.5 361.5 c 128,-1,19
 349 427 349 427 349 486.5 c 128,-1,20
 349 546 349 546 313 575.5 c 128,-1,21
 277 605 277 605 219 605 c 0,22,23
 136 605 136 605 63 566 c 1,24,-1
 49 594 l 1,25,26
 143 673 143 673 249 673 c 0,27,28
 330 673 330 673 387 625.5 c 128,-1,29
 444 578 444 578 444 492 c 0,0,1
EndSplineSet
EndChar

StartChar: three
Encoding: 51 51 22
Width: 480
GlyphClass: 2
Flags: W
LayerCount: 2
Fore
SplineSet
430 203 m 0,0,1
 430 109 430 109 342 33 c 128,-1,2
 254 -43 254 -43 116 -43 c 0,3,4
 71 -43 71 -43 25 -33 c 1,5,-1
 28 15 l 1,6,7
 73 6 73 6 110 6 c 0,8,9
 216 6 216 6 275.5 61.5 c 128,-1,10
 335 117 335 117 335 190 c 0,11,12
 335 248 335 248 294.5 288.5 c 128,-1,13
 254 329 254 329 181 329 c 0,14,15
 145 329 145 329 106 319 c 1,16,-1
 109 358 l 1,17,18
 205 380 205 380 254.5 433.5 c 128,-1,19
 304 487 304 487 304 528.5 c 128,-1,20
 304 570 304 570 280.5 592 c 128,-1,21
 257 614 257 614 206.5 614 c 128,-1,22
 156 614 156 614 78 566 c 1,23,-1
 64 594 l 1,24,25
 151 674 151 674 247 674 c 0,26,27
 311 674 311 674 353.5 639 c 128,-1,28
 396 604 396 604 396 556 c 0,29,30
 396 452 396 452 247 375 c 1,31,-1
 247 370 l 1,32,33
 341 356 341 356 385.5 311.5 c 128,-1,34
 430 267 430 267 430 203 c 0,0,1
EndSplineSet
EndChar

StartChar: four
Encoding: 52 52 23
Width: 523
GlyphClass: 2
Flags: W
LayerCount: 2
Fore
SplineSet
496 -3 m 1,0,1
 433 0 433 0 346.5 0 c 128,-1,2
 260 0 260 0 197 -3 c 1,3,-1
 194 26 l 1,4,5
 211 30 211 30 231.5 33.5 c 128,-1,6
 252 37 252 37 264.5 40 c 128,-1,7
 277 43 277 43 284 45.5 c 128,-1,8
 291 48 291 48 298 52 c 0,9,10
 311 58 311 58 313 69 c 0,11,12
 316 92 316 92 319 186 c 1,13,-1
 32 186 l 1,14,-1
 20 225 l 1,15,-1
 284 722 l 1,16,-1
 375 713 l 1,17,-1
 92 241 l 1,18,-1
 320 241 l 1,19,-1
 320 426 l 2,20,21
 320 428 320 428 322 431.5 c 128,-1,22
 324 435 324 435 345.5 441.5 c 128,-1,23
 367 448 367 448 407 450 c 1,24,25
 407 278 407 278 408 242 c 1,26,-1
 489 242 l 1,27,-1
 495 227 l 1,28,-1
 457 181 l 1,29,30
 457 183 457 183 409 185 c 1,31,-1
 415 69 l 1,32,33
 417 51 417 51 433.5 43.5 c 128,-1,34
 450 36 450 36 499 26 c 1,35,-1
 496 -3 l 1,0,1
EndSplineSet
EndChar

StartChar: five
Encoding: 53 53 24
Width: 489
GlyphClass: 2
Flags: W
LayerCount: 2
Fore
SplineSet
383 598 m 1,0,1
 359 604 359 604 317.5 604 c 128,-1,2
 276 604 276 604 148 592 c 1,3,-1
 120 439 l 1,4,5
 278 434 278 434 358.5 369.5 c 128,-1,6
 439 305 439 305 439 209.5 c 128,-1,7
 439 114 439 114 352 35.5 c 128,-1,8
 265 -43 265 -43 129 -43 c 0,9,10
 83 -43 83 -43 36 -33 c 1,11,-1
 39 12 l 1,12,13
 79 7 79 7 106 7 c 0,14,15
 216 7 216 7 280 62 c 128,-1,16
 344 117 344 117 344 192.5 c 128,-1,17
 344 268 344 268 275 321.5 c 128,-1,18
 206 375 206 375 77 375 c 1,19,-1
 65 414 l 1,20,-1
 112 657 l 1,21,-1
 417 690 l 1,22,-1
 424 675 l 1,23,-1
 383 598 l 1,0,1
EndSplineSet
EndChar

StartChar: six
Encoding: 54 54 25
Width: 486
GlyphClass: 2
Flags: W
LayerCount: 2
Fore
SplineSet
273 341 m 0,0,1
 354 341 354 341 400 291.5 c 128,-1,2
 446 242 446 242 446 171 c 128,-1,3
 446 100 446 100 394 45.5 c 128,-1,4
 342 -9 342 -9 247 -9 c 128,-1,5
 152 -9 152 -9 91 61 c 128,-1,6
 30 131 30 131 30 234 c 0,7,8
 30 313 30 313 66.5 392 c 128,-1,9
 103 471 103 471 191.5 552 c 128,-1,10
 280 633 280 633 411 692 c 1,11,-1
 427 657 l 1,12,13
 325 610 325 610 255 532 c 0,14,15
 128 392 128 392 128 224 c 0,16,17
 128 145 128 145 159 93.5 c 128,-1,18
 190 42 190 42 241 42 c 128,-1,19
 292 42 292 42 319.5 80 c 128,-1,20
 347 118 347 118 347 171 c 128,-1,21
 347 224 347 224 318.5 260.5 c 128,-1,22
 290 297 290 297 242 297 c 0,23,24
 217 297 217 297 187 285 c 1,25,-1
 183 325 l 1,26,27
 230 341 230 341 273 341 c 0,0,1
EndSplineSet
EndChar

StartChar: seven
Encoding: 55 55 26
Width: 477
GlyphClass: 2
Flags: W
LayerCount: 2
Fore
SplineSet
321 600 m 2,0,-1
 262 600 l 2,1,2
 199 600 199 600 180.5 596 c 128,-1,3
 162 592 162 592 143.5 587 c 128,-1,4
 125 582 125 582 117.5 574.5 c 128,-1,5
 110 567 110 567 100 556 c 0,6,7
 86 541 86 541 72 496 c 1,8,-1
 45 508 l 1,9,10
 57 575 57 575 57 670 c 1,11,12
 120 666 120 666 288 666 c 128,-1,13
 456 666 456 666 474 667 c 1,14,-1
 477 638 l 1,15,-1
 195 -33 l 1,16,-1
 104 -24 l 1,17,-1
 392 577 l 1,18,19
 389 600 389 600 321 600 c 2,0,-1
EndSplineSet
EndChar

StartChar: eight
Encoding: 56 56 27
Width: 505
GlyphClass: 2
Flags: W
LayerCount: 2
Fore
SplineSet
329.5 599 m 128,-1,1
 302 629 302 629 254.5 629 c 128,-1,2
 207 629 207 629 180.5 602 c 128,-1,3
 154 575 154 575 154 534 c 0,4,5
 154 451 154 451 273 383 c 1,6,7
 312 405 312 405 334.5 445 c 128,-1,8
 357 485 357 485 357 527 c 128,-1,0
 357 569 357 569 329.5 599 c 128,-1,1
163 76.5 m 128,-1,10
 194 41 194 41 246 41 c 128,-1,11
 298 41 298 41 332 77 c 128,-1,12
 366 113 366 113 366 162 c 0,13,14
 366 259 366 259 231 318 c 1,15,16
 184 295 184 295 158 253 c 128,-1,17
 132 211 132 211 132 161.5 c 128,-1,9
 132 112 132 112 163 76.5 c 128,-1,10
460 170 m 0,18,19
 460 95 460 95 397.5 43 c 128,-1,20
 335 -9 335 -9 242 -9 c 128,-1,21
 149 -9 149 -9 97 39 c 128,-1,22
 45 87 45 87 45 150 c 128,-1,23
 45 213 45 213 83 262.5 c 128,-1,24
 121 312 121 312 193 336 c 1,25,26
 62 415 62 415 62 514 c 0,27,28
 62 582 62 582 118.5 627.5 c 128,-1,29
 175 673 175 673 258.5 673 c 128,-1,30
 342 673 342 673 390 631.5 c 128,-1,31
 438 590 438 590 438 535.5 c 128,-1,32
 438 481 438 481 405 434.5 c 128,-1,33
 372 388 372 388 309 364 c 1,34,35
 460 286 460 286 460 170 c 0,18,19
EndSplineSet
EndChar

StartChar: nine
Encoding: 57 57 28
Width: 503
GlyphClass: 2
Flags: W
LayerCount: 2
Fore
SplineSet
228 295 m 0,0,1
 141 295 141 295 90.5 351 c 128,-1,2
 40 407 40 407 40 484 c 128,-1,3
 40 561 40 561 93.5 617 c 128,-1,4
 147 673 147 673 245.5 673 c 128,-1,5
 344 673 344 673 408.5 599.5 c 128,-1,6
 473 526 473 526 473 417 c 0,7,8
 473 287 473 287 374.5 156 c 128,-1,9
 276 25 276 25 74 -66 c 1,10,-1
 58 -30 l 1,11,12
 139 8 139 8 202.5 64 c 128,-1,13
 266 120 266 120 303 182 c 0,14,15
 377 308 377 308 377 428 c 0,16,17
 377 512 377 512 342 566.5 c 128,-1,18
 307 621 307 621 250.5 621 c 128,-1,19
 194 621 194 621 162.5 578.5 c 128,-1,20
 131 536 131 536 131 479 c 128,-1,21
 131 422 131 422 164 380 c 128,-1,22
 197 338 197 338 257 338 c 0,23,24
 278 338 278 338 304 344 c 1,25,-1
 308 307 l 1,26,27
 264 295 264 295 228 295 c 0,0,1
EndSplineSet
EndChar

StartChar: colon
Encoding: 58 58 29
Width: 196
GlyphClass: 2
Flags: W
LayerCount: 2
Fore
SplineSet
113 -9 m 128,-1,1
 91 -9 91 -9 75.5 6.5 c 128,-1,2
 60 22 60 22 60 45 c 128,-1,3
 60 68 60 68 75.5 83.5 c 128,-1,4
 91 99 91 99 113 99 c 128,-1,5
 135 99 135 99 150.5 83.5 c 128,-1,6
 166 68 166 68 166 45 c 128,-1,7
 166 22 166 22 150.5 6.5 c 128,-1,0
 135 -9 135 -9 113 -9 c 128,-1,1
113 295 m 128,-1,9
 91 295 91 295 75.5 310.5 c 128,-1,10
 60 326 60 326 60 349 c 128,-1,11
 60 372 60 372 75.5 387.5 c 128,-1,12
 91 403 91 403 113 403 c 128,-1,13
 135 403 135 403 150.5 387.5 c 128,-1,14
 166 372 166 372 166 349 c 128,-1,15
 166 326 166 326 150.5 310.5 c 128,-1,8
 135 295 135 295 113 295 c 128,-1,9
EndSplineSet
EndChar

StartChar: semicolon
Encoding: 59 59 30
Width: 211
GlyphClass: 2
Flags: W
LayerCount: 2
Fore
SplineSet
113 295 m 128,-1,1
 91 295 91 295 75.5 310.5 c 128,-1,2
 60 326 60 326 60 349 c 128,-1,3
 60 372 60 372 75.5 387.5 c 128,-1,4
 91 403 91 403 113 403 c 128,-1,5
 135 403 135 403 150.5 387.5 c 128,-1,6
 166 372 166 372 166 349 c 128,-1,7
 166 326 166 326 150.5 310.5 c 128,-1,0
 135 295 135 295 113 295 c 128,-1,1
70.5 77.5 m 128,-1,9
 87 91 87 91 113.5 91 c 128,-1,10
 140 91 140 91 161 66 c 128,-1,11
 182 41 182 41 182 1 c 128,-1,12
 182 -39 182 -39 146 -81 c 128,-1,13
 110 -123 110 -123 36 -147 c 1,14,-1
 27 -125 l 1,15,16
 135 -76 135 -76 135 7 c 1,17,18
 121 -8 121 -8 101 -8 c 128,-1,19
 81 -8 81 -8 67.5 6 c 128,-1,20
 54 20 54 20 54 42 c 128,-1,8
 54 64 54 64 70.5 77.5 c 128,-1,9
EndSplineSet
EndChar

StartChar: less
Encoding: 60 60 31
Width: 523
GlyphClass: 2
Flags: W
LayerCount: 2
Fore
SplineSet
487 56 m 1,0,-1
 37 303 l 1,1,-1
 487 550 l 1,2,-1
 487 481 l 1,3,-1
 151 303 l 1,4,-1
 487 125 l 1,5,-1
 487 56 l 1,0,-1
EndSplineSet
EndChar

StartChar: equal
Encoding: 61 61 32
Width: 523
GlyphClass: 2
Flags: W
LayerCount: 2
Fore
SplineSet
24 354 m 1,0,-1
 24 415 l 1,1,-1
 499 415 l 1,2,-1
 499 354 l 1,3,-1
 24 354 l 1,0,-1
24 192 m 1,4,-1
 24 253 l 1,5,-1
 499 253 l 1,6,-1
 499 192 l 1,7,-1
 24 192 l 1,4,-1
EndSplineSet
EndChar

StartChar: greater
Encoding: 62 62 33
Width: 523
GlyphClass: 2
Flags: W
LayerCount: 2
Fore
SplineSet
487 303 m 1,0,-1
 37 56 l 1,1,-1
 37 125 l 1,2,-1
 373 303 l 1,3,-1
 37 481 l 1,4,-1
 37 550 l 1,5,-1
 487 303 l 1,0,-1
EndSplineSet
EndChar

StartChar: question
Encoding: 63 63 34
Width: 343
GlyphClass: 2
Flags: W
LayerCount: 2
Fore
SplineSet
148 -9 m 128,-1,1
 126 -9 126 -9 110.5 6.5 c 128,-1,2
 95 22 95 22 95 45 c 128,-1,3
 95 68 95 68 110.5 83.5 c 128,-1,4
 126 99 126 99 148 99 c 128,-1,5
 170 99 170 99 185.5 83.5 c 128,-1,6
 201 68 201 68 201 45 c 128,-1,7
 201 22 201 22 185.5 6.5 c 128,-1,0
 170 -9 170 -9 148 -9 c 128,-1,1
50 642 m 0,8,9
 50 676 50 676 72 693 c 1,10,11
 293 595 293 595 293 470 c 0,12,13
 293 420 293 420 244 377 c 0,14,15
 223 359 223 359 202 340 c 0,16,17
 153 296 153 296 153 248.5 c 128,-1,18
 153 201 153 201 168 168 c 1,19,-1
 130 159 l 1,20,21
 77 238 77 238 77 299 c 0,22,23
 77 326 77 326 103.5 354 c 128,-1,24
 130 382 130 382 161.5 401.5 c 128,-1,25
 193 421 193 421 219.5 447.5 c 128,-1,26
 246 474 246 474 246 498 c 0,27,28
 246 534 246 534 199.5 558 c 128,-1,29
 153 582 153 582 68 584 c 1,30,31
 61 592 61 592 55.5 611 c 128,-1,32
 50 630 50 630 50 642 c 0,8,9
EndSplineSet
EndChar

StartChar: at
Encoding: 64 64 35
Width: 781
GlyphClass: 2
Flags: W
LayerCount: 2
Fore
SplineSet
508 -40 m 128,-1,1
 435 -68 435 -68 368.5 -68 c 128,-1,2
 302 -68 302 -68 245 -47 c 128,-1,3
 188 -26 188 -26 141.5 14.5 c 128,-1,4
 95 55 95 55 67.5 121 c 128,-1,5
 40 187 40 187 40 262 c 128,-1,6
 40 337 40 337 66.5 401.5 c 128,-1,7
 93 466 93 466 141 519.5 c 128,-1,8
 189 573 189 573 265.5 605.5 c 128,-1,9
 342 638 342 638 434 638 c 0,10,11
 582 638 582 638 661.5 561.5 c 128,-1,12
 741 485 741 485 741 380 c 128,-1,13
 741 275 741 275 669.5 199 c 128,-1,14
 598 123 598 123 475 123 c 0,15,16
 443 123 443 123 430 136 c 128,-1,17
 417 149 417 149 417 169.5 c 128,-1,18
 417 190 417 190 429 240 c 1,19,-1
 425 240 l 1,20,21
 343 124 343 124 290 124 c 0,22,23
 257 124 257 124 238 151.5 c 128,-1,24
 219 179 219 179 219 229 c 0,25,26
 219 319 219 319 282 389.5 c 128,-1,27
 345 460 345 460 444 460 c 0,28,29
 479 460 479 460 505 450 c 1,30,-1
 535 472 l 1,31,-1
 550 472 l 1,32,33
 521 380 521 380 502.5 288 c 128,-1,34
 484 196 484 196 484 153 c 1,35,36
 564 153 564 153 614.5 215 c 128,-1,37
 665 277 665 277 665 360 c 0,38,39
 665 495 665 495 552 561 c 0,40,41
 490 597 490 597 403 597 c 0,42,43
 280 597 280 597 202.5 505.5 c 128,-1,44
 125 414 125 414 125 286.5 c 128,-1,45
 125 159 125 159 195.5 68 c 128,-1,46
 266 -23 266 -23 385.5 -23 c 128,-1,47
 505 -23 505 -23 624 58 c 1,48,-1
 640 35 l 1,49,0
 581 -12 581 -12 508 -40 c 128,-1,1
447 434 m 0,50,51
 380 434 380 434 341 368.5 c 128,-1,52
 302 303 302 303 302 241 c 128,-1,53
 302 179 302 179 327 179 c 0,54,55
 348 179 348 179 438 288 c 1,56,-1
 474 429 l 1,57,58
 459 434 459 434 447 434 c 0,50,51
EndSplineSet
EndChar

StartChar: A
Encoding: 65 65 36
Width: 694
GlyphClass: 2
Flags: W
LayerCount: 2
Fore
SplineSet
250 -3 m 1,0,1
 187 0 187 0 126.5 0 c 128,-1,2
 66 0 66 0 3 -3 c 1,3,-1
 0 26 l 1,4,5
 46 35 46 35 65 45.5 c 128,-1,6
 84 56 84 56 90 75 c 2,7,-1
 289 684 l 1,8,-1
 376 694 l 1,9,-1
 609 69 l 2,10,11
 616 52 616 52 632.5 43.5 c 128,-1,12
 649 35 649 35 694 26 c 1,13,-1
 691 -3 l 1,14,15
 628 0 628 0 554 0 c 128,-1,16
 480 0 480 0 417 -3 c 1,17,-1
 414 26 l 1,18,19
 485 40 485 40 496 52 c 1,20,21
 502 57 502 57 502 62.5 c 128,-1,22
 502 68 502 68 447 242 c 1,23,-1
 221 242 l 1,24,-1
 167 64 l 1,25,26
 167 51 167 51 187 43 c 128,-1,27
 207 35 207 35 253 26 c 1,28,-1
 250 -3 l 1,0,1
330 590 m 1,29,-1
 326 590 l 1,30,31
 319 566 319 566 308.5 532.5 c 128,-1,32
 298 499 298 499 277 428.5 c 128,-1,33
 256 358 256 358 235 288 c 1,34,-1
 431 288 l 1,35,-1
 330 590 l 1,29,-1
EndSplineSet
Position2: "'cpsp' Capital Spacing in Latin lookup 2 subtable" dx=7 dy=0 dh=35 dv=0
EndChar

StartChar: B
Encoding: 66 66 37
Width: 626
GlyphClass: 2
Flags: W
LayerCount: 2
Fore
SplineSet
173 685 m 2,0,-1
 341 685 l 2,1,2
 435 685 435 685 484 639 c 128,-1,3
 533 593 533 593 533 525 c 0,4,5
 533 479 533 479 505 437.5 c 128,-1,6
 477 396 477 396 428 372 c 1,7,8
 507 354 507 354 542 310 c 128,-1,9
 577 266 577 266 577 191 c 128,-1,10
 577 116 577 116 514 58 c 128,-1,11
 451 0 451 0 357 0 c 2,12,-1
 173 0 l 2,13,14
 95 0 95 0 32 -3 c 1,15,-1
 29 26 l 1,16,17
 80 36 80 36 98 44 c 128,-1,18
 116 52 116 52 118 69 c 0,19,20
 126 128 126 128 126 283 c 0,21,22
 126 534 126 534 120 596 c 2,23,-1
 118 616 l 2,24,25
 116 634 116 634 100 641.5 c 128,-1,26
 84 649 84 649 36 659 c 1,27,-1
 39 688 l 1,28,29
 102 685 102 685 173 685 c 2,0,-1
439 525 m 0,30,31
 439 643 439 643 287 643 c 0,32,33
 251 643 251 643 240.5 639 c 128,-1,34
 230 635 230 635 226 621 c 0,35,36
 215 570 215 570 215 368 c 1,37,38
 285 380 285 380 364 380 c 1,39,40
 439 429 439 429 439 525 c 0,30,31
327 36 m 0,41,42
 390 36 390 36 436 78 c 128,-1,43
 482 120 482 120 482 193 c 0,44,45
 482 338 482 338 278 338 c 0,46,47
 248 338 248 338 215 335 c 1,48,49
 215 138 215 138 223 87 c 2,50,-1
 226 68 l 1,51,52
 235 36 235 36 327 36 c 0,41,42
EndSplineSet
Position2: "'cpsp' Capital Spacing in Latin lookup 2 subtable" dx=7 dy=0 dh=35 dv=0
EndChar

StartChar: C
Encoding: 67 67 38
Width: 700
GlyphClass: 2
Flags: W
LayerCount: 2
Fore
SplineSet
407 37 m 0,0,1
 501 37 501 37 561 75.5 c 128,-1,2
 621 114 621 114 641 180 c 1,3,-1
 668 168 l 1,4,5
 657 132 657 132 645 34 c 1,6,7
 522 -12 522 -12 404 -12 c 0,8,9
 240 -12 240 -12 144 77.5 c 128,-1,10
 48 167 48 167 48 326 c 128,-1,11
 48 485 48 485 143 589.5 c 128,-1,12
 238 694 238 694 403 694 c 0,13,14
 449 694 449 694 506 686.5 c 128,-1,15
 563 679 563 679 584 679 c 128,-1,16
 605 679 605 679 629 685 c 1,17,-1
 629 670 l 2,18,19
 629 597 629 597 641 529 c 1,20,-1
 614 517 l 1,21,22
 574 648 574 648 402 648 c 0,23,24
 302 648 302 648 230 577 c 0,25,26
 194 542 194 542 173.5 484 c 128,-1,27
 153 426 153 426 153 359.5 c 128,-1,28
 153 293 153 293 167 239 c 128,-1,29
 181 185 181 185 210 139 c 128,-1,30
 239 93 239 93 290 65 c 128,-1,31
 341 37 341 37 407 37 c 0,0,1
EndSplineSet
Position2: "'cpsp' Capital Spacing in Latin lookup 2 subtable" dx=7 dy=0 dh=35 dv=0
EndChar

StartChar: D
Encoding: 68 68 39
Width: 769
GlyphClass: 2
Flags: W
LayerCount: 2
Fore
SplineSet
173 685 m 2,0,-1
 351 685 l 2,1,2
 467 685 467 685 558 640 c 1,3,4
 659 588 659 588 698 488 c 0,5,6
 720 433 720 433 720 365 c 0,7,8
 720 204 720 204 621 102 c 128,-1,9
 522 0 522 0 334 0 c 2,10,-1
 173 0 l 2,11,12
 95 0 95 0 32 -3 c 1,13,-1
 29 26 l 1,14,15
 80 36 80 36 98 44 c 128,-1,16
 116 52 116 52 118 69 c 0,17,18
 126 128 126 128 126 283 c 0,19,20
 126 534 126 534 120 596 c 2,21,-1
 118 616 l 2,22,23
 116 634 116 634 100 641.5 c 128,-1,24
 84 649 84 649 36 659 c 1,25,-1
 39 688 l 1,26,27
 102 685 102 685 173 685 c 2,0,-1
227 60 m 1,28,29
 281 48 281 48 342 48 c 128,-1,30
 403 48 403 48 458 72.5 c 128,-1,31
 513 97 513 97 542 130.5 c 128,-1,32
 571 164 571 164 588 210 c 1,33,34
 615 278 615 278 615 350 c 0,35,36
 615 643 615 643 289 643 c 0,37,38
 253 643 253 643 241.5 639 c 128,-1,39
 230 635 230 635 227 622 c 0,40,41
 216 557 216 557 216 402 c 0,42,43
 216 161 216 161 224 83 c 1,44,-1
 227 60 l 1,28,29
EndSplineSet
Position2: "'cpsp' Capital Spacing in Latin lookup 2 subtable" dx=7 dy=0 dh=35 dv=0
EndChar

StartChar: E
Encoding: 69 69 40
Width: 608
GlyphClass: 2
Flags: W
LayerCount: 2
Fore
SplineSet
215 327 m 1,0,1
 215 138 215 138 223 87 c 2,2,-1
 226 68 l 1,3,4
 235 36 235 36 327 36 c 0,5,6
 373 36 373 36 400.5 39.5 c 128,-1,7
 428 43 428 43 459 56 c 0,8,9
 517 79 517 79 547 171 c 1,10,-1
 574 159 l 1,11,12
 556 104 556 104 550 0 c 1,13,-1
 150 0 l 2,14,15
 93 0 93 0 30 -3 c 1,16,-1
 27 26 l 1,17,18
 78 36 78 36 96 44 c 128,-1,19
 114 52 114 52 116 69 c 0,20,21
 125 127 125 127 125 282 c 0,22,23
 125 534 125 534 119 596 c 2,24,-1
 117 616 l 2,25,26
 115 634 115 634 99 641.5 c 128,-1,27
 83 649 83 649 35 659 c 1,28,-1
 38 688 l 1,29,30
 101 685 101 685 275 685 c 128,-1,31
 449 685 449 685 531 691 c 1,32,-1
 531 676 l 2,33,34
 531 597 531 597 543 529 c 1,35,-1
 516 517 l 1,36,37
 490 599 490 599 454 621 c 128,-1,38
 418 643 418 643 318 643 c 0,39,40
 273 643 273 643 251 639 c 128,-1,41
 229 635 229 635 226 621 c 0,42,43
 216 556 216 556 215 367 c 1,44,45
 342 367 342 367 367.5 373 c 128,-1,46
 393 379 393 379 400.5 395 c 128,-1,47
 408 411 408 411 418 463 c 1,48,-1
 453 459 l 1,49,50
 445 401 445 401 445 348 c 128,-1,51
 445 295 445 295 453 236 c 1,52,-1
 418 231 l 1,53,54
 408 283 408 283 400.5 299 c 128,-1,55
 393 315 393 315 367.5 321 c 128,-1,56
 342 327 342 327 215 327 c 1,0,1
EndSplineSet
Position2: "'cpsp' Capital Spacing in Latin lookup 2 subtable" dx=7 dy=0 dh=35 dv=0
EndChar

StartChar: F
Encoding: 70 70 41
Width: 554
GlyphClass: 2
Flags: W
LayerCount: 2
Fore
SplineSet
216 327 m 1,0,1
 216 149 216 149 222 89 c 2,2,-1
 224 69 l 2,3,4
 226 51 226 51 243 43.5 c 128,-1,5
 260 36 260 36 309 26 c 1,6,-1
 306 -3 l 1,7,8
 243 0 243 0 169 0 c 128,-1,9
 95 0 95 0 32 -3 c 1,10,-1
 29 26 l 1,11,12
 80 36 80 36 98 44 c 128,-1,13
 116 52 116 52 118 69 c 0,14,15
 126 128 126 128 126 283 c 0,16,17
 126 534 126 534 120 596 c 2,18,-1
 118 616 l 2,19,20
 116 634 116 634 100 641.5 c 128,-1,21
 84 649 84 649 36 659 c 1,22,-1
 39 688 l 1,23,24
 102 685 102 685 269.5 685 c 128,-1,25
 437 685 437 685 519 691 c 1,26,-1
 519 676 l 2,27,28
 519 597 519 597 531 529 c 1,29,-1
 504 517 l 1,30,31
 478 599 478 599 442 621 c 128,-1,32
 406 643 406 643 306 643 c 0,33,34
 242 643 242 643 231 634 c 0,35,36
 226 629 226 629 225 621 c 0,37,38
 217 558 217 558 216 367 c 1,39,40
 351 367 351 367 376.5 373 c 128,-1,41
 402 379 402 379 409.5 395 c 128,-1,42
 417 411 417 411 427 463 c 1,43,-1
 462 459 l 1,44,45
 454 401 454 401 454 348 c 128,-1,46
 454 295 454 295 462 236 c 1,47,-1
 427 231 l 1,48,49
 417 283 417 283 409.5 299 c 128,-1,50
 402 315 402 315 376.5 321 c 128,-1,51
 351 327 351 327 216 327 c 1,0,1
EndSplineSet
Position2: "'cpsp' Capital Spacing in Latin lookup 2 subtable" dx=7 dy=0 dh=35 dv=0
PairPos2: "'kern' Horizontal Kerning in Latin lookup 0 per glyph data 1" oe dx=0 dy=0 dh=-50 dv=0 dx=0 dy=0 dh=0 dv=0
PairPos2: "'kern' Horizontal Kerning in Latin lookup 0 per glyph data 1" oslash dx=0 dy=0 dh=-50 dv=0 dx=0 dy=0 dh=0 dv=0
PairPos2: "'kern' Horizontal Kerning in Latin lookup 0 per glyph data 1" odieresis dx=0 dy=0 dh=-50 dv=0 dx=0 dy=0 dh=0 dv=0
PairPos2: "'kern' Horizontal Kerning in Latin lookup 0 per glyph data 1" otilde dx=0 dy=0 dh=-50 dv=0 dx=0 dy=0 dh=0 dv=0
PairPos2: "'kern' Horizontal Kerning in Latin lookup 0 per glyph data 1" ocircumflex dx=0 dy=0 dh=-50 dv=0 dx=0 dy=0 dh=0 dv=0
PairPos2: "'kern' Horizontal Kerning in Latin lookup 0 per glyph data 1" oacute dx=0 dy=0 dh=-50 dv=0 dx=0 dy=0 dh=0 dv=0
PairPos2: "'kern' Horizontal Kerning in Latin lookup 0 per glyph data 1" ograve dx=0 dy=0 dh=-50 dv=0 dx=0 dy=0 dh=0 dv=0
PairPos2: "'kern' Horizontal Kerning in Latin lookup 0 per glyph data 1" edieresis dx=0 dy=0 dh=-50 dv=0 dx=0 dy=0 dh=0 dv=0
PairPos2: "'kern' Horizontal Kerning in Latin lookup 0 per glyph data 1" ecircumflex dx=0 dy=0 dh=-50 dv=0 dx=0 dy=0 dh=0 dv=0
PairPos2: "'kern' Horizontal Kerning in Latin lookup 0 per glyph data 1" eacute dx=0 dy=0 dh=-50 dv=0 dx=0 dy=0 dh=0 dv=0
PairPos2: "'kern' Horizontal Kerning in Latin lookup 0 per glyph data 1" egrave dx=0 dy=0 dh=-50 dv=0 dx=0 dy=0 dh=0 dv=0
PairPos2: "'kern' Horizontal Kerning in Latin lookup 0 per glyph data 1" ccedilla dx=0 dy=0 dh=-50 dv=0 dx=0 dy=0 dh=0 dv=0
PairPos2: "'kern' Horizontal Kerning in Latin lookup 0 per glyph data 1" aring dx=0 dy=0 dh=-40 dv=0 dx=0 dy=0 dh=0 dv=0
PairPos2: "'kern' Horizontal Kerning in Latin lookup 0 per glyph data 1" adieresis dx=0 dy=0 dh=-40 dv=0 dx=0 dy=0 dh=0 dv=0
PairPos2: "'kern' Horizontal Kerning in Latin lookup 0 per glyph data 1" atilde dx=0 dy=0 dh=-40 dv=0 dx=0 dy=0 dh=0 dv=0
PairPos2: "'kern' Horizontal Kerning in Latin lookup 0 per glyph data 1" acircumflex dx=0 dy=0 dh=-40 dv=0 dx=0 dy=0 dh=0 dv=0
PairPos2: "'kern' Horizontal Kerning in Latin lookup 0 per glyph data 1" aacute dx=0 dy=0 dh=-40 dv=0 dx=0 dy=0 dh=0 dv=0
PairPos2: "'kern' Horizontal Kerning in Latin lookup 0 per glyph data 1" agrave dx=0 dy=0 dh=-40 dv=0 dx=0 dy=0 dh=0 dv=0
PairPos2: "'kern' Horizontal Kerning in Latin lookup 0 per glyph data 1" Aring dx=0 dy=0 dh=-70 dv=0 dx=0 dy=0 dh=0 dv=0
PairPos2: "'kern' Horizontal Kerning in Latin lookup 0 per glyph data 1" Adieresis dx=0 dy=0 dh=-70 dv=0 dx=0 dy=0 dh=0 dv=0
PairPos2: "'kern' Horizontal Kerning in Latin lookup 0 per glyph data 1" Atilde dx=0 dy=0 dh=-70 dv=0 dx=0 dy=0 dh=0 dv=0
PairPos2: "'kern' Horizontal Kerning in Latin lookup 0 per glyph data 1" Acircumflex dx=0 dy=0 dh=-70 dv=0 dx=0 dy=0 dh=0 dv=0
PairPos2: "'kern' Horizontal Kerning in Latin lookup 0 per glyph data 1" Aacute dx=0 dy=0 dh=-70 dv=0 dx=0 dy=0 dh=0 dv=0
PairPos2: "'kern' Horizontal Kerning in Latin lookup 0 per glyph data 1" Agrave dx=0 dy=0 dh=-70 dv=0 dx=0 dy=0 dh=0 dv=0
PairPos2: "'kern' Horizontal Kerning in Latin lookup 0 per glyph data 1" q dx=0 dy=0 dh=-50 dv=0 dx=0 dy=0 dh=0 dv=0
PairPos2: "'kern' Horizontal Kerning in Latin lookup 0 per glyph data 1" o dx=0 dy=0 dh=-50 dv=0 dx=0 dy=0 dh=0 dv=0
PairPos2: "'kern' Horizontal Kerning in Latin lookup 0 per glyph data 1" g dx=0 dy=0 dh=-50 dv=0 dx=0 dy=0 dh=0 dv=0
PairPos2: "'kern' Horizontal Kerning in Latin lookup 0 per glyph data 1" e dx=0 dy=0 dh=-50 dv=0 dx=0 dy=0 dh=0 dv=0
PairPos2: "'kern' Horizontal Kerning in Latin lookup 0 per glyph data 1" c dx=0 dy=0 dh=-50 dv=0 dx=0 dy=0 dh=0 dv=0
PairPos2: "'kern' Horizontal Kerning in Latin lookup 0 per glyph data 1" a dx=0 dy=0 dh=-40 dv=0 dx=0 dy=0 dh=0 dv=0
PairPos2: "'kern' Horizontal Kerning in Latin lookup 0 per glyph data 1" A dx=0 dy=0 dh=-70 dv=0 dx=0 dy=0 dh=0 dv=0
PairPos2: "'kern' Horizontal Kerning in Latin lookup 0 per glyph data 1" period dx=0 dy=0 dh=-132 dv=0 dx=0 dy=0 dh=0 dv=0
EndChar

StartChar: G
Encoding: 71 71 42
Width: 759
GlyphClass: 2
Flags: W
LayerCount: 2
Fore
SplineSet
407 37 m 0,0,1
 517 37 517 37 585 73 c 1,2,-1
 578 235 l 1,3,4
 576 253 576 253 560 260.5 c 128,-1,5
 544 268 544 268 496 278 c 1,6,-1
 499 307 l 1,7,8
 562 304 562 304 617.5 304 c 128,-1,9
 673 304 673 304 736 307 c 1,10,-1
 739 278 l 1,11,12
 724 275 724 275 714.5 272 c 128,-1,13
 705 269 705 269 699 267.5 c 128,-1,14
 693 266 693 266 690 261 c 128,-1,15
 687 256 687 256 686 255 c 0,16,17
 684 250 684 250 684 235 c 2,18,-1
 677 55 l 1,19,20
 519 -12 519 -12 404 -12 c 0,21,22
 240 -12 240 -12 144 77.5 c 128,-1,23
 48 167 48 167 48 334 c 0,24,25
 48 432 48 432 89.5 512.5 c 128,-1,26
 131 593 131 593 216.5 643.5 c 128,-1,27
 302 694 302 694 418 694 c 0,28,29
 466 694 466 694 525 686.5 c 128,-1,30
 584 679 584 679 606 679 c 128,-1,31
 628 679 628 679 653 685 c 1,32,-1
 653 670 l 2,33,34
 653 597 653 597 665 529 c 1,35,-1
 637 517 l 1,36,37
 594 648 594 648 414 648 c 0,38,39
 304 648 304 648 228.5 572 c 128,-1,40
 153 496 153 496 153 351 c 0,41,42
 153 229 153 229 210 139 c 0,43,44
 239 93 239 93 290 65 c 128,-1,45
 341 37 341 37 407 37 c 0,0,1
EndSplineSet
Position2: "'cpsp' Capital Spacing in Latin lookup 2 subtable" dx=7 dy=0 dh=35 dv=0
EndChar

StartChar: H
Encoding: 72 72 43
Width: 803
GlyphClass: 2
Flags: W
LayerCount: 2
Fore
SplineSet
500 688 m 1,0,1
 563 685 563 685 632 685 c 128,-1,2
 701 685 701 685 764 688 c 1,3,-1
 767 659 l 1,4,5
 719 649 719 649 703 641.5 c 128,-1,6
 687 634 687 634 685 616 c 0,7,8
 677 557 677 557 677 402 c 0,9,10
 677 151 677 151 683 90 c 2,11,-1
 685 69 l 2,12,13
 687 51 687 51 704 43.5 c 128,-1,14
 721 36 721 36 770 26 c 1,15,-1
 767 -3 l 1,16,17
 704 0 704 0 630 0 c 128,-1,18
 556 0 556 0 493 -3 c 1,19,-1
 490 26 l 1,20,21
 541 36 541 36 559 44 c 128,-1,22
 577 52 577 52 579 69 c 0,23,24
 587 122 587 122 587 328 c 1,25,26
 548 333 548 333 442 333 c 0,27,28
 286 333 286 333 230 329 c 2,29,-1
 216 328 l 1,30,31
 216 143 216 143 222 88 c 2,32,-1
 224 69 l 2,33,34
 226 51 226 51 243 43.5 c 128,-1,35
 260 36 260 36 309 26 c 1,36,-1
 306 -3 l 1,37,38
 243 0 243 0 169 0 c 128,-1,39
 95 0 95 0 32 -3 c 1,40,-1
 29 26 l 1,41,42
 80 36 80 36 98 44 c 128,-1,43
 116 52 116 52 118 69 c 0,44,45
 126 128 126 128 126 283 c 0,46,47
 126 534 126 534 120 596 c 2,48,-1
 118 616 l 2,49,50
 116 634 116 634 100 641.5 c 128,-1,51
 84 649 84 649 36 659 c 1,52,-1
 39 688 l 1,53,54
 102 685 102 685 171 685 c 128,-1,55
 240 685 240 685 303 688 c 1,56,-1
 306 659 l 1,57,58
 258 649 258 649 242 641.5 c 128,-1,59
 226 634 226 634 224 616 c 0,60,61
 217 568 217 568 216 384 c 1,62,63
 255 379 255 379 360 379 c 0,64,65
 517 379 517 379 573 383 c 2,66,-1
 587 384 l 1,67,68
 587 548 587 548 581 599 c 2,69,-1
 579 616 l 2,70,71
 577 634 577 634 561 641.5 c 128,-1,72
 545 649 545 649 497 659 c 1,73,-1
 500 688 l 1,0,1
EndSplineSet
Position2: "'cpsp' Capital Spacing in Latin lookup 2 subtable" dx=7 dy=0 dh=35 dv=0
EndChar

StartChar: I
Encoding: 73 73 44
Width: 342
GlyphClass: 2
Flags: W
LayerCount: 2
Fore
SplineSet
224 616 m 0,0,1
 216 557 216 557 216 402 c 0,2,3
 216 151 216 151 222 90 c 2,4,-1
 224 69 l 2,5,6
 226 51 226 51 243 43.5 c 128,-1,7
 260 36 260 36 309 26 c 1,8,-1
 306 -3 l 1,9,10
 243 0 243 0 169 0 c 128,-1,11
 95 0 95 0 32 -3 c 1,12,-1
 29 26 l 1,13,14
 80 36 80 36 98 44 c 128,-1,15
 116 52 116 52 118 69 c 0,16,17
 126 128 126 128 126 283 c 0,18,19
 126 534 126 534 120 596 c 2,20,-1
 118 616 l 2,21,22
 116 634 116 634 100 641.5 c 128,-1,23
 84 649 84 649 36 659 c 1,24,-1
 39 688 l 1,25,26
 102 685 102 685 171 685 c 128,-1,27
 240 685 240 685 303 688 c 1,28,-1
 306 659 l 1,29,30
 258 649 258 649 242 641.5 c 128,-1,31
 226 634 226 634 224 616 c 0,0,1
EndSplineSet
Position2: "'cpsp' Capital Spacing in Latin lookup 2 subtable" dx=7 dy=0 dh=35 dv=0
EndChar

StartChar: J
Encoding: 74 74 45
Width: 352
GlyphClass: 2
Flags: W
LayerCount: 2
Fore
SplineSet
29 -178 m 0,0,1
 20 -178 20 -178 -3.5 -153.5 c 128,-1,2
 -27 -129 -27 -129 -33 -105 c 1,3,-1
 -17 -85 l 1,4,5
 12 -105 12 -105 45 -105 c 128,-1,6
 78 -105 78 -105 93 -92.5 c 128,-1,7
 108 -80 108 -80 122 -40 c 0,8,9
 147 36 147 36 147 299 c 0,10,11
 147 490 147 490 141 584 c 2,12,-1
 139 616 l 2,13,14
 137 634 137 634 121 641.5 c 128,-1,15
 105 649 105 649 57 659 c 1,16,-1
 60 688 l 1,17,18
 123 685 123 685 192 685 c 128,-1,19
 261 685 261 685 324 688 c 1,20,-1
 327 659 l 1,21,22
 278 649 278 649 261 641.5 c 128,-1,23
 244 634 244 634 242 616 c 1,24,25
 237 430 237 430 237 215 c 0,26,27
 237 123 237 123 215 45 c 128,-1,28
 193 -33 193 -33 160 -79.5 c 128,-1,29
 127 -126 127 -126 92 -152 c 128,-1,30
 57 -178 57 -178 29 -178 c 0,0,1
EndSplineSet
Position2: "'cpsp' Capital Spacing in Latin lookup 2 subtable" dx=7 dy=0 dh=35 dv=0
EndChar

StartChar: K
Encoding: 75 75 46
Width: 696
GlyphClass: 2
Flags: W
LayerCount: 2
Fore
SplineSet
306 -3 m 1,0,1
 243 0 243 0 169 0 c 128,-1,2
 95 0 95 0 32 -3 c 1,3,-1
 29 26 l 1,4,5
 80 36 80 36 98 44 c 128,-1,6
 116 52 116 52 118 69 c 0,7,8
 126 128 126 128 126 283 c 0,9,10
 126 534 126 534 120 596 c 2,11,-1
 118 616 l 2,12,13
 116 634 116 634 100 641.5 c 128,-1,14
 84 649 84 649 36 659 c 1,15,-1
 39 688 l 1,16,17
 102 685 102 685 171 685 c 128,-1,18
 240 685 240 685 303 688 c 1,19,-1
 306 659 l 1,20,21
 258 649 258 649 242 641.5 c 128,-1,22
 226 634 226 634 224 616 c 0,23,24
 216 560 216 560 216 365 c 1,25,-1
 480 618 l 2,26,27
 484 621 484 621 484 625 c 0,28,29
 484 644 484 644 410 659 c 1,30,-1
 413 688 l 1,31,32
 476 685 476 685 536.5 685 c 128,-1,33
 597 685 597 685 660 688 c 1,34,-1
 663 659 l 1,35,36
 583 643 583 643 549 611 c 2,37,-1
 334 407 l 1,38,-1
 612 43 l 1,39,40
 635 31 635 31 695 26 c 1,41,-1
 692 -3 l 1,42,-1
 525 -9 l 1,43,-1
 269 346 l 1,44,-1
 216 296 l 1,45,46
 216 139 216 139 222 86 c 2,47,-1
 224 69 l 2,48,49
 226 51 226 51 243 43.5 c 128,-1,50
 260 36 260 36 309 26 c 1,51,-1
 306 -3 l 1,0,1
EndSplineSet
Position2: "'cpsp' Capital Spacing in Latin lookup 2 subtable" dx=7 dy=0 dh=35 dv=0
EndChar

StartChar: L
Encoding: 76 76 47
Width: 580
GlyphClass: 2
Flags: W
LayerCount: 2
Fore
SplineSet
255.5 45 m 128,-1,1
 286 36 286 36 326.5 36 c 128,-1,2
 367 36 367 36 394.5 39.5 c 128,-1,3
 422 43 422 43 453 56 c 0,4,5
 511 79 511 79 541 171 c 1,6,-1
 568 159 l 1,7,8
 550 104 550 104 544 0 c 1,9,-1
 151 0 l 2,10,11
 94 0 94 0 31 -3 c 1,12,-1
 28 26 l 1,13,14
 79 36 79 36 97 44 c 128,-1,15
 115 52 115 52 117 69 c 0,16,17
 126 127 126 127 126 282 c 0,18,19
 126 534 126 534 120 596 c 2,20,-1
 118 616 l 2,21,22
 116 634 116 634 100 641.5 c 128,-1,23
 84 649 84 649 36 659 c 1,24,-1
 39 688 l 1,25,26
 102 685 102 685 171 685 c 128,-1,27
 240 685 240 685 303 688 c 1,28,-1
 306 659 l 1,29,30
 258 649 258 649 242 641.5 c 128,-1,31
 226 634 226 634 224 616 c 0,32,33
 216 557 216 557 216 402 c 0,34,35
 216 151 216 151 222 90 c 2,36,-1
 224 69 l 2,37,0
 225 54 225 54 255.5 45 c 128,-1,1
EndSplineSet
Position2: "'cpsp' Capital Spacing in Latin lookup 2 subtable" dx=7 dy=0 dh=35 dv=0
EndChar

StartChar: M
Encoding: 77 77 48
Width: 922
GlyphClass: 2
Flags: W
LayerCount: 2
Fore
SplineSet
195 526 m 1,0,1
 185 276 185 276 185 174 c 1,2,-1
 188 69 l 1,3,4
 191 45 191 45 241 34 c 0,5,6
 253 32 253 32 282 26 c 1,7,-1
 279 -3 l 1,8,9
 216 0 216 0 142 0 c 128,-1,10
 68 0 68 0 26 -3 c 1,11,-1
 23 26 l 1,12,13
 71 36 71 36 89 44 c 128,-1,14
 107 52 107 52 109 69 c 0,15,16
 129 231 129 231 129 483 c 1,17,-1
 125 616 l 1,18,19
 123 634 123 634 107 641.5 c 128,-1,20
 91 649 91 649 43 659 c 1,21,-1
 46 688 l 1,22,23
 109 685 109 685 220 685 c 1,24,-1
 458 95 l 1,25,-1
 696 685 l 1,26,27
 810 685 810 685 873 688 c 1,28,-1
 876 659 l 1,29,30
 828 649 828 649 812 641.5 c 128,-1,31
 796 634 796 634 793 615 c 128,-1,32
 790 596 790 596 790 549 c 128,-1,33
 790 502 790 502 795 342 c 1,34,35
 805 144 805 144 811 88 c 2,36,-1
 813 69 l 2,37,38
 815 51 815 51 832 43.5 c 128,-1,39
 849 36 849 36 898 26 c 1,40,-1
 895 -3 l 1,41,42
 832 0 832 0 758 0 c 128,-1,43
 684 0 684 0 621 -3 c 1,44,-1
 618 26 l 1,45,46
 670 36 670 36 688.5 44 c 128,-1,47
 707 52 707 52 707 69 c 0,48,49
 708 102 708 102 708 211 c 128,-1,50
 708 320 708 320 695 526 c 1,51,-1
 689 526 l 1,52,-1
 475 1 l 1,53,-1
 413 -10 l 1,54,-1
 199 526 l 1,55,-1
 195 526 l 1,0,1
EndSplineSet
Position2: "'cpsp' Capital Spacing in Latin lookup 2 subtable" dx=7 dy=0 dh=35 dv=0
EndChar

StartChar: N
Encoding: 78 78 49
Width: 785
GlyphClass: 2
Flags: W
LayerCount: 2
Fore
SplineSet
608 132 m 1,0,1
 610 188 610 188 610 313 c 0,2,3
 610 542 610 542 604 596 c 1,4,-1
 601 616 l 2,5,6
 598 640 598 640 548 650 c 0,7,8
 536 653 536 653 507 659 c 1,9,-1
 510 688 l 1,10,11
 573 685 573 685 634.5 685 c 128,-1,12
 696 685 696 685 759 688 c 1,13,-1
 762 659 l 1,14,15
 714 649 714 649 698 641.5 c 128,-1,16
 682 634 682 634 680 616 c 1,17,18
 670 557 670 557 670 402 c 0,19,20
 670 165 670 165 678 38 c 1,21,-1
 681 0 l 1,22,-1
 601 -9 l 1,23,-1
 195 537 l 1,24,-1
 190 537 l 1,25,26
 186 449 186 449 186 348 c 0,27,28
 186 159 186 159 194 90 c 1,29,-1
 197 69 l 2,30,31
 200 45 200 45 250 34 c 0,32,33
 262 32 262 32 291 26 c 1,34,-1
 288 -3 l 1,35,36
 225 0 225 0 156 0 c 128,-1,37
 87 0 87 0 24 -3 c 1,38,-1
 21 26 l 1,39,40
 74 36 74 36 95 44 c 128,-1,41
 116 52 116 52 118 69 c 0,42,43
 126 127 126 127 126 282 c 0,44,45
 126 534 126 534 120 596 c 2,46,-1
 118 616 l 2,47,48
 116 634 116 634 100 641.5 c 128,-1,49
 84 649 84 649 36 659 c 1,50,-1
 39 688 l 1,51,52
 102 685 102 685 188 685 c 1,53,-1
 603 132 l 1,54,-1
 608 132 l 1,0,1
EndSplineSet
Position2: "'cpsp' Capital Spacing in Latin lookup 2 subtable" dx=7 dy=0 dh=35 dv=0
EndChar

StartChar: O
Encoding: 79 79 50
Width: 786
GlyphClass: 2
Flags: W
LayerCount: 2
Fore
SplineSet
398 650 m 0,0,1
 340 650 340 650 295 627 c 128,-1,2
 250 604 250 604 224 570 c 128,-1,3
 198 536 198 536 182 493 c 0,4,5
 154 421 154 421 154 353 c 128,-1,6
 154 285 154 285 166 230.5 c 128,-1,7
 178 176 178 176 204 130 c 128,-1,8
 230 84 230 84 277 58 c 128,-1,9
 324 32 324 32 382.5 32 c 128,-1,10
 441 32 441 32 484 52 c 128,-1,11
 527 72 527 72 553.5 102.5 c 128,-1,12
 580 133 580 133 598 172 c 0,13,14
 630 241 630 241 632 312 c 1,15,16
 632 650 632 650 398 650 c 0,0,1
653 104 m 0,17,18
 611 49 611 49 539 16.5 c 128,-1,19
 467 -16 467 -16 372 -16 c 0,20,21
 208 -16 208 -16 128.5 72.5 c 128,-1,22
 49 161 49 161 49 314 c 0,23,24
 49 468 49 468 133 578 c 0,25,26
 175 633 175 633 247 665.5 c 128,-1,27
 319 698 319 698 414 698 c 0,28,29
 578 698 578 698 657.5 610 c 128,-1,30
 737 522 737 522 737 369 c 128,-1,31
 737 216 737 216 653 104 c 0,17,18
EndSplineSet
Position2: "'cpsp' Capital Spacing in Latin lookup 2 subtable" dx=7 dy=0 dh=35 dv=0
EndChar

StartChar: P
Encoding: 80 80 51
Width: 576
GlyphClass: 2
Flags: W
LayerCount: 2
Fore
SplineSet
173 685 m 2,0,-1
 325 685 l 2,1,2
 435 685 435 685 493 632 c 128,-1,3
 551 579 551 579 551 497.5 c 128,-1,4
 551 416 551 416 479 348 c 128,-1,5
 407 280 407 280 287 280 c 0,6,7
 254 280 254 280 216 286 c 1,8,-1
 224 69 l 1,9,10
 226 51 226 51 243 43.5 c 128,-1,11
 260 36 260 36 309 26 c 1,12,-1
 306 -3 l 1,13,14
 243 0 243 0 169 0 c 128,-1,15
 95 0 95 0 32 -3 c 1,16,-1
 29 26 l 1,17,18
 80 36 80 36 98 44 c 128,-1,19
 116 52 116 52 118 69 c 0,20,21
 126 128 126 128 126 283 c 0,22,23
 126 534 126 534 120 596 c 2,24,-1
 118 616 l 2,25,26
 116 634 116 634 100 641.5 c 128,-1,27
 84 649 84 649 36 659 c 1,28,-1
 39 688 l 1,29,30
 102 685 102 685 173 685 c 2,0,-1
271 322 m 0,31,32
 357 322 357 322 406 363 c 128,-1,33
 455 404 455 404 455 487.5 c 128,-1,34
 455 571 455 571 413 607 c 128,-1,35
 371 643 371 643 287 643 c 0,36,37
 250 643 250 643 240 638 c 128,-1,38
 230 633 230 633 226 609 c 0,39,40
 216 557 216 557 216 325 c 1,41,42
 245 322 245 322 271 322 c 0,31,32
EndSplineSet
Position2: "'cpsp' Capital Spacing in Latin lookup 2 subtable" dx=7 dy=0 dh=35 dv=0
PairPos2: "'kern' Horizontal Kerning in Latin lookup 0 per glyph data 1" oe dx=0 dy=0 dh=-60 dv=0 dx=0 dy=0 dh=0 dv=0
PairPos2: "'kern' Horizontal Kerning in Latin lookup 0 per glyph data 1" oslash dx=0 dy=0 dh=-60 dv=0 dx=0 dy=0 dh=0 dv=0
PairPos2: "'kern' Horizontal Kerning in Latin lookup 0 per glyph data 1" odieresis dx=0 dy=0 dh=-60 dv=0 dx=0 dy=0 dh=0 dv=0
PairPos2: "'kern' Horizontal Kerning in Latin lookup 0 per glyph data 1" otilde dx=0 dy=0 dh=-60 dv=0 dx=0 dy=0 dh=0 dv=0
PairPos2: "'kern' Horizontal Kerning in Latin lookup 0 per glyph data 1" ocircumflex dx=0 dy=0 dh=-60 dv=0 dx=0 dy=0 dh=0 dv=0
PairPos2: "'kern' Horizontal Kerning in Latin lookup 0 per glyph data 1" oacute dx=0 dy=0 dh=-60 dv=0 dx=0 dy=0 dh=0 dv=0
PairPos2: "'kern' Horizontal Kerning in Latin lookup 0 per glyph data 1" ograve dx=0 dy=0 dh=-60 dv=0 dx=0 dy=0 dh=0 dv=0
PairPos2: "'kern' Horizontal Kerning in Latin lookup 0 per glyph data 1" edieresis dx=0 dy=0 dh=-60 dv=0 dx=0 dy=0 dh=0 dv=0
PairPos2: "'kern' Horizontal Kerning in Latin lookup 0 per glyph data 1" ecircumflex dx=0 dy=0 dh=-60 dv=0 dx=0 dy=0 dh=0 dv=0
PairPos2: "'kern' Horizontal Kerning in Latin lookup 0 per glyph data 1" eacute dx=0 dy=0 dh=-60 dv=0 dx=0 dy=0 dh=0 dv=0
PairPos2: "'kern' Horizontal Kerning in Latin lookup 0 per glyph data 1" egrave dx=0 dy=0 dh=-60 dv=0 dx=0 dy=0 dh=0 dv=0
PairPos2: "'kern' Horizontal Kerning in Latin lookup 0 per glyph data 1" ccedilla dx=0 dy=0 dh=-60 dv=0 dx=0 dy=0 dh=0 dv=0
PairPos2: "'kern' Horizontal Kerning in Latin lookup 0 per glyph data 1" aring dx=0 dy=0 dh=-70 dv=0 dx=0 dy=0 dh=0 dv=0
PairPos2: "'kern' Horizontal Kerning in Latin lookup 0 per glyph data 1" adieresis dx=0 dy=0 dh=-70 dv=0 dx=0 dy=0 dh=0 dv=0
PairPos2: "'kern' Horizontal Kerning in Latin lookup 0 per glyph data 1" atilde dx=0 dy=0 dh=-70 dv=0 dx=0 dy=0 dh=0 dv=0
PairPos2: "'kern' Horizontal Kerning in Latin lookup 0 per glyph data 1" acircumflex dx=0 dy=0 dh=-70 dv=0 dx=0 dy=0 dh=0 dv=0
PairPos2: "'kern' Horizontal Kerning in Latin lookup 0 per glyph data 1" aacute dx=0 dy=0 dh=-70 dv=0 dx=0 dy=0 dh=0 dv=0
PairPos2: "'kern' Horizontal Kerning in Latin lookup 0 per glyph data 1" agrave dx=0 dy=0 dh=-70 dv=0 dx=0 dy=0 dh=0 dv=0
PairPos2: "'kern' Horizontal Kerning in Latin lookup 0 per glyph data 1" Aring dx=0 dy=0 dh=-95 dv=0 dx=0 dy=0 dh=0 dv=0
PairPos2: "'kern' Horizontal Kerning in Latin lookup 0 per glyph data 1" Adieresis dx=0 dy=0 dh=-95 dv=0 dx=0 dy=0 dh=0 dv=0
PairPos2: "'kern' Horizontal Kerning in Latin lookup 0 per glyph data 1" Atilde dx=0 dy=0 dh=-95 dv=0 dx=0 dy=0 dh=0 dv=0
PairPos2: "'kern' Horizontal Kerning in Latin lookup 0 per glyph data 1" Acircumflex dx=0 dy=0 dh=-95 dv=0 dx=0 dy=0 dh=0 dv=0
PairPos2: "'kern' Horizontal Kerning in Latin lookup 0 per glyph data 1" Aacute dx=0 dy=0 dh=-95 dv=0 dx=0 dy=0 dh=0 dv=0
PairPos2: "'kern' Horizontal Kerning in Latin lookup 0 per glyph data 1" Agrave dx=0 dy=0 dh=-95 dv=0 dx=0 dy=0 dh=0 dv=0
PairPos2: "'kern' Horizontal Kerning in Latin lookup 0 per glyph data 1" q dx=0 dy=0 dh=-60 dv=0 dx=0 dy=0 dh=0 dv=0
PairPos2: "'kern' Horizontal Kerning in Latin lookup 0 per glyph data 1" o dx=0 dy=0 dh=-60 dv=0 dx=0 dy=0 dh=0 dv=0
PairPos2: "'kern' Horizontal Kerning in Latin lookup 0 per glyph data 1" g dx=0 dy=0 dh=-60 dv=0 dx=0 dy=0 dh=0 dv=0
PairPos2: "'kern' Horizontal Kerning in Latin lookup 0 per glyph data 1" e dx=0 dy=0 dh=-60 dv=0 dx=0 dy=0 dh=0 dv=0
PairPos2: "'kern' Horizontal Kerning in Latin lookup 0 per glyph data 1" c dx=0 dy=0 dh=-60 dv=0 dx=0 dy=0 dh=0 dv=0
PairPos2: "'kern' Horizontal Kerning in Latin lookup 0 per glyph data 1" a dx=0 dy=0 dh=-70 dv=0 dx=0 dy=0 dh=0 dv=0
PairPos2: "'kern' Horizontal Kerning in Latin lookup 0 per glyph data 1" A dx=0 dy=0 dh=-95 dv=0 dx=0 dy=0 dh=0 dv=0
PairPos2: "'kern' Horizontal Kerning in Latin lookup 0 per glyph data 1" period dx=0 dy=0 dh=-133 dv=0 dx=0 dy=0 dh=0 dv=0
EndChar

StartChar: Q
Encoding: 81 81 52
Width: 792
GlyphClass: 2
Flags: W
LayerCount: 2
Fore
SplineSet
383 -15 m 1,0,-1
 372 -16 l 1,1,2
 208 -16 208 -16 128.5 72.5 c 128,-1,3
 49 161 49 161 49 314 c 0,4,5
 49 468 49 468 133 578 c 0,6,7
 175 633 175 633 247 665.5 c 128,-1,8
 319 698 319 698 414 698 c 0,9,10
 578 698 578 698 657.5 610 c 128,-1,11
 737 522 737 522 737 369 c 0,12,13
 737 238 737 238 675 135.5 c 128,-1,14
 613 33 613 33 488 -1 c 1,15,-1
 800 -156 l 1,16,-1
 800 -178 l 1,17,-1
 717 -217 l 1,18,19
 512 -77 512 -77 383 -15 c 1,0,-1
398 650 m 0,20,21
 340 650 340 650 295 627 c 128,-1,22
 250 604 250 604 224 570 c 128,-1,23
 198 536 198 536 182 493 c 0,24,25
 154 421 154 421 154 353 c 128,-1,26
 154 285 154 285 166 230.5 c 128,-1,27
 178 176 178 176 204 130 c 128,-1,28
 230 84 230 84 277 58 c 128,-1,29
 324 32 324 32 382.5 32 c 128,-1,30
 441 32 441 32 484 52 c 128,-1,31
 527 72 527 72 553.5 102.5 c 128,-1,32
 580 133 580 133 598 172 c 0,33,34
 630 241 630 241 632 312 c 1,35,36
 632 650 632 650 398 650 c 0,20,21
EndSplineSet
Position2: "'cpsp' Capital Spacing in Latin lookup 2 subtable" dx=7 dy=0 dh=35 dv=0
EndChar

StartChar: R
Encoding: 82 82 53
Width: 668
GlyphClass: 2
Flags: W
LayerCount: 2
Fore
SplineSet
311 -3 m 1,0,1
 246 0 246 0 170.5 0 c 128,-1,2
 95 0 95 0 32 -3 c 1,3,-1
 29 26 l 1,4,5
 80 36 80 36 98 44 c 128,-1,6
 116 52 116 52 118 69 c 0,7,8
 126 128 126 128 126 283 c 0,9,10
 126 534 126 534 120 596 c 2,11,-1
 118 616 l 2,12,13
 116 634 116 634 100 641.5 c 128,-1,14
 84 649 84 649 36 659 c 1,15,-1
 39 688 l 1,16,17
 102 685 102 685 173 685 c 2,18,-1
 346 685 l 2,19,20
 443 685 443 685 493.5 639 c 128,-1,21
 544 593 544 593 544 525 c 0,22,23
 544 403 544 403 409 336 c 1,24,-1
 585 43 l 1,25,26
 608 31 608 31 668 26 c 1,27,-1
 665 -3 l 1,28,-1
 496 -9 l 1,29,-1
 319 322 l 1,30,31
 285 320 285 320 216 320 c 1,32,33
 216 135 216 135 224 84 c 1,34,-1
 227 69 l 1,35,36
 229 51 229 51 246.5 43.5 c 128,-1,37
 264 36 264 36 314 26 c 1,38,-1
 311 -3 l 1,0,1
453 525 m 0,39,40
 453 643 453 643 287 643 c 0,41,42
 251 643 251 643 240.5 639 c 128,-1,43
 230 635 230 635 226 621 c 1,44,45
 216 561 216 561 216 359 c 1,46,47
 326 359 326 359 373 369 c 1,48,49
 453 418 453 418 453 525 c 0,39,40
EndSplineSet
Position2: "'cpsp' Capital Spacing in Latin lookup 2 subtable" dx=7 dy=0 dh=35 dv=0
PairPos2: "'kern' Horizontal Kerning in Latin lookup 0 per glyph data 1" Ydieresis dx=0 dy=0 dh=-65 dv=0 dx=0 dy=0 dh=0 dv=0
PairPos2: "'kern' Horizontal Kerning in Latin lookup 0 per glyph data 1" oe dx=0 dy=0 dh=-50 dv=0 dx=0 dy=0 dh=0 dv=0
PairPos2: "'kern' Horizontal Kerning in Latin lookup 0 per glyph data 1" OE dx=0 dy=0 dh=-75 dv=0 dx=0 dy=0 dh=0 dv=0
PairPos2: "'kern' Horizontal Kerning in Latin lookup 0 per glyph data 1" ydieresis dx=0 dy=0 dh=-80 dv=0 dx=0 dy=0 dh=0 dv=0
PairPos2: "'kern' Horizontal Kerning in Latin lookup 0 per glyph data 1" yacute dx=0 dy=0 dh=-80 dv=0 dx=0 dy=0 dh=0 dv=0
PairPos2: "'kern' Horizontal Kerning in Latin lookup 0 per glyph data 1" oslash dx=0 dy=0 dh=-50 dv=0 dx=0 dy=0 dh=0 dv=0
PairPos2: "'kern' Horizontal Kerning in Latin lookup 0 per glyph data 1" odieresis dx=0 dy=0 dh=-50 dv=0 dx=0 dy=0 dh=0 dv=0
PairPos2: "'kern' Horizontal Kerning in Latin lookup 0 per glyph data 1" otilde dx=0 dy=0 dh=-50 dv=0 dx=0 dy=0 dh=0 dv=0
PairPos2: "'kern' Horizontal Kerning in Latin lookup 0 per glyph data 1" ocircumflex dx=0 dy=0 dh=-50 dv=0 dx=0 dy=0 dh=0 dv=0
PairPos2: "'kern' Horizontal Kerning in Latin lookup 0 per glyph data 1" oacute dx=0 dy=0 dh=-50 dv=0 dx=0 dy=0 dh=0 dv=0
PairPos2: "'kern' Horizontal Kerning in Latin lookup 0 per glyph data 1" ograve dx=0 dy=0 dh=-50 dv=0 dx=0 dy=0 dh=0 dv=0
PairPos2: "'kern' Horizontal Kerning in Latin lookup 0 per glyph data 1" edieresis dx=0 dy=0 dh=-50 dv=0 dx=0 dy=0 dh=0 dv=0
PairPos2: "'kern' Horizontal Kerning in Latin lookup 0 per glyph data 1" ecircumflex dx=0 dy=0 dh=-50 dv=0 dx=0 dy=0 dh=0 dv=0
PairPos2: "'kern' Horizontal Kerning in Latin lookup 0 per glyph data 1" eacute dx=0 dy=0 dh=-50 dv=0 dx=0 dy=0 dh=0 dv=0
PairPos2: "'kern' Horizontal Kerning in Latin lookup 0 per glyph data 1" egrave dx=0 dy=0 dh=-50 dv=0 dx=0 dy=0 dh=0 dv=0
PairPos2: "'kern' Horizontal Kerning in Latin lookup 0 per glyph data 1" ccedilla dx=0 dy=0 dh=-50 dv=0 dx=0 dy=0 dh=0 dv=0
PairPos2: "'kern' Horizontal Kerning in Latin lookup 0 per glyph data 1" aring dx=0 dy=0 dh=-30 dv=0 dx=0 dy=0 dh=0 dv=0
PairPos2: "'kern' Horizontal Kerning in Latin lookup 0 per glyph data 1" adieresis dx=0 dy=0 dh=-30 dv=0 dx=0 dy=0 dh=0 dv=0
PairPos2: "'kern' Horizontal Kerning in Latin lookup 0 per glyph data 1" atilde dx=0 dy=0 dh=-30 dv=0 dx=0 dy=0 dh=0 dv=0
PairPos2: "'kern' Horizontal Kerning in Latin lookup 0 per glyph data 1" acircumflex dx=0 dy=0 dh=-30 dv=0 dx=0 dy=0 dh=0 dv=0
PairPos2: "'kern' Horizontal Kerning in Latin lookup 0 per glyph data 1" aacute dx=0 dy=0 dh=-30 dv=0 dx=0 dy=0 dh=0 dv=0
PairPos2: "'kern' Horizontal Kerning in Latin lookup 0 per glyph data 1" agrave dx=0 dy=0 dh=-30 dv=0 dx=0 dy=0 dh=0 dv=0
PairPos2: "'kern' Horizontal Kerning in Latin lookup 0 per glyph data 1" Yacute dx=0 dy=0 dh=-65 dv=0 dx=0 dy=0 dh=0 dv=0
PairPos2: "'kern' Horizontal Kerning in Latin lookup 0 per glyph data 1" Udieresis dx=0 dy=0 dh=-65 dv=0 dx=0 dy=0 dh=0 dv=0
PairPos2: "'kern' Horizontal Kerning in Latin lookup 0 per glyph data 1" Ucircumflex dx=0 dy=0 dh=-65 dv=0 dx=0 dy=0 dh=0 dv=0
PairPos2: "'kern' Horizontal Kerning in Latin lookup 0 per glyph data 1" Uacute dx=0 dy=0 dh=-65 dv=0 dx=0 dy=0 dh=0 dv=0
PairPos2: "'kern' Horizontal Kerning in Latin lookup 0 per glyph data 1" Ugrave dx=0 dy=0 dh=-65 dv=0 dx=0 dy=0 dh=0 dv=0
PairPos2: "'kern' Horizontal Kerning in Latin lookup 0 per glyph data 1" Oslash dx=0 dy=0 dh=-75 dv=0 dx=0 dy=0 dh=0 dv=0
PairPos2: "'kern' Horizontal Kerning in Latin lookup 0 per glyph data 1" Odieresis dx=0 dy=0 dh=-75 dv=0 dx=0 dy=0 dh=0 dv=0
PairPos2: "'kern' Horizontal Kerning in Latin lookup 0 per glyph data 1" Otilde dx=0 dy=0 dh=-75 dv=0 dx=0 dy=0 dh=0 dv=0
PairPos2: "'kern' Horizontal Kerning in Latin lookup 0 per glyph data 1" Ocircumflex dx=0 dy=0 dh=-75 dv=0 dx=0 dy=0 dh=0 dv=0
PairPos2: "'kern' Horizontal Kerning in Latin lookup 0 per glyph data 1" Oacute dx=0 dy=0 dh=-75 dv=0 dx=0 dy=0 dh=0 dv=0
PairPos2: "'kern' Horizontal Kerning in Latin lookup 0 per glyph data 1" Ograve dx=0 dy=0 dh=-75 dv=0 dx=0 dy=0 dh=0 dv=0
PairPos2: "'kern' Horizontal Kerning in Latin lookup 0 per glyph data 1" Ccedilla dx=0 dy=0 dh=-75 dv=0 dx=0 dy=0 dh=0 dv=0
PairPos2: "'kern' Horizontal Kerning in Latin lookup 0 per glyph data 1" y dx=0 dy=0 dh=-80 dv=0 dx=0 dy=0 dh=0 dv=0
PairPos2: "'kern' Horizontal Kerning in Latin lookup 0 per glyph data 1" w dx=0 dy=0 dh=-80 dv=0 dx=0 dy=0 dh=0 dv=0
PairPos2: "'kern' Horizontal Kerning in Latin lookup 0 per glyph data 1" v dx=0 dy=0 dh=-80 dv=0 dx=0 dy=0 dh=0 dv=0
PairPos2: "'kern' Horizontal Kerning in Latin lookup 0 per glyph data 1" u dx=0 dy=0 dh=-30 dv=0 dx=0 dy=0 dh=0 dv=0
PairPos2: "'kern' Horizontal Kerning in Latin lookup 0 per glyph data 1" q dx=0 dy=0 dh=-50 dv=0 dx=0 dy=0 dh=0 dv=0
PairPos2: "'kern' Horizontal Kerning in Latin lookup 0 per glyph data 1" o dx=0 dy=0 dh=-50 dv=0 dx=0 dy=0 dh=0 dv=0
PairPos2: "'kern' Horizontal Kerning in Latin lookup 0 per glyph data 1" g dx=0 dy=0 dh=-50 dv=0 dx=0 dy=0 dh=0 dv=0
PairPos2: "'kern' Horizontal Kerning in Latin lookup 0 per glyph data 1" e dx=0 dy=0 dh=-50 dv=0 dx=0 dy=0 dh=0 dv=0
PairPos2: "'kern' Horizontal Kerning in Latin lookup 0 per glyph data 1" c dx=0 dy=0 dh=-50 dv=0 dx=0 dy=0 dh=0 dv=0
PairPos2: "'kern' Horizontal Kerning in Latin lookup 0 per glyph data 1" a dx=0 dy=0 dh=-30 dv=0 dx=0 dy=0 dh=0 dv=0
PairPos2: "'kern' Horizontal Kerning in Latin lookup 0 per glyph data 1" Y dx=0 dy=0 dh=-65 dv=0 dx=0 dy=0 dh=0 dv=0
PairPos2: "'kern' Horizontal Kerning in Latin lookup 0 per glyph data 1" W dx=0 dy=0 dh=-65 dv=0 dx=0 dy=0 dh=0 dv=0
PairPos2: "'kern' Horizontal Kerning in Latin lookup 0 per glyph data 1" V dx=0 dy=0 dh=-65 dv=0 dx=0 dy=0 dh=0 dv=0
PairPos2: "'kern' Horizontal Kerning in Latin lookup 0 per glyph data 1" U dx=0 dy=0 dh=-65 dv=0 dx=0 dy=0 dh=0 dv=0
PairPos2: "'kern' Horizontal Kerning in Latin lookup 0 per glyph data 1" Q dx=0 dy=0 dh=-75 dv=0 dx=0 dy=0 dh=0 dv=0
PairPos2: "'kern' Horizontal Kerning in Latin lookup 0 per glyph data 1" O dx=0 dy=0 dh=-75 dv=0 dx=0 dy=0 dh=0 dv=0
PairPos2: "'kern' Horizontal Kerning in Latin lookup 0 per glyph data 1" G dx=0 dy=0 dh=-75 dv=0 dx=0 dy=0 dh=0 dv=0
PairPos2: "'kern' Horizontal Kerning in Latin lookup 0 per glyph data 1" C dx=0 dy=0 dh=-75 dv=0 dx=0 dy=0 dh=0 dv=0
EndChar

StartChar: S
Encoding: 83 83 54
Width: 528
GlyphClass: 2
Flags: W
LayerCount: 2
Fore
SplineSet
360.5 617 m 128,-1,1
 325 644 325 644 268 644 c 128,-1,2
 211 644 211 644 181 616.5 c 128,-1,3
 151 589 151 589 151 549 c 0,4,5
 151 484 151 484 218 440 c 2,6,-1
 376 337 l 2,7,8
 480 269 480 269 480 176 c 0,9,10
 480 101 480 101 420.5 45.5 c 128,-1,11
 361 -10 361 -10 247 -10 c 128,-1,12
 133 -10 133 -10 48 26 c 1,13,14
 64 108 64 108 64 173 c 1,15,-1
 91 185 l 1,16,17
 106 103 106 103 138 72 c 128,-1,18
 170 41 170 41 237.5 41 c 128,-1,19
 305 41 305 41 340.5 74 c 128,-1,20
 376 107 376 107 376 152 c 0,21,22
 376 213 376 213 311 255 c 2,23,-1
 151 360 l 2,24,25
 59 420 59 420 59 514 c 0,26,27
 59 587 59 587 116 640.5 c 128,-1,28
 173 694 173 694 265 694 c 0,29,30
 295 694 295 694 331.5 686.5 c 128,-1,31
 368 679 368 679 387 679 c 128,-1,32
 406 679 406 679 431 685 c 1,33,-1
 431 670 l 2,34,35
 431 597 431 597 443 529 c 1,36,-1
 416 517 l 1,37,0
 396 590 396 590 360.5 617 c 128,-1,1
EndSplineSet
Position2: "'cpsp' Capital Spacing in Latin lookup 2 subtable" dx=7 dy=0 dh=35 dv=0
EndChar

StartChar: T
Encoding: 84 84 55
Width: 642
GlyphClass: 2
Flags: W
LayerCount: 2
Fore
SplineSet
23 691 m 1,0,1
 105 685 105 685 321 685 c 128,-1,2
 537 685 537 685 619 691 c 1,3,-1
 619 676 l 2,4,5
 619 597 619 597 631 529 c 1,6,-1
 604 517 l 1,7,8
 578 599 578 599 542 621 c 128,-1,9
 506 643 506 643 406 643 c 0,10,11
 376 643 376 643 373 616 c 0,12,13
 365 557 365 557 365 402 c 0,14,15
 365 151 365 151 371 90 c 2,16,-1
 373 69 l 2,17,18
 375 51 375 51 392 43.5 c 128,-1,19
 409 36 409 36 458 26 c 1,20,-1
 455 -3 l 1,21,22
 392 0 392 0 318 0 c 128,-1,23
 244 0 244 0 181 -3 c 1,24,-1
 178 26 l 1,25,26
 229 36 229 36 247 44 c 128,-1,27
 265 52 265 52 267 69 c 0,28,29
 275 128 275 128 275 283 c 0,30,31
 275 534 275 534 269 596 c 2,32,-1
 267 616 l 2,33,34
 264 643 264 643 236 643 c 0,35,36
 136 643 136 643 100 621 c 128,-1,37
 64 599 64 599 38 517 c 1,38,-1
 11 529 l 1,39,40
 23 597 23 597 23 676 c 2,41,-1
 23 691 l 1,0,1
EndSplineSet
Position2: "'cpsp' Capital Spacing in Latin lookup 2 subtable" dx=7 dy=0 dh=35 dv=0
EndChar

StartChar: U
Encoding: 85 85 56
Width: 760
GlyphClass: 2
Flags: W
LayerCount: 2
Fore
SplineSet
493 688 m 1,0,1
 556 685 556 685 617.5 685 c 128,-1,2
 679 685 679 685 742 688 c 1,3,-1
 745 659 l 1,4,5
 696 649 696 649 680 641.5 c 128,-1,6
 664 634 664 634 663 616 c 0,7,8
 658 508 658 508 652 247 c 0,9,10
 649 130 649 130 584 59 c 128,-1,11
 519 -12 519 -12 380 -12 c 0,12,13
 313 -12 313 -12 266.5 -1.5 c 128,-1,14
 220 9 220 9 184 36 c 0,15,16
 113 89 113 89 111 236 c 0,17,18
 107 487 107 487 104 616 c 0,19,20
 104 634 104 634 87.5 641.5 c 128,-1,21
 71 649 71 649 22 659 c 1,22,-1
 25 688 l 1,23,24
 88 685 88 685 157 685 c 128,-1,25
 226 685 226 685 289 688 c 1,26,-1
 292 659 l 1,27,28
 244 649 244 649 228 641.5 c 128,-1,29
 212 634 212 634 210 616 c 0,30,31
 201 551 201 551 201 416.5 c 128,-1,32
 201 282 201 282 201.5 260 c 128,-1,33
 202 238 202 238 204 206.5 c 128,-1,34
 206 175 206 175 211 158 c 128,-1,35
 216 141 216 141 224.5 119.5 c 128,-1,36
 233 98 233 98 246 87 c 128,-1,37
 259 76 259 76 278 65 c 0,38,39
 311 45 311 45 378.5 45 c 128,-1,40
 446 45 446 45 489 65.5 c 128,-1,41
 532 86 532 86 554 127.5 c 128,-1,42
 576 169 576 169 584 218 c 128,-1,43
 592 267 592 267 592 351 c 0,44,45
 592 530 592 530 586 594 c 2,46,-1
 584 616 l 2,47,48
 581 640 581 640 531 650 c 0,49,50
 519 653 519 653 490 659 c 1,51,-1
 493 688 l 1,0,1
EndSplineSet
Position2: "'cpsp' Capital Spacing in Latin lookup 2 subtable" dx=7 dy=0 dh=35 dv=0
EndChar

StartChar: V
Encoding: 86 86 57
Width: 689
GlyphClass: 2
Flags: W
LayerCount: 2
Fore
SplineSet
444 688 m 1,0,1
 507 685 507 685 567.5 685 c 128,-1,2
 628 685 628 685 691 688 c 1,3,-1
 694 659 l 1,4,5
 650 650 650 650 631 639.5 c 128,-1,6
 612 629 612 629 604 610 c 0,7,8
 452 203 452 203 395 0 c 1,9,-1
 297 -9 l 1,10,-1
 83 616 l 1,11,12
 75 633 75 633 59 641.5 c 128,-1,13
 43 650 43 650 -2 659 c 1,14,-1
 1 688 l 1,15,16
 64 685 64 685 133.5 685 c 128,-1,17
 203 685 203 685 266 688 c 1,18,-1
 269 659 l 1,19,20
 199 646 199 646 186 634 c 0,21,22
 181 629 181 629 181 622.5 c 128,-1,23
 181 616 181 616 209 530.5 c 128,-1,24
 237 445 237 445 284.5 303 c 128,-1,25
 332 161 332 161 356 87 c 1,26,-1
 361 87 l 1,27,28
 383 156 383 156 431 306 c 0,29,30
 529 611 529 611 528 622.5 c 128,-1,31
 527 634 527 634 507.5 642 c 128,-1,32
 488 650 488 650 441 659 c 1,33,-1
 444 688 l 1,0,1
EndSplineSet
Position2: "'cpsp' Capital Spacing in Latin lookup 2 subtable" dx=7 dy=0 dh=35 dv=0
EndChar

StartChar: W
Encoding: 87 87 58
Width: 990
GlyphClass: 2
Flags: W
LayerCount: 2
Fore
SplineSet
184 622 m 1,0,-1
 306 109 l 1,1,-1
 311 109 l 1,2,3
 379 330 379 330 448 602 c 1,4,-1
 470 685 l 1,5,-1
 535 685 l 1,6,-1
 711 109 l 1,7,-1
 716 109 l 1,8,9
 830 580 830 580 830 621 c 0,10,11
 830 634 830 634 810.5 642 c 128,-1,12
 791 650 791 650 744 659 c 1,13,-1
 747 688 l 1,14,15
 810 685 810 685 870.5 685 c 128,-1,16
 931 685 931 685 994 688 c 1,17,-1
 997 659 l 1,18,19
 951 650 951 650 931 639.5 c 128,-1,20
 911 629 911 629 907 610 c 0,21,22
 806 203 806 203 749 0 c 1,23,-1
 657 -9 l 1,24,-1
 491 531 l 1,25,-1
 487 531 l 1,26,-1
 338 0 l 1,27,-1
 246 -9 l 1,28,-1
 83 616 l 1,29,30
 76 633 76 633 59.5 641.5 c 128,-1,31
 43 650 43 650 -2 659 c 1,32,-1
 1 688 l 1,33,34
 64 685 64 685 135 685 c 128,-1,35
 206 685 206 685 269 688 c 1,36,-1
 272 659 l 1,37,38
 202 646 202 646 190 634 c 0,39,40
 184 629 184 629 184 622 c 1,0,-1
EndSplineSet
Position2: "'cpsp' Capital Spacing in Latin lookup 2 subtable" dx=7 dy=0 dh=35 dv=0
EndChar

StartChar: X
Encoding: 88 88 59
Width: 700
GlyphClass: 2
Flags: W
LayerCount: 2
Fore
SplineSet
173 62 m 0,0,1
 173 44 173 44 260 26 c 1,2,-1
 257 -3 l 1,3,4
 194 0 194 0 133.5 0 c 128,-1,5
 73 0 73 0 10 -3 c 1,6,-1
 7 26 l 1,7,8
 48 34 48 34 65.5 45 c 128,-1,9
 83 56 83 56 97 75 c 1,10,11
 206 208 206 208 307 341 c 1,12,13
 113 612 113 612 106 622.5 c 128,-1,14
 99 633 99 633 83.5 642 c 128,-1,15
 68 651 68 651 26 659 c 1,16,-1
 29 688 l 1,17,18
 92 685 92 685 166 685 c 128,-1,19
 240 685 240 685 303 688 c 1,20,-1
 306 659 l 1,21,22
 217 642 217 642 217 623 c 0,23,24
 217 613 217 613 366 409 c 1,25,-1
 509 616 l 2,26,27
 512 620 512 620 512 623 c 0,28,29
 512 642 512 642 424 659 c 1,30,-1
 427 688 l 1,31,32
 490 685 490 685 550.5 685 c 128,-1,33
 611 685 611 685 674 688 c 1,34,-1
 677 659 l 1,35,36
 636 651 636 651 618.5 640 c 128,-1,37
 601 629 601 629 587 610 c 2,38,-1
 401 360 l 1,39,40
 439 307 439 307 488 240 c 0,41,42
 564 135 564 135 611 69 c 0,43,44
 623 52 623 52 638.5 43 c 128,-1,45
 654 34 654 34 696 26 c 1,46,-1
 693 -3 l 1,47,48
 630 0 630 0 556 0 c 128,-1,49
 482 0 482 0 419 -3 c 1,50,-1
 416 26 l 1,51,52
 464 36 464 36 484.5 43.5 c 128,-1,53
 505 51 505 51 505 63 c 0,54,55
 505 64 505 64 503 70 c 1,56,57
 427 176 427 176 341 295 c 1,58,-1
 175 69 l 2,59,60
 173 67 173 67 173 62 c 0,0,1
EndSplineSet
Position2: "'cpsp' Capital Spacing in Latin lookup 2 subtable" dx=7 dy=0 dh=35 dv=0
EndChar

StartChar: Y
Encoding: 89 89 60
Width: 641
GlyphClass: 2
Flags: W
LayerCount: 2
Fore
SplineSet
482 623 m 0,0,1
 482 641 482 641 395 659 c 1,2,-1
 398 688 l 1,3,4
 461 685 461 685 521.5 685 c 128,-1,5
 582 685 582 685 645 688 c 1,6,-1
 648 659 l 1,7,8
 604 650 604 650 585 639.5 c 128,-1,9
 566 629 566 629 558 610 c 1,10,-1
 365 269 l 1,11,12
 365 133 365 133 371 85 c 2,13,-1
 373 69 l 2,14,15
 375 51 375 51 392 43.5 c 128,-1,16
 409 36 409 36 458 26 c 1,17,-1
 455 -3 l 1,18,19
 392 0 392 0 318 0 c 128,-1,20
 244 0 244 0 181 -3 c 1,21,-1
 178 26 l 1,22,23
 229 36 229 36 247 44 c 128,-1,24
 265 52 265 52 267 69 c 0,25,26
 273 113 273 113 274 262 c 1,27,-1
 81 616 l 2,28,29
 72 633 72 633 55.5 641.5 c 128,-1,30
 39 650 39 650 -4 659 c 1,31,-1
 -1 688 l 1,32,33
 62 685 62 685 136 685 c 128,-1,34
 210 685 210 685 273 688 c 1,35,-1
 276 659 l 1,36,37
 187 642 187 642 187 623 c 0,38,39
 187 621 187 621 189 615 c 2,40,-1
 337 324 l 1,41,-1
 480 616 l 2,42,43
 482 620 482 620 482 623 c 0,0,1
EndSplineSet
Position2: "'cpsp' Capital Spacing in Latin lookup 2 subtable" dx=7 dy=0 dh=35 dv=0
EndChar

StartChar: Z
Encoding: 90 90 61
Width: 640
GlyphClass: 2
Flags: W
LayerCount: 2
Fore
SplineSet
267 53 m 2,0,1
 451 53 451 53 498 70 c 1,2,3
 547 89 547 89 567 124 c 0,4,5
 578 143 578 143 587 171 c 1,6,-1
 614 159 l 1,7,8
 596 104 596 104 590 0 c 1,9,-1
 54 0 l 1,10,-1
 30 35 l 1,11,-1
 478 631 l 1,12,13
 214 631 214 631 161.5 616 c 128,-1,14
 109 601 109 601 83 517 c 1,15,-1
 56 529 l 1,16,17
 68 597 68 597 68 676 c 2,18,-1
 68 691 l 1,19,20
 150 685 150 685 448 685 c 2,21,-1
 580 685 l 1,22,-1
 598 652 l 1,23,-1
 151 53 l 1,24,-1
 267 53 l 2,0,1
EndSplineSet
Position2: "'cpsp' Capital Spacing in Latin lookup 2 subtable" dx=7 dy=0 dh=35 dv=0
EndChar

StartChar: bracketleft
Encoding: 91 91 62
Width: 427
GlyphClass: 2
Flags: W
LayerCount: 2
Fore
SplineSet
106 644 m 2,0,-1
 100 697 l 1,1,-1
 121 707 l 1,2,3
 197 687 197 687 347 687 c 1,4,-1
 344 651 l 1,5,-1
 192 635 l 1,6,7
 205 506 205 506 205 350 c 0,8,9
 205 114 205 114 195 -29 c 2,10,-1
 192 -72 l 1,11,-1
 344 -88 l 1,12,-1
 347 -124 l 1,13,14
 197 -124 197 -124 121 -144 c 1,15,-1
 100 -134 l 1,16,17
 124 76 124 76 124 279.5 c 128,-1,18
 124 483 124 483 106 644 c 2,0,-1
EndSplineSet
Position2: "'case' Case-Sensitive Forms in Latin lookup 1 per glyph data 0" dx=0 dy=70 dh=0 dv=0
EndChar

StartChar: backslash
Encoding: 92 92 63
Width: 290
GlyphClass: 2
Flags: W
LayerCount: 2
Fore
SplineSet
85 701 m 1,0,-1
 270 -140 l 1,1,-1
 205 -140 l 1,2,-1
 20 701 l 1,3,-1
 85 701 l 1,0,-1
EndSplineSet
EndChar

StartChar: bracketright
Encoding: 93 93 64
Width: 427
GlyphClass: 2
Flags: W
LayerCount: 2
Fore
SplineSet
321 -80 m 2,0,-1
 327 -133 l 1,1,-1
 306 -143 l 1,2,3
 230 -123 230 -123 80 -123 c 1,4,-1
 83 -87 l 1,5,-1
 235 -71 l 1,6,7
 222 58 222 58 222 214 c 0,8,9
 222 476 222 476 232 593 c 1,10,-1
 235 636 l 1,11,-1
 83 652 l 1,12,-1
 80 688 l 1,13,14
 230 688 230 688 306 708 c 1,15,-1
 327 698 l 1,16,17
 303 488 303 488 303 284.5 c 128,-1,18
 303 81 303 81 321 -80 c 2,0,-1
EndSplineSet
Position2: "'case' Case-Sensitive Forms in Latin lookup 1 per glyph data 0" dx=0 dy=70 dh=0 dv=0
EndChar

StartChar: asciicircum
Encoding: 94 94 65
Width: 523
GlyphClass: 2
Flags: W
LayerCount: 2
Fore
SplineSet
235 664 m 1,0,-1
 286 664 l 1,1,-1
 486 265 l 1,2,-1
 417 265 l 1,3,-1
 261 601 l 1,4,-1
 105 265 l 1,5,-1
 36 265 l 1,6,-1
 235 664 l 1,0,-1
EndSplineSet
EndChar

StartChar: underscore
Encoding: 95 95 66
Width: 462
GlyphClass: 2
Flags: W
LayerCount: 2
Fore
SplineSet
44 -16 m 1,0,1
 145 -21 145 -21 242 -21 c 128,-1,2
 339 -21 339 -21 455 -16 c 1,3,-1
 462 -31 l 1,4,-1
 418 -79 l 1,5,6
 310 -75 310 -75 216.5 -75 c 128,-1,7
 123 -75 123 -75 7 -80 c 1,8,-1
 0 -64 l 1,9,-1
 44 -16 l 1,0,1
EndSplineSet
EndChar

StartChar: grave
Encoding: 96 96 67
Width: 285
GlyphClass: 2
Flags: W
LayerCount: 2
Fore
SplineSet
152 518 m 1,0,-1
 -21 680 l 1,1,2
 -19 697 -19 697 2 709.5 c 128,-1,3
 23 722 23 722 48 722 c 1,4,-1
 182 523 l 1,5,-1
 152 518 l 1,0,-1
EndSplineSet
EndChar

StartChar: a
Encoding: 97 97 68
Width: 457
GlyphClass: 2
Flags: W
LayerCount: 2
Fore
SplineSet
166 179 m 128,-1,1
 123 150 123 150 123 116 c 128,-1,2
 123 82 123 82 140.5 66.5 c 128,-1,3
 158 51 158 51 197 51 c 128,-1,4
 236 51 236 51 291 84 c 1,5,-1
 291 210 l 1,6,0
 209 208 209 208 166 179 c 128,-1,1
364 -9 m 0,7,8
 304 -9 304 -9 294 56 c 1,9,10
 206 -9 206 -9 142 -9 c 0,11,12
 99 -9 99 -9 69 17.5 c 128,-1,13
 39 44 39 44 39 100 c 128,-1,14
 39 156 39 156 98.5 201 c 128,-1,15
 158 246 158 246 291 255 c 1,16,-1
 291 348 l 2,17,18
 291 376 291 376 270.5 391 c 128,-1,19
 250 406 250 406 213 406 c 128,-1,20
 176 406 176 406 154 385.5 c 128,-1,21
 132 365 132 365 132 333 c 0,22,23
 132 321 132 321 135 306 c 1,24,-1
 113 296 l 1,25,26
 93 307 93 307 75.5 326 c 128,-1,27
 58 345 58 345 58 353.5 c 128,-1,28
 58 362 58 362 71.5 378.5 c 128,-1,29
 85 395 85 395 108 414 c 128,-1,30
 131 433 131 433 169.5 446.5 c 128,-1,31
 208 460 208 460 256 460 c 128,-1,32
 304 460 304 460 334 436.5 c 128,-1,33
 364 413 364 413 364 351.5 c 128,-1,34
 364 290 364 290 370 92 c 0,35,36
 371 44 371 44 406 44 c 0,37,38
 421 44 421 44 437 52 c 1,39,-1
 447 26 l 1,40,41
 409 -9 409 -9 364 -9 c 0,7,8
EndSplineSet
EndChar

StartChar: b
Encoding: 98 98 69
Width: 536
GlyphClass: 2
Flags: W
LayerCount: 2
Fore
SplineSet
250 37 m 0,0,1
 322 37 322 37 364 95.5 c 128,-1,2
 406 154 406 154 406 227.5 c 128,-1,3
 406 301 406 301 370 350 c 128,-1,4
 334 399 334 399 269 399 c 0,5,6
 220 399 220 399 157 367 c 1,7,8
 157 126 157 126 166 54 c 1,9,10
 210 37 210 37 250 37 c 0,0,1
157 402 m 1,11,12
 240 459 240 459 317.5 459 c 128,-1,13
 395 459 395 459 445 391.5 c 128,-1,14
 495 324 495 324 495 229 c 128,-1,15
 495 134 495 134 430 62 c 128,-1,16
 365 -10 365 -10 240 -10 c 0,17,18
 157 -10 157 -10 74 25 c 1,19,20
 82 113 82 113 82 298 c 0,21,22
 82 599 82 599 76 650 c 2,23,-1
 74 667 l 1,24,-1
 10 686 l 1,25,-1
 8 712 l 1,26,27
 72 712 72 712 140 730 c 1,28,-1
 159 721 l 1,29,30
 157 610 157 610 157 402 c 1,11,12
EndSplineSet
EndChar

StartChar: c
Encoding: 99 99 70
Width: 443
GlyphClass: 2
Flags: W
LayerCount: 2
Fore
SplineSet
421 57 m 1,0,1
 338 -9 338 -9 240 -9 c 128,-1,2
 142 -9 142 -9 89 53 c 128,-1,3
 36 115 36 115 36 214.5 c 128,-1,4
 36 314 36 314 97.5 387 c 128,-1,5
 159 460 159 460 269 460 c 0,6,7
 314 460 314 460 349.5 445.5 c 128,-1,8
 385 431 385 431 400 416 c 128,-1,9
 415 401 415 401 415 392 c 0,10,11
 415 352 415 352 391 319 c 1,12,-1
 367 319 l 1,13,14
 355 352 355 352 326.5 379 c 128,-1,15
 298 406 298 406 253 406 c 0,16,17
 191 406 191 406 157.5 350.5 c 128,-1,18
 124 295 124 295 124 214.5 c 128,-1,19
 124 134 124 134 163 92 c 128,-1,20
 202 50 202 50 272 50 c 128,-1,21
 342 50 342 50 409 90 c 1,22,-1
 421 57 l 1,0,1
EndSplineSet
EndChar

StartChar: d
Encoding: 100 100 71
Width: 544
GlyphClass: 2
Flags: W
LayerCount: 2
Fore
SplineSet
377 56 m 1,0,1
 308 -9 308 -9 226 -9 c 128,-1,2
 144 -9 144 -9 91.5 50.5 c 128,-1,3
 39 110 39 110 39 220.5 c 128,-1,4
 39 331 39 331 101.5 396 c 128,-1,5
 164 461 164 461 256 461 c 0,6,7
 306 461 306 461 376 426 c 1,8,9
 376 611 376 611 370 653 c 2,10,-1
 368 667 l 1,11,-1
 304 686 l 1,12,-1
 302 712 l 1,13,14
 366 712 366 712 434 730 c 1,15,-1
 453 721 l 1,16,17
 451 596 451 596 451 367 c 128,-1,18
 451 138 451 138 453 105 c 128,-1,19
 455 72 455 72 461.5 63.5 c 128,-1,20
 468 55 468 55 481 51 c 0,21,22
 502 45 502 45 530 43 c 1,23,-1
 527 14 l 1,24,25
 491 11 491 11 418 -4 c 1,26,27
 388 9 388 9 377 56 c 1,0,1
282 400 m 0,28,29
 203 400 203 400 165.5 348.5 c 128,-1,30
 128 297 128 297 128 221 c 128,-1,31
 128 145 128 145 161 99.5 c 128,-1,32
 194 54 194 54 255 54 c 128,-1,33
 316 54 316 54 371 89 c 1,34,35
 376 169 376 169 376 382 c 1,36,37
 324 400 324 400 282 400 c 0,28,29
EndSplineSet
EndChar

StartChar: e
Encoding: 101 101 72
Width: 459
GlyphClass: 2
Flags: W
LayerCount: 2
Fore
SplineSet
338 320 m 0,0,1
 338 366 338 366 312 388.5 c 128,-1,2
 286 411 286 411 254 411 c 0,3,4
 207 411 207 411 173 374 c 128,-1,5
 139 337 139 337 128 283 c 1,6,-1
 335 291 l 1,7,8
 338 306 338 306 338 320 c 0,0,1
251 -9 m 0,9,10
 145 -9 145 -9 91 51.5 c 128,-1,11
 37 112 37 112 37 212.5 c 128,-1,12
 37 313 37 313 96.5 386.5 c 128,-1,13
 156 460 156 460 276 460 c 0,14,15
 337 460 337 460 382.5 417 c 128,-1,16
 428 374 428 374 428 289 c 1,17,-1
 394 248 l 1,18,19
 388 249 388 249 299.5 249 c 128,-1,20
 211 249 211 249 122 242 c 1,21,-1
 122 233 l 2,22,23
 122 142 122 142 160 96.5 c 128,-1,24
 198 51 198 51 264 51 c 128,-1,25
 330 51 330 51 403 83 c 1,26,-1
 415 53 l 1,27,28
 338 -9 338 -9 251 -9 c 0,9,10
EndSplineSet
EndChar

StartChar: f
Encoding: 102 102 73
Width: 316
GlyphClass: 2
Flags: W
LayerCount: 2
Fore
SplineSet
260 -3 m 1,0,1
 212 0 212 0 141.5 0 c 128,-1,2
 71 0 71 0 23 -3 c 1,3,-1
 26 26 l 1,4,5
 46 28 46 28 69.5 34.5 c 128,-1,6
 93 41 93 41 94 48 c 1,7,8
 102 48 102 48 102 406 c 1,9,-1
 33 405 l 1,10,-1
 30 416 l 1,11,-1
 53 455 l 1,12,13
 67 453 67 453 101 451 c 1,14,15
 101 516 101 516 123.5 568 c 128,-1,16
 146 620 146 620 177.5 649 c 128,-1,17
 209 678 209 678 246 698 c 0,18,19
 306 730 306 730 342 730 c 0,20,21
 350 730 350 730 368.5 706.5 c 128,-1,22
 387 683 387 683 393 660 c 1,23,-1
 378 641 l 1,24,25
 335 660 335 660 292 660 c 0,26,27
 177 660 177 660 177 452 c 1,28,-1
 307 453 l 1,29,-1
 312 441 l 1,30,-1
 281 402 l 1,31,32
 247 405 247 405 177 406 c 1,33,34
 177 128 177 128 187 48 c 0,35,36
 188 41 188 41 215.5 34 c 128,-1,37
 243 27 243 27 263 26 c 1,38,-1
 260 -3 l 1,0,1
EndSplineSet
PairPos2: "'kern' Horizontal Kerning in Latin lookup 0 per glyph data 1" quotedblright dx=0 dy=0 dh=70 dv=0 dx=0 dy=0 dh=0 dv=0
PairPos2: "'kern' Horizontal Kerning in Latin lookup 0 per glyph data 1" quotedblleft dx=0 dy=0 dh=70 dv=0 dx=0 dy=0 dh=0 dv=0
PairPos2: "'kern' Horizontal Kerning in Latin lookup 0 per glyph data 1" quoteright dx=0 dy=0 dh=70 dv=0 dx=0 dy=0 dh=0 dv=0
PairPos2: "'kern' Horizontal Kerning in Latin lookup 0 per glyph data 1" quoteleft dx=0 dy=0 dh=70 dv=0 dx=0 dy=0 dh=0 dv=0
PairPos2: "'kern' Horizontal Kerning in Latin lookup 0 per glyph data 1" oe dx=0 dy=0 dh=-20 dv=0 dx=0 dy=0 dh=0 dv=0
PairPos2: "'kern' Horizontal Kerning in Latin lookup 0 per glyph data 1" oslash dx=0 dy=0 dh=-20 dv=0 dx=0 dy=0 dh=0 dv=0
PairPos2: "'kern' Horizontal Kerning in Latin lookup 0 per glyph data 1" odieresis dx=0 dy=0 dh=-20 dv=0 dx=0 dy=0 dh=0 dv=0
PairPos2: "'kern' Horizontal Kerning in Latin lookup 0 per glyph data 1" otilde dx=0 dy=0 dh=-20 dv=0 dx=0 dy=0 dh=0 dv=0
PairPos2: "'kern' Horizontal Kerning in Latin lookup 0 per glyph data 1" ocircumflex dx=0 dy=0 dh=-20 dv=0 dx=0 dy=0 dh=0 dv=0
PairPos2: "'kern' Horizontal Kerning in Latin lookup 0 per glyph data 1" oacute dx=0 dy=0 dh=-20 dv=0 dx=0 dy=0 dh=0 dv=0
PairPos2: "'kern' Horizontal Kerning in Latin lookup 0 per glyph data 1" ograve dx=0 dy=0 dh=-20 dv=0 dx=0 dy=0 dh=0 dv=0
PairPos2: "'kern' Horizontal Kerning in Latin lookup 0 per glyph data 1" edieresis dx=0 dy=0 dh=-20 dv=0 dx=0 dy=0 dh=0 dv=0
PairPos2: "'kern' Horizontal Kerning in Latin lookup 0 per glyph data 1" ecircumflex dx=0 dy=0 dh=-20 dv=0 dx=0 dy=0 dh=0 dv=0
PairPos2: "'kern' Horizontal Kerning in Latin lookup 0 per glyph data 1" eacute dx=0 dy=0 dh=-20 dv=0 dx=0 dy=0 dh=0 dv=0
PairPos2: "'kern' Horizontal Kerning in Latin lookup 0 per glyph data 1" egrave dx=0 dy=0 dh=-20 dv=0 dx=0 dy=0 dh=0 dv=0
PairPos2: "'kern' Horizontal Kerning in Latin lookup 0 per glyph data 1" ccedilla dx=0 dy=0 dh=-20 dv=0 dx=0 dy=0 dh=0 dv=0
PairPos2: "'kern' Horizontal Kerning in Latin lookup 0 per glyph data 1" registered dx=0 dy=0 dh=70 dv=0 dx=0 dy=0 dh=0 dv=0
PairPos2: "'kern' Horizontal Kerning in Latin lookup 0 per glyph data 1" copyright dx=0 dy=0 dh=70 dv=0 dx=0 dy=0 dh=0 dv=0
PairPos2: "'kern' Horizontal Kerning in Latin lookup 0 per glyph data 1" braceright dx=0 dy=0 dh=50 dv=0 dx=0 dy=0 dh=0 dv=0
PairPos2: "'kern' Horizontal Kerning in Latin lookup 0 per glyph data 1" q dx=0 dy=0 dh=-20 dv=0 dx=0 dy=0 dh=0 dv=0
PairPos2: "'kern' Horizontal Kerning in Latin lookup 0 per glyph data 1" o dx=0 dy=0 dh=-20 dv=0 dx=0 dy=0 dh=0 dv=0
PairPos2: "'kern' Horizontal Kerning in Latin lookup 0 per glyph data 1" g dx=0 dy=0 dh=-20 dv=0 dx=0 dy=0 dh=0 dv=0
PairPos2: "'kern' Horizontal Kerning in Latin lookup 0 per glyph data 1" e dx=0 dy=0 dh=-20 dv=0 dx=0 dy=0 dh=0 dv=0
PairPos2: "'kern' Horizontal Kerning in Latin lookup 0 per glyph data 1" c dx=0 dy=0 dh=-20 dv=0 dx=0 dy=0 dh=0 dv=0
PairPos2: "'kern' Horizontal Kerning in Latin lookup 0 per glyph data 1" bracketright dx=0 dy=0 dh=50 dv=0 dx=0 dy=0 dh=0 dv=0
PairPos2: "'kern' Horizontal Kerning in Latin lookup 0 per glyph data 1" question dx=0 dy=0 dh=50 dv=0 dx=0 dy=0 dh=0 dv=0
PairPos2: "'kern' Horizontal Kerning in Latin lookup 0 per glyph data 1" asterisk dx=0 dy=0 dh=50 dv=0 dx=0 dy=0 dh=0 dv=0
PairPos2: "'kern' Horizontal Kerning in Latin lookup 0 per glyph data 1" parenright dx=0 dy=0 dh=30 dv=0 dx=0 dy=0 dh=0 dv=0
PairPos2: "'kern' Horizontal Kerning in Latin lookup 0 per glyph data 1" quotesingle dx=0 dy=0 dh=70 dv=0 dx=0 dy=0 dh=0 dv=0
PairPos2: "'kern' Horizontal Kerning in Latin lookup 0 per glyph data 1" quotedbl dx=0 dy=0 dh=70 dv=0 dx=0 dy=0 dh=0 dv=0
PairPos2: "'kern' Horizontal Kerning in Latin lookup 0 per glyph data 1" exclam dx=0 dy=0 dh=50 dv=0 dx=0 dy=0 dh=0 dv=0
EndChar

StartChar: g
Encoding: 103 103 74
Width: 490
GlyphClass: 2
Flags: W
LayerCount: 2
Fore
SplineSet
434 496 m 0,0,1
 442 496 442 496 460.5 472.5 c 128,-1,2
 479 449 479 449 485 426 c 1,3,-1
 470 407 l 1,4,5
 452 416 452 416 427 416 c 128,-1,6
 402 416 402 416 380 405 c 1,7,8
 415 362 415 362 415 292 c 128,-1,9
 415 222 415 222 369 172.5 c 128,-1,10
 323 123 323 123 233 123 c 0,11,12
 210 123 210 123 189 126 c 1,13,14
 152 78 152 78 152 60 c 0,15,16
 152 37 152 37 217 37 c 2,17,-1
 292 37 l 2,18,19
 481 37 481 37 481 -85 c 0,20,21
 481 -153 481 -153 405.5 -208 c 128,-1,22
 330 -263 330 -263 203 -263 c 0,23,24
 129 -263 129 -263 75 -238.5 c 128,-1,25
 21 -214 21 -214 21 -169 c 0,26,27
 21 -105 21 -105 124 -22 c 1,28,29
 61 -8 61 -8 61 26 c 128,-1,30
 61 60 61 60 151 133 c 1,31,32
 50 165 50 165 50 294 c 0,33,34
 50 360 50 360 96.5 409.5 c 128,-1,35
 143 459 143 459 227.5 459 c 128,-1,36
 312 459 312 459 354 429 c 1,37,38
 366 448 366 448 391 472 c 128,-1,39
 416 496 416 496 434 496 c 0,0,1
105 -136 m 0,40,41
 105 -175 105 -175 134 -199 c 128,-1,42
 163 -223 163 -223 229 -223 c 128,-1,43
 295 -223 295 -223 346 -181.5 c 128,-1,44
 397 -140 397 -140 397 -93 c 0,45,46
 397 -63 397 -63 371 -44 c 128,-1,47
 345 -25 345 -25 290 -25 c 2,48,-1
 155 -25 l 1,49,50
 105 -81 105 -81 105 -136 c 0,40,41
234 418 m 0,51,52
 205 418 205 418 183.5 404.5 c 128,-1,53
 162 391 162 391 152 370 c 0,54,55
 135 330 135 330 135 285 c 128,-1,56
 135 240 135 240 157.5 202 c 128,-1,57
 180 164 180 164 230 164 c 0,58,59
 266 164 266 164 289.5 185.5 c 128,-1,60
 313 207 313 207 320.5 230 c 128,-1,61
 328 253 328 253 329 278 c 1,62,63
 329 418 329 418 234 418 c 0,51,52
EndSplineSet
EndChar

StartChar: h
Encoding: 104 104 75
Width: 558
GlyphClass: 2
Flags: W
LayerCount: 2
Fore
SplineSet
238 -3 m 1,0,1
 190 0 190 0 128 0 c 128,-1,2
 66 0 66 0 18 -3 c 1,3,-1
 21 26 l 1,4,5
 40 28 40 28 61.5 34.5 c 128,-1,6
 83 41 83 41 84 48 c 0,7,8
 91 113 91 113 91 298 c 0,9,10
 91 599 91 599 85 650 c 2,11,-1
 83 667 l 1,12,-1
 19 686 l 1,13,-1
 17 712 l 1,14,15
 81 712 81 712 149 730 c 1,16,-1
 168 721 l 1,17,18
 166 604 166 604 166 402 c 1,19,20
 277 460 277 460 366 460 c 0,21,22
 416 460 416 460 442 440 c 128,-1,23
 468 420 468 420 468 365 c 2,24,-1
 468 229 l 2,25,26
 468 100 468 100 476 61 c 1,27,-1
 478 48 l 2,28,29
 479 41 479 41 500.5 34.5 c 128,-1,30
 522 28 522 28 542 26 c 1,31,-1
 539 -3 l 1,32,33
 491 0 491 0 429 0 c 128,-1,34
 367 0 367 0 319 -3 c 1,35,-1
 322 26 l 1,36,37
 341 28 341 28 362.5 34.5 c 128,-1,38
 384 41 384 41 385 48 c 0,39,40
 393 83 393 83 393 229 c 2,41,-1
 393 326 l 2,42,43
 393 365 393 365 370 380 c 128,-1,44
 347 395 347 395 315 395 c 128,-1,45
 283 395 283 395 263.5 392.5 c 128,-1,46
 244 390 244 390 228 386 c 0,47,48
 188 375 188 375 176 370 c 1,49,-1
 166 367 l 1,50,51
 166 70 166 70 177 48 c 1,52,53
 178 41 178 41 199.5 34.5 c 128,-1,54
 221 28 221 28 241 26 c 1,55,-1
 238 -3 l 1,0,1
EndSplineSet
EndChar

StartChar: i
Encoding: 105 105 76
Width: 275
GlyphClass: 2
Flags: W
LayerCount: 2
Fore
SplineSet
139 563 m 128,-1,1
 117 563 117 563 102 578.5 c 128,-1,2
 87 594 87 594 87 616.5 c 128,-1,3
 87 639 87 639 102 654 c 128,-1,4
 117 669 117 669 139 669 c 128,-1,5
 161 669 161 669 176 654 c 128,-1,6
 191 639 191 639 191 616.5 c 128,-1,7
 191 594 191 594 176 578.5 c 128,-1,0
 161 563 161 563 139 563 c 128,-1,1
180 450 m 1,8,-1
 178 229 l 1,9,10
 178 100 178 100 186 61 c 1,11,-1
 188 48 l 2,12,13
 189 41 189 41 213.5 34.5 c 128,-1,14
 238 28 238 28 259 26 c 1,15,-1
 256 -3 l 1,16,17
 208 0 208 0 139 0 c 128,-1,18
 70 0 70 0 22 -3 c 1,19,-1
 25 26 l 1,20,21
 46 28 46 28 70 34.5 c 128,-1,22
 94 41 94 41 95 48 c 0,23,24
 103 83 103 83 103 188 c 0,25,26
 103 358 103 358 95 396 c 1,27,-1
 31 415 l 1,28,-1
 29 441 l 1,29,30
 93 441 93 441 161 459 c 1,31,-1
 180 450 l 1,8,-1
EndSplineSet
EndChar

StartChar: j
Encoding: 106 106 77
Width: 269
GlyphClass: 2
Flags: W
LayerCount: 2
Fore
SplineSet
105 15 m 0,0,1
 105 258 105 258 99 362 c 2,2,-1
 97 396 l 1,3,-1
 33 415 l 1,4,-1
 31 441 l 1,5,6
 95 441 95 441 163 459 c 1,7,-1
 182 450 l 1,8,9
 180 298 180 298 180 54 c 0,10,11
 180 -20 180 -20 164.5 -79 c 128,-1,12
 149 -138 149 -138 127.5 -171 c 128,-1,13
 106 -204 106 -204 81 -226 c 128,-1,14
 56 -248 56 -248 39.5 -255.5 c 128,-1,15
 23 -263 23 -263 15 -263 c 128,-1,16
 7 -263 7 -263 -11.5 -239.5 c 128,-1,17
 -30 -216 -30 -216 -36 -193 c 1,18,-1
 -21 -174 l 1,19,20
 10 -193 10 -193 39 -193 c 0,21,22
 105 -193 105 -193 105 15 c 0,0,1
141 563 m 128,-1,24
 119 563 119 563 104 578.5 c 128,-1,25
 89 594 89 594 89 616.5 c 128,-1,26
 89 639 89 639 104 654 c 128,-1,27
 119 669 119 669 141 669 c 128,-1,28
 163 669 163 669 178 654 c 128,-1,29
 193 639 193 639 193 616.5 c 128,-1,30
 193 594 193 594 178 578.5 c 128,-1,23
 163 563 163 563 141 563 c 128,-1,24
EndSplineSet
EndChar

StartChar: k
Encoding: 107 107 78
Width: 517
GlyphClass: 2
Flags: W
LayerCount: 2
Fore
SplineSet
238 -3 m 1,0,1
 190 0 190 0 128 0 c 128,-1,2
 66 0 66 0 18 -3 c 1,3,-1
 21 26 l 1,4,5
 40 28 40 28 61.5 34.5 c 128,-1,6
 83 41 83 41 84 48 c 0,7,8
 93 113 93 113 93 298 c 0,9,10
 93 599 93 599 87 650 c 2,11,-1
 85 667 l 1,12,-1
 21 686 l 1,13,-1
 19 712 l 1,14,15
 83 712 83 712 151 730 c 1,16,-1
 170 721 l 1,17,18
 168 596 168 596 168 352 c 2,19,-1
 168 272 l 1,20,-1
 328 392 l 2,21,22
 335 398 335 398 335 404 c 0,23,24
 335 426 335 426 275 427 c 1,25,-1
 278 456 l 1,26,27
 340 453 340 453 384 453 c 128,-1,28
 428 453 428 453 489 456 c 1,29,-1
 492 427 l 1,30,31
 431 418 431 418 386 386 c 1,32,-1
 258 291 l 1,33,-1
 450 43 l 2,34,35
 460 31 460 31 488 28 c 0,36,37
 494 28 494 28 504 27 c 128,-1,38
 514 26 514 26 517 26 c 1,39,-1
 514 -3 l 1,40,41
 457 -3 457 -3 385 -9 c 1,42,-1
 200 249 l 1,43,-1
 169 226 l 1,44,45
 172 112 172 112 177 48 c 0,46,47
 178 41 178 41 199.5 34.5 c 128,-1,48
 221 28 221 28 241 26 c 1,49,-1
 238 -3 l 1,0,1
EndSplineSet
EndChar

StartChar: l
Encoding: 108 108 79
Width: 272
GlyphClass: 2
Flags: W
LayerCount: 2
Fore
SplineSet
175 721 m 1,0,1
 173 596 173 596 173 355 c 128,-1,2
 173 114 173 114 184 48 c 0,3,4
 185 41 185 41 210 34 c 128,-1,5
 235 27 235 27 254 26 c 1,6,-1
 251 -3 l 1,7,8
 203 0 203 0 135 0 c 128,-1,9
 67 0 67 0 19 -3 c 1,10,-1
 22 26 l 1,11,12
 43 28 43 28 66.5 34.5 c 128,-1,13
 90 41 90 41 91 48 c 0,14,15
 98 113 98 113 98 298 c 0,16,17
 98 599 98 599 92 650 c 2,18,-1
 90 667 l 1,19,-1
 26 686 l 1,20,-1
 24 712 l 1,21,22
 88 712 88 712 156 730 c 1,23,-1
 175 721 l 1,0,1
EndSplineSet
EndChar

StartChar: m
Encoding: 109 109 80
Width: 838
GlyphClass: 2
Flags: W
LayerCount: 2
Fore
SplineSet
459 229 m 2,0,1
 459 100 459 100 466 61 c 1,2,-1
 469 48 l 2,3,4
 470 41 470 41 491.5 34.5 c 128,-1,5
 513 28 513 28 533 26 c 1,6,-1
 530 -3 l 1,7,8
 482 0 482 0 420 0 c 128,-1,9
 358 0 358 0 310 -3 c 1,10,-1
 313 26 l 1,11,12
 332 28 332 28 353.5 34.5 c 128,-1,13
 375 41 375 41 376 48 c 0,14,15
 384 83 384 83 384 229 c 2,16,-1
 384 326 l 2,17,18
 384 365 384 365 361 380 c 128,-1,19
 338 395 338 395 306 395 c 128,-1,20
 274 395 274 395 256 392.5 c 128,-1,21
 238 390 238 390 224 386 c 0,22,23
 205 381 205 381 172 367 c 1,24,-1
 172 229 l 2,25,26
 172 105 172 105 180 61 c 1,27,-1
 183 48 l 2,28,29
 184 41 184 41 205.5 34.5 c 128,-1,30
 227 28 227 28 247 26 c 1,31,-1
 244 -3 l 1,32,33
 196 0 196 0 134 0 c 128,-1,34
 72 0 72 0 24 -3 c 1,35,-1
 27 26 l 1,36,37
 46 28 46 28 67.5 34.5 c 128,-1,38
 89 41 89 41 90 48 c 0,39,40
 97 83 97 83 97 188 c 0,41,42
 97 358 97 358 89 396 c 1,43,-1
 25 415 l 1,44,-1
 23 441 l 1,45,46
 87 441 87 441 155 459 c 1,47,-1
 174 450 l 1,48,49
 173 425 173 425 173 402 c 1,50,51
 284 460 284 460 362 460 c 128,-1,52
 440 460 440 460 455 401 c 1,53,54
 560 460 560 460 645 460 c 0,55,56
 695 460 695 460 721 440 c 128,-1,57
 747 420 747 420 747 365 c 2,58,-1
 747 229 l 2,59,60
 747 100 747 100 754 61 c 1,61,-1
 757 48 l 2,62,63
 758 41 758 41 779.5 34.5 c 128,-1,64
 801 28 801 28 821 26 c 1,65,-1
 818 -3 l 1,66,67
 770 0 770 0 708 0 c 128,-1,68
 646 0 646 0 598 -3 c 1,69,-1
 601 26 l 1,70,71
 620 28 620 28 641.5 34.5 c 128,-1,72
 663 41 663 41 664 48 c 0,73,74
 672 83 672 83 672 229 c 2,75,-1
 672 326 l 2,76,77
 672 365 672 365 649 380 c 128,-1,78
 626 395 626 395 567.5 395 c 128,-1,79
 509 395 509 395 459 367 c 1,80,-1
 459 229 l 2,0,1
EndSplineSet
EndChar

StartChar: n
Encoding: 110 110 81
Width: 560
GlyphClass: 2
Flags: W
LayerCount: 2
Fore
SplineSet
173 367 m 1,0,-1
 172 229 l 2,1,2
 172 100 172 100 180 61 c 1,3,-1
 182 48 l 2,4,5
 183 41 183 41 204.5 34.5 c 128,-1,6
 226 28 226 28 246 26 c 1,7,-1
 243 -3 l 1,8,9
 195 0 195 0 133 0 c 128,-1,10
 71 0 71 0 23 -3 c 1,11,-1
 26 26 l 1,12,13
 45 28 45 28 66.5 34.5 c 128,-1,14
 88 41 88 41 89 48 c 0,15,16
 97 83 97 83 97 188 c 0,17,18
 97 358 97 358 89 396 c 1,19,-1
 25 415 l 1,20,-1
 23 441 l 1,21,22
 87 441 87 441 155 459 c 1,23,-1
 174 450 l 1,24,-1
 174 402 l 1,25,26
 285 460 285 460 367 460 c 0,27,28
 417 460 417 460 443 440 c 128,-1,29
 469 420 469 420 469 365 c 2,30,-1
 469 229 l 2,31,32
 469 100 469 100 476 61 c 1,33,-1
 479 48 l 2,34,35
 480 41 480 41 501.5 34.5 c 128,-1,36
 523 28 523 28 543 26 c 1,37,-1
 540 -3 l 1,38,39
 492 0 492 0 430 0 c 128,-1,40
 368 0 368 0 320 -3 c 1,41,-1
 323 26 l 1,42,43
 342 28 342 28 363.5 34.5 c 128,-1,44
 385 41 385 41 386 48 c 0,45,46
 394 83 394 83 394 229 c 2,47,-1
 394 326 l 2,48,49
 394 365 394 365 371 380 c 128,-1,50
 348 395 348 395 293 395 c 128,-1,51
 238 395 238 395 173 367 c 1,0,-1
EndSplineSet
EndChar

StartChar: o
Encoding: 111 111 82
Width: 529
GlyphClass: 2
Flags: W
LayerCount: 2
Fore
SplineSet
267 411 m 0,0,1
 226 411 226 411 196 390.5 c 128,-1,2
 166 370 166 370 152 339 c 0,3,4
 125 282 125 282 125 230 c 0,5,6
 125 148 125 148 158 93.5 c 128,-1,7
 191 39 191 39 262 39 c 0,8,9
 300 39 300 39 329 56.5 c 128,-1,10
 358 74 358 74 373 102 c 0,11,12
 402 154 402 154 404 206 c 1,13,14
 404 411 404 411 267 411 c 0,0,1
438 402 m 128,-1,16
 490 344 490 344 490 240.5 c 128,-1,17
 490 137 490 137 430.5 64 c 128,-1,18
 371 -9 371 -9 257 -9 c 128,-1,19
 143 -9 143 -9 91 48.5 c 128,-1,20
 39 106 39 106 39 209 c 128,-1,21
 39 312 39 312 98.5 386 c 128,-1,22
 158 460 158 460 272 460 c 128,-1,15
 386 460 386 460 438 402 c 128,-1,16
EndSplineSet
EndChar

StartChar: p
Encoding: 112 112 83
Width: 546
GlyphClass: 2
Flags: W
LayerCount: 2
Fore
SplineSet
256 44 m 0,0,1
 336 44 336 44 376 97.5 c 128,-1,2
 416 151 416 151 416 225 c 128,-1,3
 416 299 416 299 381.5 348 c 128,-1,4
 347 397 347 397 278 397 c 0,5,6
 251 397 251 397 216 387 c 128,-1,7
 181 377 181 377 164 366 c 1,8,-1
 164 61 l 1,9,10
 212 44 212 44 256 44 c 0,0,1
237 -263 m 1,11,12
 189 -260 189 -260 121 -260 c 128,-1,13
 53 -260 53 -260 5 -263 c 1,14,-1
 8 -234 l 1,15,16
 75 -228 75 -228 77 -215 c 0,17,18
 89 -158 89 -158 89 28 c 0,19,20
 89 328 89 328 83 379 c 2,21,-1
 81 396 l 1,22,-1
 17 415 l 1,23,-1
 15 441 l 1,24,25
 78 441 78 441 146 459 c 1,26,-1
 165 450 l 1,27,-1
 165 401 l 1,28,29
 243 460 243 460 324 460 c 128,-1,30
 405 460 405 460 455 406 c 128,-1,31
 505 352 505 352 505 236.5 c 128,-1,32
 505 121 505 121 442 56 c 128,-1,33
 379 -9 379 -9 288 -9 c 0,34,35
 222 -9 222 -9 164 23 c 1,36,37
 165 -201 165 -201 170 -215 c 1,38,39
 172 -228 172 -228 240 -234 c 1,40,-1
 237 -263 l 1,11,12
EndSplineSet
EndChar

StartChar: q
Encoding: 113 113 84
Width: 536
GlyphClass: 2
Flags: W
LayerCount: 2
Fore
SplineSet
286 406 m 0,0,1
 214 406 214 406 172 347 c 128,-1,2
 130 288 130 288 130 216 c 128,-1,3
 130 144 130 144 163.5 97 c 128,-1,4
 197 50 197 50 256.5 50 c 128,-1,5
 316 50 316 50 379 81 c 1,6,7
 379 312 379 312 370 389 c 1,8,9
 326 406 326 406 286 406 c 0,0,1
454 458 m 1,10,11
 452 337 452 337 452 94 c 128,-1,12
 452 -149 452 -149 463 -215 c 0,13,14
 465 -228 465 -228 527 -234 c 1,15,-1
 524 -263 l 1,16,17
 476 -260 476 -260 411 -260 c 128,-1,18
 346 -260 346 -260 298 -263 c 1,19,-1
 301 -234 l 1,20,21
 368 -228 368 -228 370 -215 c 0,22,23
 377 -163 377 -163 378 44 c 1,24,25
 334 14 334 14 299 2 c 128,-1,26
 264 -10 264 -10 219 -10 c 0,27,28
 137 -10 137 -10 89 55 c 128,-1,29
 41 120 41 120 41 219 c 128,-1,30
 41 318 41 318 106.5 389.5 c 128,-1,31
 172 461 172 461 266 461 c 0,32,33
 338 461 338 461 393 430 c 1,34,-1
 435 467 l 1,35,-1
 454 458 l 1,10,11
EndSplineSet
EndChar

StartChar: r
Encoding: 114 114 85
Width: 377
GlyphClass: 2
Flags: W
LayerCount: 2
Fore
SplineSet
319 466 m 0,0,1
 327 466 327 466 345.5 442.5 c 128,-1,2
 364 419 364 419 370 396 c 1,3,-1
 355 377 l 1,4,5
 319 391 319 391 280 391 c 128,-1,6
 241 391 241 391 209 358.5 c 128,-1,7
 177 326 177 326 177 254 c 0,8,9
 178 78 178 78 186 49 c 1,10,11
 187 41 187 41 214.5 34.5 c 128,-1,12
 242 28 242 28 272 26 c 1,13,-1
 269 -3 l 1,14,15
 221 0 221 0 147.5 0 c 128,-1,16
 74 0 74 0 26 -3 c 1,17,-1
 29 26 l 1,18,19
 49 28 49 28 71 34.5 c 128,-1,20
 93 41 93 41 94 48 c 0,21,22
 102 83 102 83 102 188 c 0,23,24
 102 358 102 358 94 396 c 1,25,-1
 30 415 l 1,26,-1
 28 441 l 1,27,28
 92 441 92 441 160 459 c 1,29,-1
 179 450 l 1,30,31
 177 435 177 435 177 368 c 1,32,33
 206 416 206 416 250.5 441 c 128,-1,34
 295 466 295 466 319 466 c 0,0,1
EndSplineSet
EndChar

StartChar: s
Encoding: 115 115 86
Width: 382
GlyphClass: 2
Flags: W
LayerCount: 2
Fore
SplineSet
310 442 m 1,0,-1
 324 435 l 1,1,2
 324 370 324 370 330 336 c 1,3,-1
 304 327 l 1,4,5
 291 378 291 378 267.5 398 c 128,-1,6
 244 418 244 418 208 418 c 128,-1,7
 172 418 172 418 151 399 c 128,-1,8
 130 380 130 380 130 354 c 0,9,10
 130 309 130 309 182 280 c 2,11,-1
 284 224 l 2,12,13
 350 187 350 187 350 117 c 0,14,15
 350 66 350 66 309.5 28.5 c 128,-1,16
 269 -9 269 -9 194 -9 c 128,-1,17
 119 -9 119 -9 40 16 c 1,18,19
 52 86 52 86 52 131 c 1,20,-1
 78 140 l 1,21,22
 87 104 87 104 91.5 91 c 128,-1,23
 96 78 96 78 107.5 59 c 128,-1,24
 119 40 119 40 137 34 c 128,-1,25
 155 28 155 28 190 28 c 128,-1,26
 225 28 225 28 248 48 c 128,-1,27
 271 68 271 68 271 96 c 0,28,29
 271 138 271 138 224 164 c 2,30,-1
 116 224 l 1,31,32
 50 259 50 259 50 331 c 0,33,34
 50 382 50 382 89 421 c 128,-1,35
 128 460 128 460 198 460 c 128,-1,36
 268 460 268 460 310 442 c 1,0,-1
EndSplineSet
EndChar

StartChar: t
Encoding: 116 116 87
Width: 327
GlyphClass: 2
Flags: W
LayerCount: 2
Fore
SplineSet
195 -9 m 0,0,1
 91 -9 91 -9 91 91 c 1,2,3
 92 179 92 179 92 252.5 c 128,-1,4
 92 326 92 326 90 406 c 1,5,-1
 26 405 l 1,6,-1
 23 416 l 1,7,-1
 46 455 l 1,8,9
 60 452 60 452 88 451 c 1,10,-1
 84 543 l 1,11,-1
 150 602 l 1,12,-1
 169 593 l 1,13,14
 167 519 167 519 167 452 c 1,15,-1
 314 453 l 1,16,-1
 319 441 l 1,17,-1
 283 401 l 1,18,19
 249 405 249 405 167 406 c 1,20,-1
 167 272 l 2,21,22
 167 147 167 147 170 93 c 0,23,24
 173 48 173 48 223 48 c 0,25,26
 263 48 263 48 311 71 c 1,27,-1
 323 38 l 1,28,29
 252 -9 252 -9 195 -9 c 0,0,1
EndSplineSet
EndChar

StartChar: u
Encoding: 117 117 88
Width: 550
GlyphClass: 2
Flags: W
LayerCount: 2
Fore
SplineSet
187 -9 m 0,0,1
 85 -9 85 -9 85 95 c 2,2,-1
 85 229 l 2,3,4
 85 363 85 363 78 396 c 1,5,-1
 19 415 l 1,6,-1
 17 441 l 1,7,8
 76 441 76 441 144 459 c 1,9,-1
 163 450 l 1,10,11
 160 271 160 271 160 125 c 0,12,13
 160 58 160 58 241 58 c 0,14,15
 275 58 275 58 314 69.5 c 128,-1,16
 353 81 353 81 376 95 c 1,17,18
 380 149 380 149 380 222 c 0,19,20
 380 358 380 358 372 396 c 1,21,-1
 309 415 l 1,22,-1
 307 441 l 1,23,24
 371 441 371 441 439 459 c 1,25,-1
 458 450 l 1,26,27
 455 375 455 375 455 202 c 1,28,-1
 458 85 l 2,29,30
 458 68 458 68 471.5 58.5 c 128,-1,31
 485 49 485 49 498 46.5 c 128,-1,32
 511 44 511 44 534 43 c 1,33,-1
 531 14 l 1,34,35
 495 11 495 11 422 -4 c 1,36,37
 392 9 392 9 381 56 c 1,38,39
 285 -9 285 -9 187 -9 c 0,0,1
EndSplineSet
EndChar

StartChar: v
Encoding: 118 118 89
Width: 479
GlyphClass: 2
Flags: W
LayerCount: 2
Fore
SplineSet
258 68 m 1,0,1
 364 393 364 393 362 393 c 1,2,3
 363 395 363 395 363 398 c 0,4,5
 363 420 363 420 308 427 c 1,6,-1
 305 456 l 1,7,8
 339 453 339 453 377 453 c 1,9,-1
 479 456 l 1,10,-1
 482 427 l 1,11,12
 431 420 431 420 419 390 c 0,13,14
 362 258 362 258 279 0 c 1,15,-1
 207 -9 l 1,16,17
 126 241 126 241 82 346 c 1,18,-1
 66 386 l 2,19,20
 53 419 53 419 5 427 c 1,21,-1
 2 456 l 1,22,23
 71 453 71 453 108 453 c 1,24,-1
 212 456 l 1,25,-1
 215 427 l 1,26,27
 185 424 185 424 170 415 c 128,-1,28
 155 406 155 406 155 397 c 0,29,30
 155 396 155 396 174 336 c 128,-1,31
 193 276 193 276 258 68 c 1,0,1
EndSplineSet
EndChar

StartChar: w
Encoding: 119 119 90
Width: 725
GlyphClass: 2
Flags: W
LayerCount: 2
Fore
SplineSet
608 396 m 0,0,1
 608 419 608 419 545 427 c 1,2,-1
 542 456 l 1,3,4
 584 453 584 453 622 453 c 1,5,-1
 724 456 l 1,6,-1
 727 427 l 1,7,8
 676 420 676 420 664 390 c 1,9,-1
 548 0 l 1,10,-1
 474 -9 l 1,11,-1
 364 279 l 1,12,-1
 258 0 l 1,13,-1
 183 -9 l 1,14,-1
 67 386 l 2,15,16
 58 419 58 419 6 427 c 1,17,-1
 3 456 l 1,18,19
 72 453 72 453 109 453 c 2,20,-1
 221 456 l 1,21,-1
 224 427 l 1,22,23
 177 421 177 421 162 405 c 0,24,25
 157 399 157 399 157 395 c 128,-1,26
 157 391 157 391 238 58 c 1,27,-1
 372 450 l 1,28,-1
 394 450 l 1,29,-1
 528 58 l 1,30,31
 608 390 608 390 608 396 c 0,0,1
EndSplineSet
EndChar

StartChar: x
Encoding: 120 120 91
Width: 496
GlyphClass: 2
Flags: W
LayerCount: 2
Fore
SplineSet
132 46 m 0,0,1
 132 26 132 26 194 26 c 1,2,-1
 188 -3 l 1,3,4
 142 0 142 0 104 0 c 1,5,-1
 7 -3 l 1,6,-1
 10 26 l 1,7,8
 36 26 36 26 48.5 33 c 128,-1,9
 61 40 61 40 73 54 c 2,10,-1
 207 222 l 1,11,-1
 85 399 l 2,12,13
 66 427 66 427 27 427 c 1,14,-1
 24 456 l 1,15,16
 104 453 104 453 141 453 c 1,17,-1
 226 456 l 1,18,-1
 229 427 l 1,19,20
 173 427 173 427 173 407 c 0,21,22
 173 402 173 402 263 275 c 1,23,24
 355 399 355 399 355 406 c 0,25,26
 355 427 355 427 304 427 c 1,27,-1
 301 456 l 1,28,29
 350 453 350 453 388 453 c 1,30,-1
 470 456 l 1,31,-1
 473 427 l 1,32,33
 437 424 437 424 412 393 c 2,34,-1
 291 236 l 1,35,-1
 422 57 l 1,36,37
 443 26 443 26 490 26 c 1,38,-1
 487 -3 l 1,39,40
 407 0 407 0 370 0 c 1,41,-1
 274 -3 l 1,42,-1
 277 26 l 1,43,44
 330 26 330 26 330 47 c 0,45,46
 330 54 330 54 234 183 c 1,47,48
 132 51 132 51 132 46 c 0,0,1
EndSplineSet
EndChar

StartChar: y
Encoding: 121 121 92
Width: 482
GlyphClass: 2
Flags: W
LayerCount: 2
Fore
SplineSet
167 415 m 128,-1,1
 152 406 152 406 152 400.5 c 128,-1,2
 152 395 152 395 258 68 c 1,3,4
 368 382 368 382 368 398 c 0,5,6
 368 420 368 420 313 427 c 1,7,-1
 310 456 l 1,8,9
 344 453 344 453 382 453 c 1,10,-1
 484 456 l 1,11,-1
 487 427 l 1,12,13
 436 420 436 420 424 390 c 1,14,15
 381 256 381 256 279 0 c 0,16,17
 202 -195 202 -195 132 -244 c 0,18,19
 112 -258 112 -258 101.5 -260.5 c 128,-1,20
 91 -263 91 -263 81 -263 c 128,-1,21
 71 -263 71 -263 52.5 -239.5 c 128,-1,22
 34 -216 34 -216 28 -193 c 1,23,-1
 43 -174 l 1,24,25
 62 -183 62 -183 88 -183 c 0,26,27
 160 -183 160 -183 232 0 c 1,28,-1
 197 21 l 1,29,30
 120 259 120 259 78 354 c 1,31,-1
 63 386 l 1,32,33
 50 419 50 419 2 427 c 1,34,-1
 -1 456 l 1,35,36
 68 453 68 453 105 453 c 1,37,-1
 209 456 l 1,38,-1
 212 427 l 1,39,0
 182 424 182 424 167 415 c 128,-1,1
EndSplineSet
EndChar

StartChar: z
Encoding: 122 122 93
Width: 444
GlyphClass: 2
Flags: W
LayerCount: 2
Fore
SplineSet
245 410 m 2,0,1
 223 410 223 410 194.5 408.5 c 128,-1,2
 166 407 166 407 155 405.5 c 128,-1,3
 144 404 144 404 128 399 c 128,-1,4
 112 394 112 394 107 389 c 128,-1,5
 102 384 102 384 94 373.5 c 128,-1,6
 86 363 86 363 82 352 c 2,7,-1
 73 324 l 1,8,-1
 47 333 l 1,9,10
 56 389 56 389 56 442 c 2,11,-1
 56 455 l 1,12,13
 118 450 118 450 398 450 c 1,14,-1
 413 422 l 1,15,-1
 130 45 l 1,16,17
 271 45 271 45 321.5 62.5 c 128,-1,18
 372 80 372 80 393 147 c 1,19,-1
 419 138 l 1,20,21
 404 91 404 91 398 0 c 1,22,-1
 46 0 l 1,23,-1
 26 30 l 1,24,-1
 313 410 l 1,25,-1
 245 410 l 2,0,1
EndSplineSet
EndChar

StartChar: braceleft
Encoding: 123 123 94
Width: 353
GlyphClass: 2
Flags: W
LayerCount: 2
Fore
SplineSet
60 263 m 1,0,-1
 60 297 l 1,1,2
 103 297 103 297 122 331 c 0,3,4
 129 345 129 345 129 357 c 128,-1,5
 129 369 129 369 104.5 496 c 128,-1,6
 80 623 80 623 80 660 c 0,7,8
 80 701 80 701 225 706 c 0,9,10
 256 707 256 707 303 707 c 1,11,-1
 300 671 l 1,12,13
 254 670 254 670 209 660.5 c 128,-1,14
 164 651 164 651 164 635 c 1,15,16
 195 531 195 531 195 452 c 128,-1,17
 195 373 195 373 183.5 334.5 c 128,-1,18
 172 296 172 296 137 280 c 1,19,20
 172 264 172 264 183.5 225.5 c 128,-1,21
 195 187 195 187 195 135 c 0,22,23
 195 35 195 35 172 -46 c 2,24,-1
 164 -75 l 1,25,26
 164 -91 164 -91 209 -100.5 c 128,-1,27
 254 -110 254 -110 300 -111 c 1,28,-1
 303 -147 l 1,29,30
 139 -147 139 -147 99 -126 c 0,31,32
 80 -116 80 -116 80 -100 c 0,33,34
 80 -63 80 -63 104.5 64 c 128,-1,35
 129 191 129 191 129 203 c 128,-1,36
 129 215 129 215 121.5 229 c 128,-1,37
 114 243 114 243 105.5 249 c 128,-1,38
 97 255 97 255 85 258 c 0,39,40
 70 263 70 263 60 263 c 1,0,-1
EndSplineSet
Position2: "'case' Case-Sensitive Forms in Latin lookup 1 per glyph data 0" dx=0 dy=70 dh=0 dv=0
EndChar

StartChar: bar
Encoding: 124 124 95
Width: 289
GlyphClass: 2
Flags: W
LayerCount: 2
Fore
SplineSet
112 -140 m 1,0,-1
 112 701 l 1,1,-1
 177 701 l 1,2,-1
 177 -140 l 1,3,-1
 112 -140 l 1,0,-1
EndSplineSet
Position2: "'case' Case-Sensitive Forms in Latin lookup 1 per glyph data 0" dx=0 dy=70 dh=0 dv=0
EndChar

StartChar: braceright
Encoding: 125 125 96
Width: 353
GlyphClass: 2
Flags: W
LayerCount: 2
Fore
SplineSet
293 297 m 1,0,-1
 293 263 l 1,1,2
 250 263 250 263 232 229 c 0,3,4
 224 215 224 215 224 203 c 128,-1,5
 224 191 224 191 248.5 64 c 128,-1,6
 273 -63 273 -63 273 -100 c 0,7,8
 273 -141 273 -141 128 -146 c 0,9,10
 97 -147 97 -147 50 -147 c 1,11,-1
 53 -111 l 1,12,13
 99 -110 99 -110 144 -100.5 c 128,-1,14
 189 -91 189 -91 189 -75 c 1,15,16
 158 29 158 29 158 108 c 128,-1,17
 158 187 158 187 169.5 225.5 c 128,-1,18
 181 264 181 264 216 280 c 1,19,20
 181 296 181 296 169.5 334.5 c 128,-1,21
 158 373 158 373 158 425 c 0,22,23
 158 517 158 517 182 606 c 1,24,-1
 189 635 l 1,25,26
 189 651 189 651 144 660.5 c 128,-1,27
 99 670 99 670 53 671 c 1,28,-1
 50 707 l 1,29,30
 214 707 214 707 254 686 c 0,31,32
 273 676 273 676 273 660 c 0,33,34
 273 623 273 623 248.5 496 c 128,-1,35
 224 369 224 369 224 357 c 128,-1,36
 224 345 224 345 231.5 331 c 128,-1,37
 239 317 239 317 247.5 311 c 128,-1,38
 256 305 256 305 268 302 c 0,39,40
 283 297 283 297 293 297 c 1,0,-1
EndSplineSet
Position2: "'case' Case-Sensitive Forms in Latin lookup 1 per glyph data 0" dx=0 dy=70 dh=0 dv=0
EndChar

StartChar: asciitilde
Encoding: 126 126 97
Width: 523
GlyphClass: 2
Flags: W
LayerCount: 2
Fore
SplineSet
381 241 m 0,0,1
 341 241 341 241 261.5 273.5 c 128,-1,2
 182 306 182 306 138 306 c 128,-1,3
 94 306 94 306 56 274 c 1,4,-1
 25 305 l 1,5,6
 79 367 79 367 143 367 c 0,7,8
 183 367 183 367 262.5 334.5 c 128,-1,9
 342 302 342 302 385 302 c 128,-1,10
 428 302 428 302 468 334 c 1,11,-1
 499 303 l 1,12,13
 445 241 445 241 381 241 c 0,0,1
EndSplineSet
EndChar

StartChar: exclamdown
Encoding: 161 161 98
Width: 236
GlyphClass: 2
Flags: W
LayerCount: 2
Fore
SplineSet
118 461 m 128,-1,1
 140 461 140 461 155.5 445.5 c 128,-1,2
 171 430 171 430 171 407 c 128,-1,3
 171 384 171 384 155.5 368.5 c 128,-1,4
 140 353 140 353 118 353 c 128,-1,5
 96 353 96 353 80.5 368.5 c 128,-1,6
 65 384 65 384 65 407 c 128,-1,7
 65 430 65 430 80.5 445.5 c 128,-1,0
 96 461 96 461 118 461 c 128,-1,1
64 -239 m 1,8,-1
 97 284 l 1,9,-1
 135 293 l 1,10,-1
 172 -212 l 2,11,12
 172 -215 172 -215 168.5 -219 c 128,-1,13
 165 -223 165 -223 138 -230.5 c 128,-1,14
 111 -238 111 -238 64 -239 c 1,8,-1
EndSplineSet
Position2: "'case' Case-Sensitive Forms in Latin lookup 1 per glyph data 1" dx=0 dy=224 dh=0 dv=0
EndChar

StartChar: cent
Encoding: 162 162 99
Width: 523
GlyphClass: 2
Flags: W
LayerCount: 2
Fore
SplineSet
344 546.5 m 128,-1,1
 371 541 371 541 386.5 541 c 128,-1,2
 402 541 402 541 427 546 c 1,3,-1
 427 533 l 2,4,5
 427 475 427 475 438 409 c 1,6,-1
 414 398 l 1,7,8
 385 502 385 502 296 509 c 1,9,-1
 252 153 l 1,10,11
 274 147 274 147 301 147 c 0,12,13
 360 147 360 147 426 177 c 1,14,-1
 440 148 l 1,15,16
 362 86 362 86 265 86 c 0,17,18
 251 86 251 86 244 87 c 1,19,-1
 232 -9 l 1,20,-1
 187 -9 l 1,21,-1
 200 94 l 1,22,23
 129 114 129 114 91 173.5 c 128,-1,24
 53 233 53 233 53 316.5 c 128,-1,25
 53 400 53 400 107.5 472 c 128,-1,26
 162 544 162 544 257 553 c 1,27,-1
 268 641 l 1,28,-1
 313 641 l 1,29,-1
 302 553 l 1,30,0
 317 552 317 552 344 546.5 c 128,-1,1
139 328 m 0,31,32
 139 221 139 221 209 172 c 1,33,-1
 251 507 l 1,34,35
 192 496 192 496 165.5 445.5 c 128,-1,36
 139 395 139 395 139 328 c 0,31,32
EndSplineSet
EndChar

StartChar: sterling
Encoding: 163 163 100
Width: 523
GlyphClass: 2
Flags: W
LayerCount: 2
Fore
SplineSet
207 447 m 1,0,-1
 210 341 l 1,1,-1
 210 332 l 1,2,-1
 366 332 l 1,3,-1
 360 289 l 1,4,-1
 208 289 l 1,5,6
 197 116 197 116 128 50 c 1,7,8
 205 42 205 42 251 42 c 0,9,10
 339 42 339 42 381 67 c 128,-1,11
 423 92 423 92 446 151 c 1,12,-1
 469 140 l 1,13,14
 454 93 454 93 448 0 c 1,15,-1
 46 0 l 1,16,-1
 31 24 l 1,17,-1
 76 54 l 1,18,19
 102 98 102 98 116.5 164.5 c 128,-1,20
 131 231 131 231 134 289 c 1,21,-1
 40 289 l 1,22,-1
 46 332 l 1,23,-1
 134 332 l 1,24,25
 133 370 133 370 126 423 c 128,-1,26
 119 476 119 476 119 490 c 0,27,28
 119 641 119 641 296 641 c 0,29,30
 322 641 322 641 354.5 634.5 c 128,-1,31
 387 628 387 628 402 628 c 128,-1,32
 417 628 417 628 442 633 c 1,33,34
 442 560 442 560 453 496 c 1,35,-1
 429 485 l 1,36,37
 411 549 411 549 380 573 c 128,-1,38
 349 597 349 597 296 597 c 128,-1,39
 243 597 243 597 225 558.5 c 128,-1,40
 207 520 207 520 207 447 c 1,0,-1
EndSplineSet
EndChar

StartChar: currency
Encoding: 164 164 101
Width: 523
GlyphClass: 2
Flags: W
LayerCount: 2
Fore
SplineSet
115 213 m 1,0,1
 79 262 79 262 79 322 c 128,-1,2
 79 382 79 382 115 432 c 1,3,-1
 35 495 l 1,4,-1
 86 551 l 1,5,-1
 152 468 l 1,6,7
 203 504 203 504 260.5 504 c 128,-1,8
 318 504 318 504 370 468 c 1,9,-1
 434 549 l 1,10,-1
 489 496 l 1,11,-1
 407 431 l 1,12,13
 443 378 443 378 443 322 c 128,-1,14
 443 266 443 266 407 213 c 1,15,-1
 487 151 l 1,16,-1
 436 95 l 1,17,-1
 370 177 l 1,18,19
 320 141 320 141 260 141 c 128,-1,20
 200 141 200 141 151 177 c 1,21,-1
 89 97 l 1,22,-1
 33 148 l 1,23,-1
 115 213 l 1,0,1
179 404.5 m 128,-1,25
 146 371 146 371 146 322 c 128,-1,26
 146 273 146 273 179 240 c 128,-1,27
 212 207 212 207 261 207 c 128,-1,28
 310 207 310 207 343 240 c 128,-1,29
 376 273 376 273 376 322 c 128,-1,30
 376 371 376 371 343 404.5 c 128,-1,31
 310 438 310 438 261 438 c 128,-1,24
 212 438 212 438 179 404.5 c 128,-1,25
EndSplineSet
EndChar

StartChar: yen
Encoding: 165 165 102
Width: 523
GlyphClass: 2
Flags: W
LayerCount: 2
Fore
SplineSet
352 641 m 1,0,-1
 426 638 l 1,1,2
 452 638 452 638 503 641 c 1,3,-1
 506 612 l 1,4,5
 481 608 481 608 469.5 599 c 128,-1,6
 458 590 458 590 448 569 c 2,7,-1
 363 379 l 1,8,-1
 471 379 l 1,9,-1
 465 336 l 1,10,-1
 343 336 l 1,11,-1
 320 284 l 1,12,-1
 471 284 l 1,13,-1
 465 241 l 1,14,-1
 308 241 l 1,15,-1
 313 69 l 1,16,17
 315 51 315 51 332 43.5 c 128,-1,18
 349 36 349 36 398 26 c 1,19,-1
 395 -3 l 1,20,21
 332 0 332 0 261 0 c 128,-1,22
 190 0 190 0 127 -3 c 1,23,-1
 124 26 l 1,24,25
 175 36 175 36 193 44 c 128,-1,26
 211 52 211 52 213 69 c 0,27,28
 216 109 216 109 217 241 c 1,29,-1
 54 241 l 1,30,-1
 60 284 l 1,31,-1
 201 284 l 1,32,-1
 180 336 l 1,33,-1
 54 336 l 1,34,-1
 60 379 l 1,35,-1
 163 379 l 1,36,-1
 87 570 l 2,37,38
 75 601 75 601 22 612 c 1,39,-1
 25 641 l 1,40,41
 73 638 73 638 115.5 638 c 128,-1,42
 158 638 158 638 206 641 c 1,43,-1
 209 612 l 1,44,45
 162 603 162 603 162 584 c 0,46,47
 162 576 162 576 204 466 c 128,-1,48
 246 356 246 356 271 295 c 1,49,-1
 393 569 l 2,50,51
 395 573 395 573 395 582 c 0,52,53
 395 598 395 598 349 612 c 1,54,-1
 352 641 l 1,0,-1
EndSplineSet
EndChar

StartChar: brokenbar
Encoding: 166 166 103
Width: 289
GlyphClass: 2
Flags: W
LayerCount: 2
Fore
SplineSet
112 -140 m 1,0,-1
 112 195 l 1,1,-1
 177 195 l 1,2,-1
 177 -140 l 1,3,-1
 112 -140 l 1,0,-1
112 366 m 1,4,-1
 112 701 l 1,5,-1
 177 701 l 1,6,-1
 177 366 l 1,7,-1
 112 366 l 1,4,-1
EndSplineSet
Position2: "'case' Case-Sensitive Forms in Latin lookup 1 per glyph data 0" dx=0 dy=70 dh=0 dv=0
EndChar

StartChar: section
Encoding: 167 167 104
Width: 501
GlyphClass: 2
Flags: W
LayerCount: 2
Fore
SplineSet
494 655 m 0,0,1
 494 605 494 605 461 584 c 1,2,3
 435 594 435 594 398.5 594 c 128,-1,4
 362 594 362 594 328.5 576.5 c 128,-1,5
 295 559 295 559 275.5 531.5 c 128,-1,6
 256 504 256 504 244 462 c 1,7,8
 226 393 226 393 226 283 c 2,9,-1
 226 174 l 2,10,11
 226 22 226 22 192 -32 c 0,12,13
 161 -81 161 -81 96 -81 c 0,14,15
 88 -81 88 -81 72 -79 c 1,16,17
 137 -45 137 -45 150.5 15.5 c 128,-1,18
 164 76 164 76 164 266 c 0,19,20
 164 332 164 332 170 383.5 c 128,-1,21
 176 435 176 435 195.5 491.5 c 128,-1,22
 215 548 215 548 247.5 588 c 128,-1,23
 280 628 280 628 337.5 660.5 c 128,-1,24
 395 693 395 693 474 707 c 1,25,26
 494 687 494 687 494 655 c 0,0,1
7 -177 m 0,27,28
 7 -127 7 -127 40 -106 c 1,29,30
 66 -116 66 -116 102.5 -116 c 128,-1,31
 139 -116 139 -116 172.5 -98.5 c 128,-1,32
 206 -81 206 -81 225.5 -53.5 c 128,-1,33
 245 -26 245 -26 256 16 c 0,34,35
 275 85 275 85 275 195 c 2,36,-1
 275 304 l 2,37,38
 275 456 275 456 308 510 c 1,39,40
 340 559 340 559 405 559 c 0,41,42
 413 559 413 559 429 557 c 1,43,44
 364 523 364 523 350.5 462.5 c 128,-1,45
 337 402 337 402 337 212 c 0,46,47
 337 146 337 146 331 94.5 c 128,-1,48
 325 43 325 43 305.5 -13.5 c 128,-1,49
 286 -70 286 -70 253.5 -110 c 128,-1,50
 221 -150 221 -150 163.5 -182.5 c 128,-1,51
 106 -215 106 -215 27 -229 c 1,52,53
 7 -209 7 -209 7 -177 c 0,27,28
EndSplineSet
EndChar

StartChar: dieresis
Encoding: 168 168 105
Width: 464
GlyphClass: 2
Flags: W
LayerCount: 2
Fore
SplineSet
320 563 m 128,-1,1
 298 563 298 563 283 578.5 c 128,-1,2
 268 594 268 594 268 616.5 c 128,-1,3
 268 639 268 639 283 654 c 128,-1,4
 298 669 298 669 320 669 c 128,-1,5
 342 669 342 669 357 654 c 128,-1,6
 372 639 372 639 372 616.5 c 128,-1,7
 372 594 372 594 357 578.5 c 128,-1,0
 342 563 342 563 320 563 c 128,-1,1
140 563 m 128,-1,9
 118 563 118 563 103 578.5 c 128,-1,10
 88 594 88 594 88 616.5 c 128,-1,11
 88 639 88 639 103 654 c 128,-1,12
 118 669 118 669 140 669 c 128,-1,13
 162 669 162 669 177 654 c 128,-1,14
 192 639 192 639 192 616.5 c 128,-1,15
 192 594 192 594 177 578.5 c 128,-1,8
 162 563 162 563 140 563 c 128,-1,9
EndSplineSet
EndChar

StartChar: copyright
Encoding: 169 169 106
Width: 600
GlyphClass: 2
Flags: W
LayerCount: 2
Fore
SplineSet
306 651 m 1,0,-1
 381 644 l 1,1,2
 400 644 400 644 412 649 c 1,3,4
 412 598 412 598 417 570 c 1,5,-1
 396 561 l 1,6,7
 376 627 376 627 299 627 c 0,8,9
 252 627 252 627 219 591 c 128,-1,10
 186 555 186 555 186 490.5 c 128,-1,11
 186 426 186 426 214.5 382.5 c 128,-1,12
 243 339 243 339 302 339 c 0,13,14
 387 339 387 339 409 408 c 1,15,-1
 431 399 l 1,16,17
 424 376 424 376 420 336 c 1,18,19
 354 312 354 312 300 312 c 0,20,21
 223 312 223 312 174.5 351.5 c 128,-1,22
 126 391 126 391 126 468 c 128,-1,23
 126 545 126 545 171 598 c 128,-1,24
 216 651 216 651 306 651 c 1,0,-1
55 479 m 128,-1,26
 55 378 55 378 126.5 306.5 c 128,-1,27
 198 235 198 235 299 235 c 128,-1,28
 400 235 400 235 471.5 306.5 c 128,-1,29
 543 378 543 378 543 479 c 128,-1,30
 543 580 543 580 471.5 651.5 c 128,-1,31
 400 723 400 723 299 723 c 128,-1,32
 198 723 198 723 126.5 651.5 c 128,-1,25
 55 580 55 580 55 479 c 128,-1,26
100.5 279.5 m 128,-1,34
 18 362 18 362 18 478.5 c 128,-1,35
 18 595 18 595 100.5 677.5 c 128,-1,36
 183 760 183 760 299.5 760 c 128,-1,37
 416 760 416 760 498.5 677.5 c 128,-1,38
 581 595 581 595 581 478.5 c 128,-1,39
 581 362 581 362 498.5 279.5 c 128,-1,40
 416 197 416 197 299.5 197 c 128,-1,33
 183 197 183 197 100.5 279.5 c 128,-1,34
EndSplineSet
EndChar

StartChar: ordfeminine
Encoding: 170 170 107
Width: 286
GlyphClass: 2
Flags: W
LayerCount: 2
Fore
SplineSet
37 317 m 1,0,1
 84 313 84 313 152.5 313 c 128,-1,2
 221 313 221 313 274 317 c 1,3,-1
 278 305 l 1,4,-1
 253 266 l 1,5,6
 206 269 206 269 137.5 269 c 128,-1,7
 69 269 69 269 16 265 c 1,8,-1
 12 278 l 1,9,-1
 37 317 l 1,0,1
82 435 m 0,10,11
 82 404 82 404 114.5 404 c 128,-1,12
 147 404 147 404 177 422 c 1,13,-1
 177 496 l 1,14,15
 132 495 132 495 107 476.5 c 128,-1,16
 82 458 82 458 82 435 c 0,10,11
230 587 m 1,17,-1
 234 426 l 2,18,19
 234 400 234 400 252 400 c 0,20,21
 261 400 261 400 273 406 c 1,22,-1
 282 384 l 1,23,24
 253 360 253 360 226 360 c 0,25,26
 189 360 189 360 180 398 c 1,27,28
 128 360 128 360 94 360 c 0,29,30
 21 360 21 360 21 422 c 0,31,32
 21 460 21 460 61 490 c 128,-1,33
 101 520 101 520 177 530 c 1,34,-1
 177 584 l 2,35,36
 177 617 177 617 135 617 c 0,37,38
 112 617 112 617 99.5 605 c 128,-1,39
 87 593 87 593 87 579 c 128,-1,40
 87 565 87 565 90 556 c 1,41,-1
 71 548 l 1,42,43
 57 555 57 555 45 568.5 c 128,-1,44
 33 582 33 582 33 588.5 c 128,-1,45
 33 595 33 595 46.5 610.5 c 128,-1,46
 60 626 60 626 90.5 641 c 128,-1,47
 121 656 121 656 157 656 c 0,48,49
 230 656 230 656 230 587 c 1,17,-1
EndSplineSet
EndChar

StartChar: guillemotleft
Encoding: 171 171 108
Width: 517
GlyphClass: 2
Flags: W
LayerCount: 2
Fore
SplineSet
236 223 m 128,-1,1
 236 230 236 230 240 238 c 1,2,-1
 397 389 l 1,3,-1
 417 372 l 1,4,-1
 313 223 l 1,5,-1
 417 74 l 1,6,-1
 397 57 l 1,7,-1
 240 208 l 1,8,0
 236 216 236 216 236 223 c 128,-1,1
90 223 m 128,-1,10
 90 230 90 230 94 238 c 1,11,-1
 251 389 l 1,12,-1
 271 372 l 1,13,-1
 167 223 l 1,14,-1
 271 74 l 1,15,-1
 251 57 l 1,16,-1
 94 208 l 1,17,9
 90 216 90 216 90 223 c 128,-1,10
EndSplineSet
Position2: "'case' Case-Sensitive Forms in Latin lookup 1 per glyph data 0" dx=0 dy=70 dh=0 dv=0
EndChar

StartChar: logicalnot
Encoding: 172 172 109
Width: 523
GlyphClass: 2
Flags: W
LayerCount: 2
Fore
SplineSet
24 273 m 1,0,-1
 24 334 l 1,1,-1
 499 334 l 1,2,-1
 499 66 l 1,3,-1
 438 66 l 1,4,-1
 438 273 l 1,5,-1
 24 273 l 1,0,-1
EndSplineSet
EndChar

StartChar: registered
Encoding: 174 174 110
Width: 600
GlyphClass: 2
Flags: W
LayerCount: 2
Fore
SplineSet
355 569 m 0,0,1
 355 624 355 624 281 624 c 0,2,3
 260 624 260 624 258 615 c 0,4,5
 252 588 252 588 252 491 c 1,6,7
 304 491 304 491 319 496 c 1,8,9
 355 517 355 517 355 569 c 0,0,1
298 316 m 1,10,11
 256 318 256 318 226 318 c 128,-1,12
 196 318 196 318 154 316 c 1,13,-1
 152 332 l 1,14,15
 194 340 194 340 196 352 c 0,16,17
 200 381 200 381 200 483 c 1,18,-1
 196 613 l 2,19,20
 195 621 195 621 187 624.5 c 128,-1,21
 179 628 179 628 156 632 c 1,22,-1
 157 648 l 1,23,24
 178 647 178 647 227 647 c 2,25,-1
 309 647 l 2,26,27
 357 647 357 647 382 625.5 c 128,-1,28
 407 604 407 604 407 574.5 c 128,-1,29
 407 545 407 545 389.5 520.5 c 128,-1,30
 372 496 372 496 341 483 c 1,31,32
 349 470 349 470 378 419 c 128,-1,33
 407 368 407 368 424 341 c 1,34,35
 435 336 435 336 463 332 c 1,36,-1
 462 316 l 1,37,-1
 377 313 l 1,38,-1
 294 473 l 1,39,40
 280 472 280 472 252 472 c 1,41,42
 252 382 252 382 258 352 c 0,43,44
 259 344 259 344 267 340.5 c 128,-1,45
 275 337 275 337 299 332 c 1,46,-1
 298 316 l 1,10,11
55 479 m 128,-1,48
 55 378 55 378 126.5 306.5 c 128,-1,49
 198 235 198 235 299 235 c 128,-1,50
 400 235 400 235 471.5 306.5 c 128,-1,51
 543 378 543 378 543 479 c 128,-1,52
 543 580 543 580 471.5 651.5 c 128,-1,53
 400 723 400 723 299 723 c 128,-1,54
 198 723 198 723 126.5 651.5 c 128,-1,47
 55 580 55 580 55 479 c 128,-1,48
100.5 279.5 m 128,-1,56
 18 362 18 362 18 478.5 c 128,-1,57
 18 595 18 595 100.5 677.5 c 128,-1,58
 183 760 183 760 299.5 760 c 128,-1,59
 416 760 416 760 498.5 677.5 c 128,-1,60
 581 595 581 595 581 478.5 c 128,-1,61
 581 362 581 362 498.5 279.5 c 128,-1,62
 416 197 416 197 299.5 197 c 128,-1,55
 183 197 183 197 100.5 279.5 c 128,-1,56
EndSplineSet
EndChar

StartChar: macron
Encoding: 175 175 111
Width: 360
GlyphClass: 2
Flags: W
LayerCount: 2
Fore
SplineSet
301 572 m 1,0,1
 240 576 240 576 163.5 576 c 128,-1,2
 87 576 87 576 26 572 c 1,3,-1
 18 588 l 1,4,-1
 57 634 l 1,5,6
 140 629 140 629 208 629 c 128,-1,7
 276 629 276 629 332 633 c 1,8,-1
 340 618 l 1,9,-1
 301 572 l 1,0,1
EndSplineSet
EndChar

StartChar: degree
Encoding: 176 176 112
Width: 281
GlyphClass: 2
Flags: W
LayerCount: 2
Fore
SplineSet
10 554 m 128,-1,1
 10 608 10 608 48 646.5 c 128,-1,2
 86 685 86 685 140 685 c 128,-1,3
 194 685 194 685 232.5 646.5 c 128,-1,4
 271 608 271 608 271 554 c 128,-1,5
 271 500 271 500 232.5 462 c 128,-1,6
 194 424 194 424 140 424 c 128,-1,7
 86 424 86 424 48 462 c 128,-1,0
 10 500 10 500 10 554 c 128,-1,1
52 554 m 128,-1,9
 52 517 52 517 77.5 491.5 c 128,-1,10
 103 466 103 466 140 466 c 128,-1,11
 177 466 177 466 203.5 491.5 c 128,-1,12
 230 517 230 517 230 554 c 128,-1,13
 230 591 230 591 203.5 617.5 c 128,-1,14
 177 644 177 644 140 644 c 128,-1,15
 103 644 103 644 77.5 617.5 c 128,-1,8
 52 591 52 591 52 554 c 128,-1,9
EndSplineSet
EndChar

StartChar: plusminus
Encoding: 177 177 113
Width: 523
GlyphClass: 2
Flags: W
LayerCount: 2
Fore
SplineSet
231 541 m 1,0,-1
 292 541 l 1,1,-1
 292 334 l 1,2,-1
 499 334 l 1,3,-1
 499 273 l 1,4,-1
 292 273 l 1,5,-1
 292 66 l 1,6,-1
 231 66 l 1,7,-1
 231 273 l 1,8,-1
 24 273 l 1,9,-1
 24 334 l 1,10,-1
 231 334 l 1,11,-1
 231 541 l 1,0,-1
24 -60 m 1,12,-1
 24 1 l 1,13,-1
 499 1 l 1,14,-1
 499 -60 l 1,15,-1
 24 -60 l 1,12,-1
EndSplineSet
EndChar

StartChar: twosuperior
Encoding: 178 178 114
Width: 320
GlyphClass: 2
Flags: W
LayerCount: 2
Fore
SplineSet
250 642.5 m 128,-1,1
 286 614 286 614 286 567 c 128,-1,2
 286 520 286 520 260 474.5 c 128,-1,3
 234 429 234 429 192 390 c 0,4,5
 142 345 142 345 95 310 c 1,6,-1
 97 307 l 1,7,8
 193 307 193 307 225.5 318 c 128,-1,9
 258 329 258 329 272 374 c 1,10,-1
 302 367 l 1,11,12
 292 327 292 327 289 267 c 1,13,-1
 25 267 l 1,14,-1
 18 297 l 1,15,16
 45 317 45 317 81 351.5 c 128,-1,17
 117 386 117 386 142.5 416 c 128,-1,18
 168 446 168 446 188.5 484.5 c 128,-1,19
 209 523 209 523 209 554 c 0,20,21
 209 622 209 622 138 622 c 0,22,23
 93 622 93 622 52 599 c 1,24,-1
 37 623 l 1,25,26
 97 671 97 671 155.5 671 c 128,-1,0
 214 671 214 671 250 642.5 c 128,-1,1
EndSplineSet
EndChar

StartChar: threesuperior
Encoding: 179 179 115
Width: 320
GlyphClass: 2
Flags: W
LayerCount: 2
Fore
SplineSet
289 395 m 0,0,1
 289 338 289 338 234 289.5 c 128,-1,2
 179 241 179 241 94 241 c 0,3,4
 64 241 64 241 30 247 c 1,5,-1
 32 284 l 1,6,7
 53 279 53 279 79 279 c 0,8,9
 141 279 141 279 176.5 310 c 128,-1,10
 212 341 212 341 212 376.5 c 128,-1,11
 212 412 212 412 188.5 434 c 128,-1,12
 165 456 165 456 131 456 c 128,-1,13
 97 456 97 456 78 450 c 1,14,-1
 80 486 l 1,15,16
 136 494 136 494 165 522.5 c 128,-1,17
 194 551 194 551 194 575 c 0,18,19
 194 624 194 624 146 624 c 0,20,21
 105 624 105 624 63 599 c 1,22,-1
 49 624 l 1,23,24
 106 671 106 671 172 671 c 0,25,26
 216 671 216 671 242 650 c 128,-1,27
 268 629 268 629 268 598 c 128,-1,28
 268 567 268 567 243.5 537.5 c 128,-1,29
 219 508 219 508 173 489 c 1,30,31
 230 487 230 487 259.5 460.5 c 128,-1,32
 289 434 289 434 289 395 c 0,0,1
EndSplineSet
EndChar

StartChar: acute
Encoding: 180 180 116
Width: 285
GlyphClass: 2
Flags: W
LayerCount: 2
Fore
SplineSet
273 680 m 1,0,-1
 100 518 l 1,1,-1
 70 523 l 1,2,-1
 204 722 l 1,3,4
 229 722 229 722 250 709.5 c 128,-1,5
 271 697 271 697 273 680 c 1,0,-1
EndSplineSet
EndChar

StartChar: mu
Encoding: 181 181 117
Width: 550
GlyphClass: 2
Flags: W
LayerCount: 2
Fore
SplineSet
217 -9 m 0,0,1
 149 -9 149 -9 134 37 c 1,2,-1
 130 37 l 1,3,-1
 130 -21 l 2,4,5
 130 -176 130 -176 202 -176 c 0,6,7
 216 -176 216 -176 216 -189 c 0,8,9
 216 -213 216 -213 199 -236 c 128,-1,10
 182 -259 182 -259 167 -259 c 128,-1,11
 152 -259 152 -259 141.5 -253 c 128,-1,12
 131 -247 131 -247 120 -226.5 c 128,-1,13
 109 -206 109 -206 102 -171 c 0,14,15
 85 -86 85 -86 85 61.5 c 128,-1,16
 85 209 85 209 78 396 c 1,17,-1
 19 415 l 1,18,-1
 17 441 l 1,19,20
 76 441 76 441 144 459 c 1,21,-1
 163 450 l 1,22,23
 160 284 160 284 160 138 c 0,24,25
 160 89 160 89 179.5 73.5 c 128,-1,26
 199 58 199 58 236.5 58 c 128,-1,27
 274 58 274 58 313.5 69.5 c 128,-1,28
 353 81 353 81 376 95 c 1,29,30
 380 149 380 149 380 222 c 0,31,32
 380 358 380 358 372 396 c 1,33,-1
 309 415 l 1,34,-1
 307 441 l 1,35,36
 371 441 371 441 439 459 c 1,37,-1
 458 450 l 1,38,39
 455 375 455 375 455 202 c 1,40,-1
 458 92 l 2,41,42
 459 44 459 44 493 44 c 0,43,44
 510 44 510 44 531 56 c 1,45,-1
 534 26 l 1,46,47
 495 -10 495 -10 451 -10 c 0,48,49
 391 -10 391 -10 381 56 c 1,50,51
 355 31 355 31 307 11 c 128,-1,52
 259 -9 259 -9 217 -9 c 0,0,1
EndSplineSet
EndChar

StartChar: paragraph
Encoding: 182 182 118
Width: 524
GlyphClass: 2
Flags: W
LayerCount: 2
Fore
SplineSet
160 -172 m 0,0,1
 160 -158 160 -158 166.5 -137 c 128,-1,2
 173 -116 173 -116 180 -106 c 1,3,4
 207 -116 207 -116 234 -116 c 0,5,6
 293 -116 293 -116 328 -57 c 128,-1,7
 363 2 363 2 363 125 c 0,8,9
 363 169 363 169 358 204 c 1,10,11
 294 172 294 172 224 172 c 128,-1,12
 154 172 154 172 102 219.5 c 128,-1,13
 50 267 50 267 50 348 c 128,-1,14
 50 429 50 429 104 485 c 0,15,16
 211 594 211 594 460 594 c 1,17,-1
 467 557 l 1,18,19
 394 557 394 557 394 471 c 0,20,21
 394 430 394 430 411 298.5 c 128,-1,22
 428 167 428 167 428 100 c 128,-1,23
 428 33 428 33 404 -37.5 c 128,-1,24
 380 -108 380 -108 343 -148 c 0,25,26
 268 -229 268 -229 186 -229 c 1,27,28
 160 -208 160 -208 160 -172 c 0,0,1
EndSplineSet
EndChar

StartChar: periodcentered
Encoding: 183 183 119
Width: 165
GlyphClass: 2
Flags: W
LayerCount: 2
Fore
SplineSet
82 209 m 128,-1,1
 60 209 60 209 45 224.5 c 128,-1,2
 30 240 30 240 30 263 c 128,-1,3
 30 286 30 286 45 301 c 128,-1,4
 60 316 60 316 82 316 c 128,-1,5
 104 316 104 316 119.5 301 c 128,-1,6
 135 286 135 286 135 263 c 128,-1,7
 135 240 135 240 119.5 224.5 c 128,-1,0
 104 209 104 209 82 209 c 128,-1,1
EndSplineSet
EndChar

StartChar: cedilla
Encoding: 184 184 120
Width: 443
GlyphClass: 2
Flags: W
LayerCount: 2
Fore
SplineSet
247 11 m 1,0,1
 234 -10 234 -10 234 -24.5 c 128,-1,2
 234 -39 234 -39 273 -69.5 c 128,-1,3
 312 -100 312 -100 312 -125 c 0,4,5
 312 -160 312 -160 272 -195 c 128,-1,6
 232 -230 232 -230 154 -259 c 1,7,8
 138 -246 138 -246 138 -222.5 c 128,-1,9
 138 -199 138 -199 161 -180 c 1,10,11
 258 -175 258 -175 258 -145 c 0,12,13
 258 -130 258 -130 224.5 -104 c 128,-1,14
 191 -78 191 -78 191 -52 c 128,-1,15
 191 -26 191 -26 221 11 c 1,16,-1
 247 11 l 1,0,1
EndSplineSet
EndChar

StartChar: onesuperior
Encoding: 185 185 121
Width: 320
GlyphClass: 2
Flags: W
LayerCount: 2
Fore
SplineSet
259 265 m 1,0,1
 207 267 207 267 168.5 267 c 128,-1,2
 130 267 130 267 64 265 c 1,3,-1
 62 291 l 1,4,5
 128 301 128 301 130 315 c 0,6,7
 134 349 134 349 134 438 c 0,8,9
 134 581 134 581 130 617 c 1,10,-1
 61 630 l 1,11,-1
 59 659 l 1,12,13
 144 659 144 659 194 671 c 1,14,-1
 208 665 l 1,15,16
 206 601 206 601 206 472 c 1,17,-1
 210 315 l 2,18,19
 211 305 211 305 222 300.5 c 128,-1,20
 233 296 233 296 261 291 c 1,21,-1
 259 265 l 1,0,1
EndSplineSet
EndChar

StartChar: ordmasculine
Encoding: 186 186 122
Width: 331
GlyphClass: 2
Flags: W
LayerCount: 2
Fore
SplineSet
51 317 m 1,0,1
 98 313 98 313 166.5 313 c 128,-1,2
 235 313 235 313 288 317 c 1,3,-1
 292 305 l 1,4,-1
 267 266 l 1,5,6
 220 269 220 269 151.5 269 c 128,-1,7
 83 269 83 269 30 265 c 1,8,-1
 26 278 l 1,9,-1
 51 317 l 1,0,1
166 623 m 0,10,11
 134 623 134 623 114 600.5 c 128,-1,12
 94 578 94 578 89 555.5 c 128,-1,13
 84 533 84 533 84 497.5 c 128,-1,14
 84 462 84 462 102.5 428 c 128,-1,15
 121 394 121 394 163 394 c 128,-1,16
 205 394 205 394 224.5 427 c 128,-1,17
 244 460 244 460 245 496 c 1,18,19
 245 623 245 623 166 623 c 0,10,11
275 619.5 m 128,-1,21
 308 583 308 583 308 517.5 c 128,-1,22
 308 452 308 452 270.5 406 c 128,-1,23
 233 360 233 360 160 360 c 128,-1,24
 87 360 87 360 54 396 c 128,-1,25
 21 432 21 432 21 497 c 128,-1,26
 21 562 21 562 58.5 609 c 128,-1,27
 96 656 96 656 169 656 c 128,-1,20
 242 656 242 656 275 619.5 c 128,-1,21
EndSplineSet
EndChar

StartChar: guillemotright
Encoding: 187 187 123
Width: 517
GlyphClass: 2
Flags: W
LayerCount: 2
Fore
SplineSet
281 223 m 128,-1,1
 281 216 281 216 277 208 c 1,2,-1
 120 57 l 1,3,-1
 100 74 l 1,4,-1
 204 223 l 1,5,-1
 100 372 l 1,6,-1
 120 389 l 1,7,-1
 277 238 l 1,8,0
 281 230 281 230 281 223 c 128,-1,1
427 223 m 128,-1,10
 427 216 427 216 423 208 c 1,11,-1
 266 57 l 1,12,-1
 246 74 l 1,13,-1
 350 223 l 1,14,-1
 246 372 l 1,15,-1
 266 389 l 1,16,-1
 423 238 l 1,17,9
 427 230 427 230 427 223 c 128,-1,10
EndSplineSet
Position2: "'case' Case-Sensitive Forms in Latin lookup 1 per glyph data 0" dx=0 dy=70 dh=0 dv=0
EndChar

StartChar: onequarter
Encoding: 188 188 124
Width: 750
GlyphClass: 2
Flags: W
LayerCount: 2
Fore
SplineSet
160 -1 m 1,0,-1
 572 679 l 1,1,-1
 620 679 l 1,2,-1
 208 -1 l 1,3,-1
 160 -1 l 1,0,-1
259 265 m 1,4,5
 207 267 207 267 168.5 267 c 128,-1,6
 130 267 130 267 64 265 c 1,7,-1
 62 291 l 1,8,9
 128 301 128 301 130 315 c 0,10,11
 134 349 134 349 134 438 c 0,12,13
 134 581 134 581 130 617 c 1,14,-1
 61 630 l 1,15,-1
 59 659 l 1,16,17
 144 659 144 659 194 671 c 1,18,-1
 208 665 l 1,19,20
 206 601 206 601 206 472 c 1,21,-1
 210 315 l 2,22,23
 211 305 211 305 222 300.5 c 128,-1,24
 233 296 233 296 261 291 c 1,25,-1
 259 265 l 1,4,5
586 231 m 1,26,-1
 585 256 l 1,27,28
 591 269 591 269 655 270 c 1,29,30
 654 256 654 256 654 231 c 2,31,32
 654 231 654 231 655 159 c 1,33,-1
 714 159 l 1,34,-1
 718 148 l 1,35,-1
 695 113 l 1,36,37
 682 114 682 114 656 115 c 1,38,-1
 659 49 l 1,39,40
 661 33 661 33 710 24 c 1,41,-1
 708 -2 l 1,42,43
 668 1 668 1 613 1 c 128,-1,44
 558 1 558 1 517 -2 c 1,45,-1
 515 24 l 1,46,47
 580 35 580 35 582 49 c 1,48,49
 583 66 583 66 585 116 c 1,50,-1
 427 116 l 1,51,-1
 417 147 l 1,52,-1
 587 429 l 1,53,-1
 657 423 l 1,54,-1
 480 157 l 1,55,-1
 585 157 l 1,56,-1
 586 231 l 1,26,-1
EndSplineSet
EndChar

StartChar: onehalf
Encoding: 189 189 125
Width: 750
GlyphClass: 2
Flags: W
LayerCount: 2
Fore
SplineSet
141 -1 m 1,0,-1
 553 679 l 1,1,-1
 601 679 l 1,2,-1
 189 -1 l 1,3,-1
 141 -1 l 1,0,-1
259 265 m 1,4,5
 207 267 207 267 168.5 267 c 128,-1,6
 130 267 130 267 64 265 c 1,7,-1
 62 291 l 1,8,9
 128 301 128 301 130 315 c 0,10,11
 134 349 134 349 134 438 c 0,12,13
 134 581 134 581 130 617 c 1,14,-1
 61 630 l 1,15,-1
 59 659 l 1,16,17
 144 659 144 659 194 671 c 1,18,-1
 208 665 l 1,19,20
 206 601 206 601 206 472 c 1,21,-1
 210 315 l 2,22,23
 211 305 211 305 222 300.5 c 128,-1,24
 233 296 233 296 261 291 c 1,25,-1
 259 265 l 1,4,5
649 375.5 m 128,-1,27
 685 347 685 347 685 300 c 128,-1,28
 685 253 685 253 659 207.5 c 128,-1,29
 633 162 633 162 590 123 c 0,30,31
 541 78 541 78 494 43 c 1,32,-1
 496 40 l 1,33,34
 592 40 592 40 624.5 51 c 128,-1,35
 657 62 657 62 671 107 c 1,36,-1
 701 100 l 1,37,38
 691 60 691 60 688 0 c 1,39,-1
 424 0 l 1,40,-1
 417 30 l 1,41,42
 444 50 444 50 480 84.5 c 128,-1,43
 516 119 516 119 541.5 149 c 128,-1,44
 567 179 567 179 587.5 217.5 c 128,-1,45
 608 256 608 256 608 287 c 0,46,47
 608 355 608 355 537 355 c 0,48,49
 492 355 492 355 451 332 c 1,50,-1
 436 356 l 1,51,52
 496 404 496 404 554.5 404 c 128,-1,26
 613 404 613 404 649 375.5 c 128,-1,27
EndSplineSet
EndChar

StartChar: threequarters
Encoding: 190 190 126
Width: 750
GlyphClass: 2
Flags: W
LayerCount: 2
Fore
SplineSet
180 -1 m 1,0,-1
 592 679 l 1,1,-1
 640 679 l 1,2,-1
 228 -1 l 1,3,-1
 180 -1 l 1,0,-1
302 395 m 0,4,5
 302 338 302 338 247 289.5 c 128,-1,6
 192 241 192 241 107 241 c 0,7,8
 78 241 78 241 43 247 c 1,9,-1
 45 284 l 1,10,11
 66 279 66 279 92 279 c 0,12,13
 154 279 154 279 189.5 310 c 128,-1,14
 225 341 225 341 225 376.5 c 128,-1,15
 225 412 225 412 201.5 434 c 128,-1,16
 178 456 178 456 144 456 c 128,-1,17
 110 456 110 456 91 450 c 1,18,-1
 93 486 l 1,19,20
 149 494 149 494 178 522.5 c 128,-1,21
 207 551 207 551 207 575 c 0,22,23
 207 624 207 624 159 624 c 0,24,25
 118 624 118 624 76 599 c 1,26,-1
 62 624 l 1,27,28
 119 671 119 671 185 671 c 0,29,30
 229 671 229 671 255 650 c 128,-1,31
 281 629 281 629 281 598 c 128,-1,32
 281 567 281 567 256.5 537.5 c 128,-1,33
 232 508 232 508 186 489 c 1,34,35
 243 487 243 487 272.5 460.5 c 128,-1,36
 302 434 302 434 302 395 c 0,4,5
600 231 m 1,37,-1
 599 256 l 1,38,39
 605 269 605 269 669 270 c 1,40,41
 668 256 668 256 668 231 c 2,42,-1
 669 159 l 1,43,-1
 728 159 l 1,44,-1
 732 148 l 1,45,-1
 709 113 l 1,46,47
 696 114 696 114 670 115 c 1,48,-1
 673 49 l 1,49,50
 675 33 675 33 724 24 c 1,51,-1
 722 -2 l 1,52,53
 682 1 682 1 627 1 c 128,-1,54
 572 1 572 1 531 -2 c 1,55,-1
 529 24 l 1,56,57
 594 35 594 35 596 49 c 1,58,59
 597 66 597 66 599 116 c 1,60,-1
 441 116 l 1,61,-1
 431 147 l 1,62,-1
 601 429 l 1,63,-1
 671 423 l 1,64,-1
 494 157 l 1,65,-1
 599 157 l 1,66,-1
 600 231 l 1,37,-1
EndSplineSet
EndChar

StartChar: questiondown
Encoding: 191 191 127
Width: 343
GlyphClass: 2
Flags: W
LayerCount: 2
Fore
SplineSet
195 461 m 128,-1,1
 217 461 217 461 232.5 445.5 c 128,-1,2
 248 430 248 430 248 407 c 128,-1,3
 248 384 248 384 232.5 368.5 c 128,-1,4
 217 353 217 353 195 353 c 128,-1,5
 173 353 173 353 157.5 368.5 c 128,-1,6
 142 384 142 384 142 407 c 128,-1,7
 142 430 142 430 157.5 445.5 c 128,-1,0
 173 461 173 461 195 461 c 128,-1,1
293 -190 m 0,8,9
 293 -224 293 -224 271 -241 c 1,10,11
 50 -143 50 -143 50 -18 c 0,12,13
 50 32 50 32 100 75 c 0,14,15
 120 93 120 93 140 112 c 1,16,17
 190 156 190 156 190 203.5 c 128,-1,18
 190 251 190 251 175 284 c 1,19,-1
 213 293 l 1,20,21
 266 214 266 214 266 153 c 0,22,23
 266 126 266 126 239.5 98 c 128,-1,24
 213 70 213 70 181.5 50.5 c 128,-1,25
 150 31 150 31 123.5 4.5 c 128,-1,26
 97 -22 97 -22 97 -46 c 0,27,28
 97 -82 97 -82 143.5 -106 c 128,-1,29
 190 -130 190 -130 275 -132 c 1,30,31
 282 -140 282 -140 287.5 -159 c 128,-1,32
 293 -178 293 -178 293 -190 c 0,8,9
EndSplineSet
Position2: "'case' Case-Sensitive Forms in Latin lookup 1 per glyph data 1" dx=0 dy=224 dh=0 dv=0
EndChar

StartChar: Agrave
Encoding: 192 192 128
Width: 694
GlyphClass: 2
Flags: W
LayerCount: 2
Fore
SplineSet
250 -3 m 1,0,1
 187 0 187 0 126.5 0 c 128,-1,2
 66 0 66 0 3 -3 c 1,3,-1
 0 26 l 1,4,5
 46 35 46 35 65 45.5 c 128,-1,6
 84 56 84 56 90 75 c 2,7,-1
 289 684 l 1,8,-1
 376 694 l 1,9,-1
 609 69 l 2,10,11
 616 52 616 52 632.5 43.5 c 128,-1,12
 649 35 649 35 694 26 c 1,13,-1
 691 -3 l 1,14,15
 628 0 628 0 554 0 c 128,-1,16
 480 0 480 0 417 -3 c 1,17,-1
 414 26 l 1,18,19
 485 40 485 40 496 52 c 1,20,21
 502 57 502 57 502 62.5 c 128,-1,22
 502 68 502 68 447 242 c 1,23,-1
 221 242 l 1,24,-1
 167 64 l 1,25,26
 167 51 167 51 187 43 c 128,-1,27
 207 35 207 35 253 26 c 1,28,-1
 250 -3 l 1,0,1
330 590 m 1,29,-1
 326 590 l 1,30,31
 319 566 319 566 308.5 532.5 c 128,-1,32
 298 499 298 499 277 428.5 c 128,-1,33
 256 358 256 358 235 288 c 1,34,-1
 431 288 l 1,35,-1
 330 590 l 1,29,-1
362 747 m 1,36,-1
 189 909 l 1,37,38
 191 926 191 926 212 938.5 c 128,-1,39
 233 951 233 951 258 951 c 1,40,-1
 392 752 l 1,41,-1
 362 747 l 1,36,-1
EndSplineSet
Position2: "'cpsp' Capital Spacing in Latin lookup 2 subtable" dx=7 dy=0 dh=35 dv=0
EndChar

StartChar: Aacute
Encoding: 193 193 129
Width: 694
GlyphClass: 2
Flags: W
LayerCount: 2
Fore
SplineSet
250 -3 m 1,0,1
 187 0 187 0 126.5 0 c 128,-1,2
 66 0 66 0 3 -3 c 1,3,-1
 0 26 l 1,4,5
 46 35 46 35 65 45.5 c 128,-1,6
 84 56 84 56 90 75 c 2,7,-1
 289 684 l 1,8,-1
 376 694 l 1,9,-1
 609 69 l 2,10,11
 616 52 616 52 632.5 43.5 c 128,-1,12
 649 35 649 35 694 26 c 1,13,-1
 691 -3 l 1,14,15
 628 0 628 0 554 0 c 128,-1,16
 480 0 480 0 417 -3 c 1,17,-1
 414 26 l 1,18,19
 485 40 485 40 496 52 c 1,20,21
 502 57 502 57 502 62.5 c 128,-1,22
 502 68 502 68 447 242 c 1,23,-1
 221 242 l 1,24,-1
 167 64 l 1,25,26
 167 51 167 51 187 43 c 128,-1,27
 207 35 207 35 253 26 c 1,28,-1
 250 -3 l 1,0,1
330 590 m 1,29,-1
 326 590 l 1,30,31
 319 566 319 566 308.5 532.5 c 128,-1,32
 298 499 298 499 277 428.5 c 128,-1,33
 256 358 256 358 235 288 c 1,34,-1
 431 288 l 1,35,-1
 330 590 l 1,29,-1
478 909 m 1,36,-1
 305 747 l 1,37,-1
 275 752 l 1,38,-1
 409 951 l 1,39,40
 434 951 434 951 455 938.5 c 128,-1,41
 476 926 476 926 478 909 c 1,36,-1
EndSplineSet
Position2: "'cpsp' Capital Spacing in Latin lookup 2 subtable" dx=7 dy=0 dh=35 dv=0
EndChar

StartChar: Acircumflex
Encoding: 194 194 130
Width: 694
GlyphClass: 2
Flags: W
LayerCount: 2
Fore
SplineSet
250 -3 m 1,0,1
 187 0 187 0 126.5 0 c 128,-1,2
 66 0 66 0 3 -3 c 1,3,-1
 0 26 l 1,4,5
 46 35 46 35 65 45.5 c 128,-1,6
 84 56 84 56 90 75 c 2,7,-1
 289 684 l 1,8,-1
 376 694 l 1,9,-1
 609 69 l 2,10,11
 616 52 616 52 632.5 43.5 c 128,-1,12
 649 35 649 35 694 26 c 1,13,-1
 691 -3 l 1,14,15
 628 0 628 0 554 0 c 128,-1,16
 480 0 480 0 417 -3 c 1,17,-1
 414 26 l 1,18,19
 485 40 485 40 496 52 c 1,20,21
 502 57 502 57 502 62.5 c 128,-1,22
 502 68 502 68 447 242 c 1,23,-1
 221 242 l 1,24,-1
 167 64 l 1,25,26
 167 51 167 51 187 43 c 128,-1,27
 207 35 207 35 253 26 c 1,28,-1
 250 -3 l 1,0,1
330 590 m 1,29,-1
 326 590 l 1,30,31
 319 566 319 566 308.5 532.5 c 128,-1,32
 298 499 298 499 277 428.5 c 128,-1,33
 256 358 256 358 235 288 c 1,34,-1
 431 288 l 1,35,-1
 330 590 l 1,29,-1
328 947 m 1,36,37
 334 950 334 950 345.5 950 c 128,-1,38
 357 950 357 950 365 946 c 1,39,-1
 459 752 l 1,40,-1
 429 747 l 1,41,-1
 346 851 l 1,42,-1
 264 747 l 1,43,-1
 234 752 l 1,44,-1
 328 947 l 1,36,37
EndSplineSet
Position2: "'cpsp' Capital Spacing in Latin lookup 2 subtable" dx=7 dy=0 dh=35 dv=0
EndChar

StartChar: Atilde
Encoding: 195 195 131
Width: 694
GlyphClass: 2
Flags: W
LayerCount: 2
Fore
SplineSet
250 -3 m 1,0,1
 187 0 187 0 126.5 0 c 128,-1,2
 66 0 66 0 3 -3 c 1,3,-1
 0 26 l 1,4,5
 45 35 45 35 64 45.5 c 128,-1,6
 83 56 83 56 90 75 c 2,7,-1
 289 684 l 1,8,-1
 376 694 l 1,9,-1
 609 69 l 2,10,11
 616 52 616 52 632.5 43.5 c 128,-1,12
 649 35 649 35 694 26 c 1,13,-1
 691 -3 l 1,14,15
 628 0 628 0 554 0 c 128,-1,16
 480 0 480 0 417 -3 c 1,17,-1
 414 26 l 1,18,19
 485 40 485 40 496 52 c 1,20,21
 502 57 502 57 502 62.5 c 128,-1,22
 502 68 502 68 447 242 c 1,23,-1
 221 242 l 1,24,-1
 167 64 l 1,25,26
 167 51 167 51 187 43 c 128,-1,27
 207 35 207 35 253 26 c 1,28,-1
 250 -3 l 1,0,1
330 590 m 1,29,-1
 326 590 l 1,30,31
 319 566 319 566 308.5 532.5 c 128,-1,32
 298 499 298 499 277 428.5 c 128,-1,33
 256 358 256 358 235 288 c 1,34,-1
 431 288 l 1,35,-1
 330 590 l 1,29,-1
421 784 m 0,36,37
 398 784 398 784 349 803.5 c 128,-1,38
 300 823 300 823 276 823 c 0,39,40
 236 823 236 823 209 785 c 1,41,-1
 183 793 l 1,42,43
 213 894 213 894 273 894 c 0,44,45
 295 894 295 894 344.5 874.5 c 128,-1,46
 394 855 394 855 418 855 c 0,47,48
 456 855 456 855 485 893 c 1,49,-1
 511 885 l 1,50,51
 480 784 480 784 421 784 c 0,36,37
EndSplineSet
Position2: "'cpsp' Capital Spacing in Latin lookup 2 subtable" dx=7 dy=0 dh=35 dv=0
EndChar

StartChar: Adieresis
Encoding: 196 196 132
Width: 694
GlyphClass: 2
Flags: W
LayerCount: 2
Fore
SplineSet
250 -3 m 1,0,1
 187 0 187 0 126.5 0 c 128,-1,2
 66 0 66 0 3 -3 c 1,3,-1
 0 26 l 1,4,5
 46 35 46 35 65 45.5 c 128,-1,6
 84 56 84 56 90 75 c 2,7,-1
 289 684 l 1,8,-1
 376 694 l 1,9,-1
 609 69 l 2,10,11
 616 52 616 52 632.5 43.5 c 128,-1,12
 649 35 649 35 694 26 c 1,13,-1
 691 -3 l 1,14,15
 628 0 628 0 554 0 c 128,-1,16
 480 0 480 0 417 -3 c 1,17,-1
 414 26 l 1,18,19
 485 40 485 40 496 52 c 1,20,21
 502 57 502 57 502 62.5 c 128,-1,22
 502 68 502 68 447 242 c 1,23,-1
 221 242 l 1,24,-1
 167 64 l 1,25,26
 167 51 167 51 187 43 c 128,-1,27
 207 35 207 35 253 26 c 1,28,-1
 250 -3 l 1,0,1
330 590 m 1,29,-1
 326 590 l 1,30,31
 319 566 319 566 308.5 532.5 c 128,-1,32
 298 499 298 499 277 428.5 c 128,-1,33
 256 358 256 358 235 288 c 1,34,-1
 431 288 l 1,35,-1
 330 590 l 1,29,-1
437 792 m 128,-1,37
 415 792 415 792 400 807.5 c 128,-1,38
 385 823 385 823 385 845.5 c 128,-1,39
 385 868 385 868 400 883 c 128,-1,40
 415 898 415 898 437 898 c 128,-1,41
 459 898 459 898 474 883 c 128,-1,42
 489 868 489 868 489 845.5 c 128,-1,43
 489 823 489 823 474 807.5 c 128,-1,36
 459 792 459 792 437 792 c 128,-1,37
257 792 m 128,-1,45
 235 792 235 792 220 807.5 c 128,-1,46
 205 823 205 823 205 845.5 c 128,-1,47
 205 868 205 868 220 883 c 128,-1,48
 235 898 235 898 257 898 c 128,-1,49
 279 898 279 898 294 883 c 128,-1,50
 309 868 309 868 309 845.5 c 128,-1,51
 309 823 309 823 294 807.5 c 128,-1,44
 279 792 279 792 257 792 c 128,-1,45
EndSplineSet
Position2: "'cpsp' Capital Spacing in Latin lookup 2 subtable" dx=7 dy=0 dh=35 dv=0
EndChar

StartChar: Aring
Encoding: 197 197 133
Width: 694
GlyphClass: 2
Flags: W
LayerCount: 2
Fore
SplineSet
250 -3 m 1,0,1
 187 0 187 0 126.5 0 c 128,-1,2
 66 0 66 0 3 -3 c 1,3,-1
 0 26 l 1,4,5
 46 35 46 35 65 45.5 c 128,-1,6
 84 56 84 56 90 75 c 2,7,-1
 289 684 l 1,8,-1
 376 694 l 1,9,-1
 609 69 l 2,10,11
 616 52 616 52 632.5 43.5 c 128,-1,12
 649 35 649 35 694 26 c 1,13,-1
 691 -3 l 1,14,15
 628 0 628 0 554 0 c 128,-1,16
 480 0 480 0 417 -3 c 1,17,-1
 414 26 l 1,18,19
 485 40 485 40 496 52 c 1,20,21
 502 57 502 57 502 62.5 c 128,-1,22
 502 68 502 68 447 242 c 1,23,-1
 221 242 l 1,24,-1
 167 64 l 1,25,26
 167 51 167 51 187 43 c 128,-1,27
 207 35 207 35 253 26 c 1,28,-1
 250 -3 l 1,0,1
330 590 m 1,29,-1
 326 590 l 1,30,31
 319 566 319 566 308.5 532.5 c 128,-1,32
 298 499 298 499 277 428.5 c 128,-1,33
 256 358 256 358 235 288 c 1,34,-1
 431 288 l 1,35,-1
 330 590 l 1,29,-1
346 774 m 0,36,37
 395 774 395 774 395 848.5 c 128,-1,38
 395 923 395 923 344.5 923 c 128,-1,39
 294 923 294 923 294 853 c 0,40,41
 294 820 294 820 307 797 c 128,-1,42
 320 774 320 774 346 774 c 0,36,37
272.5 774.5 m 128,-1,44
 242 805 242 805 242 848.5 c 128,-1,45
 242 892 242 892 273 922.5 c 128,-1,46
 304 953 304 953 347 953 c 128,-1,47
 390 953 390 953 420.5 922.5 c 128,-1,48
 451 892 451 892 451 848 c 128,-1,49
 451 804 451 804 420.5 774 c 128,-1,50
 390 744 390 744 346.5 744 c 128,-1,43
 303 744 303 744 272.5 774.5 c 128,-1,44
EndSplineSet
Position2: "'cpsp' Capital Spacing in Latin lookup 2 subtable" dx=7 dy=0 dh=35 dv=0
EndChar

StartChar: AE
Encoding: 198 198 134
Width: 967
GlyphClass: 2
Flags: W
LayerCount: 2
Fore
SplineSet
275 327 m 1,0,1
 168 80 168 80 168 65.5 c 128,-1,2
 168 51 168 51 188 43 c 128,-1,3
 208 35 208 35 254 26 c 1,4,-1
 251 -3 l 1,5,6
 188 0 188 0 127 0 c 128,-1,7
 66 0 66 0 3 -3 c 1,8,-1
 0 26 l 1,9,10
 44 35 44 35 63 45.5 c 128,-1,11
 82 56 82 56 90 75 c 2,12,-1
 371 685 l 1,13,-1
 588 685 l 2,14,15
 746 685 746 685 890 691 c 1,16,-1
 890 680 l 2,17,18
 890 601 890 601 902 529 c 1,19,-1
 875 517 l 1,20,21
 860 568 860 568 847 585.5 c 128,-1,22
 834 603 834 603 826.5 612 c 128,-1,23
 819 621 819 621 802.5 627.5 c 128,-1,24
 786 634 786 634 774.5 637 c 128,-1,25
 763 640 763 640 738 642 c 0,26,27
 695 644 695 644 641.5 644 c 128,-1,28
 588 644 588 644 585 621 c 0,29,30
 575 556 575 556 574 367 c 1,31,32
 701 367 701 367 726.5 373 c 128,-1,33
 752 379 752 379 759.5 395 c 128,-1,34
 767 411 767 411 777 463 c 1,35,-1
 812 459 l 1,36,37
 804 401 804 401 804 348 c 128,-1,38
 804 295 804 295 812 236 c 1,39,-1
 777 231 l 1,40,41
 767 283 767 283 759.5 299 c 128,-1,42
 752 315 752 315 726.5 321 c 128,-1,43
 701 327 701 327 574 327 c 1,44,45
 574 152 574 152 582 87 c 1,46,-1
 585 68 l 1,47,48
 594 36 594 36 686 36 c 0,49,50
 732 36 732 36 759.5 39.5 c 128,-1,51
 787 43 787 43 818 56 c 0,52,53
 876 79 876 79 906 171 c 1,54,-1
 933 159 l 1,55,56
 915 104 915 104 909 0 c 1,57,-1
 509 0 l 2,58,59
 452 0 452 0 389 -3 c 1,60,-1
 386 26 l 1,61,62
 437 36 437 36 455 44 c 128,-1,63
 473 52 473 52 475 69 c 0,64,65
 483 125 483 125 484 327 c 1,66,-1
 275 327 l 1,0,1
418 649 m 1,67,-1
 293 367 l 1,68,-1
 484 367 l 1,69,-1
 479 619 l 1,70,71
 477 637 477 637 464.5 643 c 128,-1,72
 452 649 452 649 418 649 c 1,67,-1
EndSplineSet
Position2: "'cpsp' Capital Spacing in Latin lookup 2 subtable" dx=7 dy=0 dh=35 dv=0
EndChar

StartChar: Ccedilla
Encoding: 199 199 135
Width: 700
GlyphClass: 2
Flags: W
LayerCount: 2
Fore
SplineSet
407 37 m 0,0,1
 501 37 501 37 561 75.5 c 128,-1,2
 621 114 621 114 641 180 c 1,3,-1
 668 168 l 1,4,5
 657 132 657 132 645 34 c 1,6,7
 522 -12 522 -12 404 -12 c 0,8,9
 387 -12 387 -12 359 -10 c 1,10,11
 357 -15 357 -15 357 -27 c 128,-1,12
 357 -39 357 -39 396 -69.5 c 128,-1,13
 435 -100 435 -100 435 -125 c 0,14,15
 435 -160 435 -160 395 -195 c 128,-1,16
 355 -230 355 -230 277 -259 c 1,17,18
 261 -246 261 -246 261 -222.5 c 128,-1,19
 261 -199 261 -199 284 -180 c 1,20,21
 381 -175 381 -175 381 -145 c 0,22,23
 381 -130 381 -130 347.5 -104 c 128,-1,24
 314 -78 314 -78 314 -54.5 c 128,-1,25
 314 -31 314 -31 330 -7 c 1,26,27
 198 12 198 12 123 99.5 c 128,-1,28
 48 187 48 187 48 336 c 128,-1,29
 48 485 48 485 143 589.5 c 128,-1,30
 238 694 238 694 403 694 c 0,31,32
 449 694 449 694 506 686.5 c 128,-1,33
 563 679 563 679 584 679 c 128,-1,34
 605 679 605 679 629 685 c 1,35,-1
 629 670 l 2,36,37
 629 597 629 597 641 529 c 1,38,-1
 614 517 l 1,39,40
 574 648 574 648 402 648 c 0,41,42
 302 648 302 648 230 577 c 0,43,44
 194 542 194 542 173.5 484 c 128,-1,45
 153 426 153 426 153 359.5 c 128,-1,46
 153 293 153 293 167 239 c 128,-1,47
 181 185 181 185 210 139 c 128,-1,48
 239 93 239 93 290 65 c 128,-1,49
 341 37 341 37 407 37 c 0,0,1
EndSplineSet
Position2: "'cpsp' Capital Spacing in Latin lookup 2 subtable" dx=7 dy=0 dh=35 dv=0
EndChar

StartChar: Egrave
Encoding: 200 200 136
Width: 608
GlyphClass: 2
Flags: W
LayerCount: 2
Fore
SplineSet
215 327 m 1,0,1
 215 138 215 138 223 87 c 2,2,-1
 226 68 l 1,3,4
 235 36 235 36 327 36 c 0,5,6
 373 36 373 36 400.5 39.5 c 128,-1,7
 428 43 428 43 459 56 c 0,8,9
 517 79 517 79 547 171 c 1,10,-1
 574 159 l 1,11,12
 556 104 556 104 550 0 c 1,13,-1
 150 0 l 2,14,15
 93 0 93 0 30 -3 c 1,16,-1
 27 26 l 1,17,18
 78 36 78 36 96 44 c 128,-1,19
 114 52 114 52 116 69 c 0,20,21
 125 127 125 127 125 282 c 0,22,23
 125 534 125 534 119 596 c 2,24,-1
 117 616 l 2,25,26
 115 634 115 634 99 641.5 c 128,-1,27
 83 649 83 649 35 659 c 1,28,-1
 38 688 l 1,29,30
 101 685 101 685 275 685 c 128,-1,31
 449 685 449 685 531 691 c 1,32,-1
 531 676 l 2,33,34
 531 597 531 597 543 529 c 1,35,-1
 516 517 l 1,36,37
 490 599 490 599 454 621 c 128,-1,38
 418 643 418 643 318 643 c 0,39,40
 273 643 273 643 251 639 c 128,-1,41
 229 635 229 635 226 621 c 0,42,43
 216 556 216 556 215 367 c 1,44,45
 342 367 342 367 367.5 373 c 128,-1,46
 393 379 393 379 400.5 395 c 128,-1,47
 408 411 408 411 418 463 c 1,48,-1
 453 459 l 1,49,50
 445 401 445 401 445 348 c 128,-1,51
 445 295 445 295 453 236 c 1,52,-1
 418 231 l 1,53,54
 408 283 408 283 400.5 299 c 128,-1,55
 393 315 393 315 367.5 321 c 128,-1,56
 342 327 342 327 215 327 c 1,0,1
341 747 m 1,57,-1
 168 909 l 1,58,59
 170 926 170 926 191 938.5 c 128,-1,60
 212 951 212 951 237 951 c 1,61,-1
 371 752 l 1,62,-1
 341 747 l 1,57,-1
EndSplineSet
Position2: "'cpsp' Capital Spacing in Latin lookup 2 subtable" dx=7 dy=0 dh=35 dv=0
EndChar

StartChar: Eacute
Encoding: 201 201 137
Width: 608
GlyphClass: 2
Flags: W
LayerCount: 2
Fore
SplineSet
215 327 m 1,0,1
 215 138 215 138 223 87 c 2,2,-1
 226 68 l 1,3,4
 235 36 235 36 327 36 c 0,5,6
 373 36 373 36 400.5 39.5 c 128,-1,7
 428 43 428 43 459 56 c 0,8,9
 517 79 517 79 547 171 c 1,10,-1
 574 159 l 1,11,12
 556 104 556 104 550 0 c 1,13,-1
 150 0 l 2,14,15
 93 0 93 0 30 -3 c 1,16,-1
 27 26 l 1,17,18
 78 36 78 36 96 44 c 128,-1,19
 114 52 114 52 116 69 c 0,20,21
 125 127 125 127 125 282 c 0,22,23
 125 534 125 534 119 596 c 2,24,-1
 117 616 l 2,25,26
 115 634 115 634 99 641.5 c 128,-1,27
 83 649 83 649 35 659 c 1,28,-1
 38 688 l 1,29,30
 101 685 101 685 275 685 c 128,-1,31
 449 685 449 685 531 691 c 1,32,-1
 531 676 l 2,33,34
 531 597 531 597 543 529 c 1,35,-1
 516 517 l 1,36,37
 490 599 490 599 454 621 c 128,-1,38
 418 643 418 643 318 643 c 0,39,40
 273 643 273 643 251 639 c 128,-1,41
 229 635 229 635 226 621 c 0,42,43
 216 556 216 556 215 367 c 1,44,45
 342 367 342 367 367.5 373 c 128,-1,46
 393 379 393 379 400.5 395 c 128,-1,47
 408 411 408 411 418 463 c 1,48,-1
 453 459 l 1,49,50
 445 401 445 401 445 348 c 128,-1,51
 445 295 445 295 453 236 c 1,52,-1
 418 231 l 1,53,54
 408 283 408 283 400.5 299 c 128,-1,55
 393 315 393 315 367.5 321 c 128,-1,56
 342 327 342 327 215 327 c 1,0,1
435 909 m 1,57,-1
 262 747 l 1,58,-1
 232 752 l 1,59,-1
 366 951 l 1,60,61
 391 951 391 951 412 938.5 c 128,-1,62
 433 926 433 926 435 909 c 1,57,-1
EndSplineSet
Position2: "'cpsp' Capital Spacing in Latin lookup 2 subtable" dx=7 dy=0 dh=35 dv=0
EndChar

StartChar: Ecircumflex
Encoding: 202 202 138
Width: 608
GlyphClass: 2
Flags: W
LayerCount: 2
Fore
SplineSet
215 327 m 1,0,1
 215 138 215 138 223 87 c 2,2,-1
 226 68 l 1,3,4
 235 36 235 36 327 36 c 0,5,6
 373 36 373 36 400.5 39.5 c 128,-1,7
 428 43 428 43 459 56 c 0,8,9
 517 79 517 79 547 171 c 1,10,-1
 574 159 l 1,11,12
 556 104 556 104 550 0 c 1,13,-1
 150 0 l 2,14,15
 93 0 93 0 30 -3 c 1,16,-1
 27 26 l 1,17,18
 78 36 78 36 96 44 c 128,-1,19
 114 52 114 52 116 69 c 0,20,21
 125 127 125 127 125 282 c 0,22,23
 125 534 125 534 119 596 c 2,24,-1
 117 616 l 2,25,26
 115 634 115 634 99 641.5 c 128,-1,27
 83 649 83 649 35 659 c 1,28,-1
 38 688 l 1,29,30
 101 685 101 685 275 685 c 128,-1,31
 449 685 449 685 531 691 c 1,32,-1
 531 676 l 2,33,34
 531 597 531 597 543 529 c 1,35,-1
 516 517 l 1,36,37
 490 599 490 599 454 621 c 128,-1,38
 418 643 418 643 318 643 c 0,39,40
 273 643 273 643 251 639 c 128,-1,41
 229 635 229 635 226 621 c 0,42,43
 216 556 216 556 215 367 c 1,44,45
 342 367 342 367 367.5 373 c 128,-1,46
 393 379 393 379 400.5 395 c 128,-1,47
 408 411 408 411 418 463 c 1,48,-1
 453 459 l 1,49,50
 445 401 445 401 445 348 c 128,-1,51
 445 295 445 295 453 236 c 1,52,-1
 418 231 l 1,53,54
 408 283 408 283 400.5 299 c 128,-1,55
 393 315 393 315 367.5 321 c 128,-1,56
 342 327 342 327 215 327 c 1,0,1
285 947 m 1,57,58
 291 950 291 950 302.5 950 c 128,-1,59
 314 950 314 950 322 946 c 1,60,-1
 416 752 l 1,61,-1
 386 747 l 1,62,-1
 303 851 l 1,63,-1
 221 747 l 1,64,-1
 191 752 l 1,65,-1
 285 947 l 1,57,58
EndSplineSet
Position2: "'cpsp' Capital Spacing in Latin lookup 2 subtable" dx=7 dy=0 dh=35 dv=0
EndChar

StartChar: Edieresis
Encoding: 203 203 139
Width: 608
GlyphClass: 2
Flags: W
LayerCount: 2
Fore
SplineSet
215 327 m 1,0,1
 215 138 215 138 223 87 c 2,2,-1
 226 68 l 1,3,4
 235 36 235 36 327 36 c 0,5,6
 373 36 373 36 400.5 39.5 c 128,-1,7
 428 43 428 43 459 56 c 0,8,9
 517 79 517 79 547 171 c 1,10,-1
 574 159 l 1,11,12
 556 104 556 104 550 0 c 1,13,-1
 150 0 l 2,14,15
 93 0 93 0 30 -3 c 1,16,-1
 27 26 l 1,17,18
 78 36 78 36 96 44 c 128,-1,19
 114 52 114 52 116 69 c 0,20,21
 125 127 125 127 125 282 c 0,22,23
 125 534 125 534 119 596 c 2,24,-1
 117 616 l 2,25,26
 115 634 115 634 99 641.5 c 128,-1,27
 83 649 83 649 35 659 c 1,28,-1
 38 688 l 1,29,30
 101 685 101 685 275 685 c 128,-1,31
 449 685 449 685 531 691 c 1,32,-1
 531 676 l 2,33,34
 531 597 531 597 543 529 c 1,35,-1
 516 517 l 1,36,37
 490 599 490 599 454 621 c 128,-1,38
 418 643 418 643 318 643 c 0,39,40
 273 643 273 643 251 639 c 128,-1,41
 229 635 229 635 226 621 c 0,42,43
 216 556 216 556 215 367 c 1,44,45
 342 367 342 367 367.5 373 c 128,-1,46
 393 379 393 379 400.5 395 c 128,-1,47
 408 411 408 411 418 463 c 1,48,-1
 453 459 l 1,49,50
 445 401 445 401 445 348 c 128,-1,51
 445 295 445 295 453 236 c 1,52,-1
 418 231 l 1,53,54
 408 283 408 283 400.5 299 c 128,-1,55
 393 315 393 315 367.5 321 c 128,-1,56
 342 327 342 327 215 327 c 1,0,1
394 792 m 128,-1,58
 372 792 372 792 357 807.5 c 128,-1,59
 342 823 342 823 342 845.5 c 128,-1,60
 342 868 342 868 357 883 c 128,-1,61
 372 898 372 898 394 898 c 128,-1,62
 416 898 416 898 431 883 c 128,-1,63
 446 868 446 868 446 845.5 c 128,-1,64
 446 823 446 823 431 807.5 c 128,-1,57
 416 792 416 792 394 792 c 128,-1,58
214 792 m 128,-1,66
 192 792 192 792 177 807.5 c 128,-1,67
 162 823 162 823 162 845.5 c 128,-1,68
 162 868 162 868 177 883 c 128,-1,69
 192 898 192 898 214 898 c 128,-1,70
 236 898 236 898 251 883 c 128,-1,71
 266 868 266 868 266 845.5 c 128,-1,72
 266 823 266 823 251 807.5 c 128,-1,65
 236 792 236 792 214 792 c 128,-1,66
EndSplineSet
Position2: "'cpsp' Capital Spacing in Latin lookup 2 subtable" dx=7 dy=0 dh=35 dv=0
EndChar

StartChar: Igrave
Encoding: 204 204 140
Width: 342
GlyphClass: 2
Flags: W
LayerCount: 2
Fore
SplineSet
224 616 m 0,0,1
 216 557 216 557 216 402 c 0,2,3
 216 151 216 151 222 90 c 2,4,-1
 224 69 l 2,5,6
 226 51 226 51 243 43.5 c 128,-1,7
 260 36 260 36 309 26 c 1,8,-1
 306 -3 l 1,9,10
 243 0 243 0 169 0 c 128,-1,11
 95 0 95 0 32 -3 c 1,12,-1
 29 26 l 1,13,14
 80 36 80 36 98 44 c 128,-1,15
 116 52 116 52 118 69 c 0,16,17
 126 128 126 128 126 283 c 0,18,19
 126 534 126 534 120 596 c 2,20,-1
 118 616 l 2,21,22
 116 634 116 634 100 641.5 c 128,-1,23
 84 649 84 649 36 659 c 1,24,-1
 39 688 l 1,25,26
 102 685 102 685 171 685 c 128,-1,27
 240 685 240 685 303 688 c 1,28,-1
 306 659 l 1,29,30
 258 649 258 649 242 641.5 c 128,-1,31
 226 634 226 634 224 616 c 0,0,1
218 747 m 1,32,-1
 45 909 l 1,33,34
 47 926 47 926 68 938.5 c 128,-1,35
 89 951 89 951 114 951 c 1,36,-1
 248 752 l 1,37,-1
 218 747 l 1,32,-1
EndSplineSet
Position2: "'cpsp' Capital Spacing in Latin lookup 2 subtable" dx=7 dy=0 dh=35 dv=0
EndChar

StartChar: Iacute
Encoding: 205 205 141
Width: 342
GlyphClass: 2
Flags: W
LayerCount: 2
Fore
SplineSet
224 616 m 0,0,1
 216 557 216 557 216 402 c 0,2,3
 216 151 216 151 222 90 c 2,4,-1
 224 69 l 2,5,6
 226 51 226 51 243 43.5 c 128,-1,7
 260 36 260 36 309 26 c 1,8,-1
 306 -3 l 1,9,10
 243 0 243 0 169 0 c 128,-1,11
 95 0 95 0 32 -3 c 1,12,-1
 29 26 l 1,13,14
 80 36 80 36 98 44 c 128,-1,15
 116 52 116 52 118 69 c 0,16,17
 126 128 126 128 126 283 c 0,18,19
 126 534 126 534 120 596 c 2,20,-1
 118 616 l 2,21,22
 116 634 116 634 100 641.5 c 128,-1,23
 84 649 84 649 36 659 c 1,24,-1
 39 688 l 1,25,26
 102 685 102 685 171 685 c 128,-1,27
 240 685 240 685 303 688 c 1,28,-1
 306 659 l 1,29,30
 258 649 258 649 242 641.5 c 128,-1,31
 226 634 226 634 224 616 c 0,0,1
302 909 m 1,32,-1
 129 747 l 1,33,-1
 99 752 l 1,34,-1
 233 951 l 1,35,36
 258 951 258 951 279 938.5 c 128,-1,37
 300 926 300 926 302 909 c 1,32,-1
EndSplineSet
Position2: "'cpsp' Capital Spacing in Latin lookup 2 subtable" dx=7 dy=0 dh=35 dv=0
EndChar

StartChar: Icircumflex
Encoding: 206 206 142
Width: 342
GlyphClass: 2
Flags: W
LayerCount: 2
Fore
SplineSet
224 616 m 0,0,1
 216 557 216 557 216 402 c 0,2,3
 216 151 216 151 222 90 c 2,4,-1
 224 69 l 2,5,6
 226 51 226 51 243 43.5 c 128,-1,7
 260 36 260 36 309 26 c 1,8,-1
 306 -3 l 1,9,10
 243 0 243 0 169 0 c 128,-1,11
 95 0 95 0 32 -3 c 1,12,-1
 29 26 l 1,13,14
 80 36 80 36 98 44 c 128,-1,15
 116 52 116 52 118 69 c 0,16,17
 126 128 126 128 126 283 c 0,18,19
 126 534 126 534 120 596 c 2,20,-1
 118 616 l 2,21,22
 116 634 116 634 100 641.5 c 128,-1,23
 84 649 84 649 36 659 c 1,24,-1
 39 688 l 1,25,26
 102 685 102 685 171 685 c 128,-1,27
 240 685 240 685 303 688 c 1,28,-1
 306 659 l 1,29,30
 258 649 258 649 242 641.5 c 128,-1,31
 226 634 226 634 224 616 c 0,0,1
152 947 m 1,32,33
 158 950 158 950 169.5 950 c 128,-1,34
 181 950 181 950 189 946 c 1,35,-1
 283 752 l 1,36,-1
 253 747 l 1,37,-1
 170 851 l 1,38,-1
 88 747 l 1,39,-1
 58 752 l 1,40,-1
 152 947 l 1,32,33
EndSplineSet
Position2: "'cpsp' Capital Spacing in Latin lookup 2 subtable" dx=7 dy=0 dh=35 dv=0
EndChar

StartChar: Idieresis
Encoding: 207 207 143
Width: 342
GlyphClass: 2
Flags: W
LayerCount: 2
Fore
SplineSet
224 616 m 0,0,1
 216 557 216 557 216 402 c 0,2,3
 216 151 216 151 222 90 c 2,4,-1
 224 69 l 2,5,6
 226 51 226 51 243 43.5 c 128,-1,7
 260 36 260 36 309 26 c 1,8,-1
 306 -3 l 1,9,10
 243 0 243 0 169 0 c 128,-1,11
 95 0 95 0 32 -3 c 1,12,-1
 29 26 l 1,13,14
 80 36 80 36 98 44 c 128,-1,15
 116 52 116 52 118 69 c 0,16,17
 126 128 126 128 126 283 c 0,18,19
 126 534 126 534 120 596 c 2,20,-1
 118 616 l 2,21,22
 116 634 116 634 100 641.5 c 128,-1,23
 84 649 84 649 36 659 c 1,24,-1
 39 688 l 1,25,26
 102 685 102 685 171 685 c 128,-1,27
 240 685 240 685 303 688 c 1,28,-1
 306 659 l 1,29,30
 258 649 258 649 242 641.5 c 128,-1,31
 226 634 226 634 224 616 c 0,0,1
261 792 m 128,-1,33
 239 792 239 792 224 807.5 c 128,-1,34
 209 823 209 823 209 845.5 c 128,-1,35
 209 868 209 868 224 883 c 128,-1,36
 239 898 239 898 261 898 c 128,-1,37
 283 898 283 898 298 883 c 128,-1,38
 313 868 313 868 313 845.5 c 128,-1,39
 313 823 313 823 298 807.5 c 128,-1,32
 283 792 283 792 261 792 c 128,-1,33
81 792 m 128,-1,41
 59 792 59 792 44 807.5 c 128,-1,42
 29 823 29 823 29 845.5 c 128,-1,43
 29 868 29 868 44 883 c 128,-1,44
 59 898 59 898 81 898 c 128,-1,45
 103 898 103 898 118 883 c 128,-1,46
 133 868 133 868 133 845.5 c 128,-1,47
 133 823 133 823 118 807.5 c 128,-1,40
 103 792 103 792 81 792 c 128,-1,41
EndSplineSet
Position2: "'cpsp' Capital Spacing in Latin lookup 2 subtable" dx=7 dy=0 dh=35 dv=0
EndChar

StartChar: Eth
Encoding: 208 208 144
Width: 769
GlyphClass: 2
Flags: W
LayerCount: 2
Fore
SplineSet
173 685 m 2,0,-1
 351 685 l 2,1,2
 467 685 467 685 558 640 c 1,3,4
 659 588 659 588 698 488 c 0,5,6
 720 433 720 433 720 365 c 0,7,8
 720 204 720 204 621 102 c 128,-1,9
 522 0 522 0 334 0 c 2,10,-1
 173 0 l 2,11,12
 95 0 95 0 32 -3 c 1,13,-1
 29 26 l 1,14,15
 80 36 80 36 98 44 c 128,-1,16
 116 52 116 52 118 69 c 0,17,18
 125 124 125 124 126 316 c 1,19,-1
 38 316 l 1,20,-1
 38 369 l 1,21,-1
 126 369 l 1,22,23
 126 540 126 540 120 597 c 2,24,-1
 118 616 l 2,25,26
 116 634 116 634 100 641.5 c 128,-1,27
 84 649 84 649 36 659 c 1,28,-1
 39 688 l 1,29,30
 102 685 102 685 173 685 c 2,0,-1
227 60 m 1,31,32
 281 48 281 48 342 48 c 128,-1,33
 403 48 403 48 458 72.5 c 128,-1,34
 513 97 513 97 542 130.5 c 128,-1,35
 571 164 571 164 588 210 c 1,36,37
 615 278 615 278 615 350 c 0,38,39
 615 643 615 643 289 643 c 0,40,41
 253 643 253 643 241.5 639 c 128,-1,42
 230 635 230 635 227 622 c 0,43,44
 217 561 217 561 216 369 c 1,45,-1
 420 369 l 1,46,-1
 420 315 l 1,47,-1
 216 315 l 1,48,49
 216 152 216 152 224 81 c 1,50,-1
 227 60 l 1,31,32
EndSplineSet
Position2: "'cpsp' Capital Spacing in Latin lookup 2 subtable" dx=7 dy=0 dh=35 dv=0
EndChar

StartChar: Ntilde
Encoding: 209 209 145
Width: 785
GlyphClass: 2
Flags: W
LayerCount: 2
Fore
SplineSet
608 132 m 1,0,1
 610 188 610 188 610 313 c 0,2,3
 610 542 610 542 604 596 c 1,4,-1
 601 616 l 2,5,6
 598 640 598 640 548 650 c 0,7,8
 536 653 536 653 507 659 c 1,9,-1
 510 688 l 1,10,11
 573 685 573 685 634.5 685 c 128,-1,12
 696 685 696 685 759 688 c 1,13,-1
 762 659 l 1,14,15
 714 649 714 649 698 641.5 c 128,-1,16
 682 634 682 634 680 616 c 1,17,18
 670 557 670 557 670 402 c 0,19,20
 670 165 670 165 678 38 c 1,21,-1
 681 0 l 1,22,-1
 601 -9 l 1,23,-1
 195 537 l 1,24,-1
 190 537 l 1,25,26
 186 449 186 449 186 348 c 0,27,28
 186 159 186 159 194 90 c 1,29,-1
 197 69 l 2,30,31
 200 45 200 45 250 34 c 0,32,33
 262 32 262 32 291 26 c 1,34,-1
 288 -3 l 1,35,36
 225 0 225 0 156 0 c 128,-1,37
 87 0 87 0 24 -3 c 1,38,-1
 21 26 l 1,39,40
 74 36 74 36 95 44 c 128,-1,41
 116 52 116 52 118 69 c 0,42,43
 126 127 126 127 126 282 c 0,44,45
 126 534 126 534 120 596 c 2,46,-1
 118 616 l 2,47,48
 116 634 116 634 100 641.5 c 128,-1,49
 84 649 84 649 36 659 c 1,50,-1
 39 688 l 1,51,52
 102 685 102 685 188 685 c 1,53,-1
 603 132 l 1,54,-1
 608 132 l 1,0,1
466 784 m 0,55,56
 443 784 443 784 394 803.5 c 128,-1,57
 345 823 345 823 321 823 c 0,58,59
 281 823 281 823 254 785 c 1,60,-1
 228 793 l 1,61,62
 258 894 258 894 318 894 c 0,63,64
 340 894 340 894 389.5 874.5 c 128,-1,65
 439 855 439 855 463 855 c 0,66,67
 502 855 502 855 530 893 c 1,68,-1
 556 885 l 1,69,70
 525 784 525 784 466 784 c 0,55,56
EndSplineSet
Position2: "'cpsp' Capital Spacing in Latin lookup 2 subtable" dx=7 dy=0 dh=35 dv=0
EndChar

StartChar: Ograve
Encoding: 210 210 146
Width: 786
GlyphClass: 2
Flags: W
LayerCount: 2
Fore
SplineSet
398 650 m 0,0,1
 340 650 340 650 295 627 c 128,-1,2
 250 604 250 604 224 570 c 128,-1,3
 198 536 198 536 182 493 c 0,4,5
 154 421 154 421 154 353 c 128,-1,6
 154 285 154 285 166 230.5 c 128,-1,7
 178 176 178 176 204 130 c 128,-1,8
 230 84 230 84 277 58 c 128,-1,9
 324 32 324 32 382.5 32 c 128,-1,10
 441 32 441 32 484 52 c 128,-1,11
 527 72 527 72 553.5 102.5 c 128,-1,12
 580 133 580 133 598 172 c 0,13,14
 630 241 630 241 632 312 c 1,15,16
 632 650 632 650 398 650 c 0,0,1
653 104 m 0,17,18
 611 49 611 49 539 16.5 c 128,-1,19
 467 -16 467 -16 372 -16 c 0,20,21
 208 -16 208 -16 128.5 72.5 c 128,-1,22
 49 161 49 161 49 314 c 0,23,24
 49 468 49 468 133 578 c 0,25,26
 175 633 175 633 247 665.5 c 128,-1,27
 319 698 319 698 414 698 c 0,28,29
 578 698 578 698 657.5 610 c 128,-1,30
 737 522 737 522 737 369 c 128,-1,31
 737 216 737 216 653 104 c 0,17,18
423 747 m 1,32,-1
 250 909 l 1,33,34
 252 926 252 926 273 938.5 c 128,-1,35
 294 951 294 951 319 951 c 1,36,-1
 453 752 l 1,37,-1
 423 747 l 1,32,-1
EndSplineSet
Position2: "'cpsp' Capital Spacing in Latin lookup 2 subtable" dx=7 dy=0 dh=35 dv=0
EndChar

StartChar: Oacute
Encoding: 211 211 147
Width: 786
GlyphClass: 2
Flags: W
LayerCount: 2
Fore
SplineSet
398 650 m 0,0,1
 340 650 340 650 295 627 c 128,-1,2
 250 604 250 604 224 570 c 128,-1,3
 198 536 198 536 182 493 c 0,4,5
 154 421 154 421 154 353 c 128,-1,6
 154 285 154 285 166 230.5 c 128,-1,7
 178 176 178 176 204 130 c 128,-1,8
 230 84 230 84 277 58 c 128,-1,9
 324 32 324 32 382.5 32 c 128,-1,10
 441 32 441 32 484 52 c 128,-1,11
 527 72 527 72 553.5 102.5 c 128,-1,12
 580 133 580 133 598 172 c 0,13,14
 630 241 630 241 632 312 c 1,15,16
 632 650 632 650 398 650 c 0,0,1
653 104 m 0,17,18
 611 49 611 49 539 16.5 c 128,-1,19
 467 -16 467 -16 372 -16 c 0,20,21
 208 -16 208 -16 128.5 72.5 c 128,-1,22
 49 161 49 161 49 314 c 0,23,24
 49 468 49 468 133 578 c 0,25,26
 175 633 175 633 247 665.5 c 128,-1,27
 319 698 319 698 414 698 c 0,28,29
 578 698 578 698 657.5 610 c 128,-1,30
 737 522 737 522 737 369 c 128,-1,31
 737 216 737 216 653 104 c 0,17,18
543 909 m 1,32,-1
 370 747 l 1,33,-1
 340 752 l 1,34,-1
 474 951 l 1,35,36
 499 951 499 951 520 938.5 c 128,-1,37
 541 926 541 926 543 909 c 1,32,-1
EndSplineSet
Position2: "'cpsp' Capital Spacing in Latin lookup 2 subtable" dx=7 dy=0 dh=35 dv=0
EndChar

StartChar: Ocircumflex
Encoding: 212 212 148
Width: 786
GlyphClass: 2
Flags: W
LayerCount: 2
Fore
SplineSet
398 650 m 0,0,1
 340 650 340 650 295 627 c 128,-1,2
 250 604 250 604 224 570 c 128,-1,3
 198 536 198 536 182 493 c 0,4,5
 154 421 154 421 154 353 c 128,-1,6
 154 285 154 285 166 230.5 c 128,-1,7
 178 176 178 176 204 130 c 128,-1,8
 230 84 230 84 277 58 c 128,-1,9
 324 32 324 32 382.5 32 c 128,-1,10
 441 32 441 32 484 52 c 128,-1,11
 527 72 527 72 553.5 102.5 c 128,-1,12
 580 133 580 133 598 172 c 0,13,14
 630 241 630 241 632 312 c 1,15,16
 632 650 632 650 398 650 c 0,0,1
653 104 m 0,17,18
 611 49 611 49 539 16.5 c 128,-1,19
 467 -16 467 -16 372 -16 c 0,20,21
 208 -16 208 -16 128.5 72.5 c 128,-1,22
 49 161 49 161 49 314 c 0,23,24
 49 468 49 468 133 578 c 0,25,26
 175 633 175 633 247 665.5 c 128,-1,27
 319 698 319 698 414 698 c 0,28,29
 578 698 578 698 657.5 610 c 128,-1,30
 737 522 737 522 737 369 c 128,-1,31
 737 216 737 216 653 104 c 0,17,18
374 947 m 1,32,33
 380 950 380 950 391.5 950 c 128,-1,34
 403 950 403 950 411 946 c 1,35,-1
 505 752 l 1,36,-1
 475 747 l 1,37,-1
 392 851 l 1,38,-1
 310 747 l 1,39,-1
 280 752 l 1,40,-1
 374 947 l 1,32,33
EndSplineSet
Position2: "'cpsp' Capital Spacing in Latin lookup 2 subtable" dx=7 dy=0 dh=35 dv=0
EndChar

StartChar: Otilde
Encoding: 213 213 149
Width: 786
GlyphClass: 2
Flags: W
LayerCount: 2
Fore
SplineSet
398 650 m 0,0,1
 340 650 340 650 295 627 c 128,-1,2
 250 604 250 604 224 570 c 128,-1,3
 198 536 198 536 182 493 c 0,4,5
 154 421 154 421 154 353 c 128,-1,6
 154 285 154 285 166 230.5 c 128,-1,7
 178 176 178 176 204 130 c 128,-1,8
 230 84 230 84 277 58 c 128,-1,9
 324 32 324 32 382.5 32 c 128,-1,10
 441 32 441 32 484 52 c 128,-1,11
 527 72 527 72 553.5 102.5 c 128,-1,12
 580 133 580 133 598 172 c 0,13,14
 630 241 630 241 632 312 c 1,15,16
 632 650 632 650 398 650 c 0,0,1
653 104 m 0,17,18
 611 49 611 49 539 16.5 c 128,-1,19
 467 -16 467 -16 372 -16 c 0,20,21
 208 -16 208 -16 128.5 72.5 c 128,-1,22
 49 161 49 161 49 314 c 0,23,24
 49 468 49 468 133 578 c 0,25,26
 175 633 175 633 247 665.5 c 128,-1,27
 319 698 319 698 414 698 c 0,28,29
 578 698 578 698 657.5 610 c 128,-1,30
 737 522 737 522 737 369 c 128,-1,31
 737 216 737 216 653 104 c 0,17,18
467 784 m 0,32,33
 444 784 444 784 395 803.5 c 128,-1,34
 346 823 346 823 322 823 c 0,35,36
 282 823 282 823 255 785 c 1,37,-1
 229 793 l 1,38,39
 259 894 259 894 319 894 c 0,40,41
 341 894 341 894 390.5 874.5 c 128,-1,42
 440 855 440 855 464 855 c 0,43,44
 502 855 502 855 531 893 c 1,45,-1
 557 885 l 1,46,47
 526 784 526 784 467 784 c 0,32,33
EndSplineSet
Position2: "'cpsp' Capital Spacing in Latin lookup 2 subtable" dx=7 dy=0 dh=35 dv=0
EndChar

StartChar: Odieresis
Encoding: 214 214 150
Width: 786
GlyphClass: 2
Flags: W
LayerCount: 2
Fore
SplineSet
398 650 m 0,0,1
 340 650 340 650 295 627 c 128,-1,2
 250 604 250 604 224 570 c 128,-1,3
 198 536 198 536 182 493 c 0,4,5
 154 421 154 421 154 353 c 128,-1,6
 154 285 154 285 166 230.5 c 128,-1,7
 178 176 178 176 204 130 c 128,-1,8
 230 84 230 84 277 58 c 128,-1,9
 324 32 324 32 382.5 32 c 128,-1,10
 441 32 441 32 484 52 c 128,-1,11
 527 72 527 72 553.5 102.5 c 128,-1,12
 580 133 580 133 598 172 c 0,13,14
 630 241 630 241 632 312 c 1,15,16
 632 650 632 650 398 650 c 0,0,1
653 104 m 0,17,18
 611 49 611 49 539 16.5 c 128,-1,19
 467 -16 467 -16 372 -16 c 0,20,21
 208 -16 208 -16 128.5 72.5 c 128,-1,22
 49 161 49 161 49 314 c 0,23,24
 49 468 49 468 133 578 c 0,25,26
 175 633 175 633 247 665.5 c 128,-1,27
 319 698 319 698 414 698 c 0,28,29
 578 698 578 698 657.5 610 c 128,-1,30
 737 522 737 522 737 369 c 128,-1,31
 737 216 737 216 653 104 c 0,17,18
483 792 m 128,-1,33
 461 792 461 792 446 807.5 c 128,-1,34
 431 823 431 823 431 845.5 c 128,-1,35
 431 868 431 868 446 883 c 128,-1,36
 461 898 461 898 483 898 c 128,-1,37
 505 898 505 898 520 883 c 128,-1,38
 535 868 535 868 535 845.5 c 128,-1,39
 535 823 535 823 520 807.5 c 128,-1,32
 505 792 505 792 483 792 c 128,-1,33
303 792 m 128,-1,41
 281 792 281 792 266 807.5 c 128,-1,42
 251 823 251 823 251 845.5 c 128,-1,43
 251 868 251 868 266 883 c 128,-1,44
 281 898 281 898 303 898 c 128,-1,45
 325 898 325 898 340 883 c 128,-1,46
 355 868 355 868 355 845.5 c 128,-1,47
 355 823 355 823 340 807.5 c 128,-1,40
 325 792 325 792 303 792 c 128,-1,41
EndSplineSet
Position2: "'cpsp' Capital Spacing in Latin lookup 2 subtable" dx=7 dy=0 dh=35 dv=0
EndChar

StartChar: multiply
Encoding: 215 215 151
Width: 523
GlyphClass: 2
Flags: W
LayerCount: 2
Fore
SplineSet
443 529 m 1,0,-1
 487 486 l 1,1,-1
 305 304 l 1,2,-1
 486 123 l 1,3,-1
 443 79 l 1,4,-1
 261 260 l 1,5,-1
 81 80 l 1,6,-1
 37 123 l 1,7,-1
 218 304 l 1,8,-1
 37 485 l 1,9,-1
 80 529 l 1,10,-1
 261 347 l 1,11,-1
 443 529 l 1,0,-1
EndSplineSet
EndChar

StartChar: Oslash
Encoding: 216 216 152
Width: 786
GlyphClass: 2
Flags: W
LayerCount: 2
Fore
SplineSet
414 698 m 1,0,-1
 439 697 l 1,1,-1
 453 761 l 1,2,-1
 518 761 l 1,3,-1
 502 690 l 1,4,5
 621 667 621 667 679 583 c 128,-1,6
 737 499 737 499 737 369 c 0,7,8
 737 216 737 216 653 104 c 0,9,10
 611 49 611 49 539 16.5 c 128,-1,11
 467 -16 467 -16 372 -16 c 0,12,13
 355 -16 355 -16 347 -15 c 1,14,-1
 333 -80 l 1,15,-1
 268 -80 l 1,16,-1
 284 -8 l 1,17,18
 165 15 165 15 107 99 c 128,-1,19
 49 183 49 183 49 314 c 0,20,21
 49 468 49 468 133 578 c 0,22,23
 175 633 175 633 247 665.5 c 128,-1,24
 319 698 319 698 414 698 c 1,0,-1
154 350 m 0,25,26
 154 107 154 107 296 48 c 1,27,-1
 428 648 l 1,28,29
 408 650 408 650 398 650 c 0,30,31
 340 650 340 650 295 627 c 128,-1,32
 250 604 250 604 224 570 c 128,-1,33
 198 536 198 536 182 493 c 0,34,35
 154 421 154 421 154 350 c 0,25,26
388 32 m 0,36,37
 441 32 441 32 484 52 c 128,-1,38
 527 72 527 72 553.5 102.5 c 128,-1,39
 580 133 580 133 598 172 c 0,40,41
 630 241 630 241 632 312 c 1,42,43
 632 575 632 575 490 633 c 1,44,-1
 358 33 l 1,45,46
 367 32 367 32 388 32 c 0,36,37
EndSplineSet
Position2: "'cpsp' Capital Spacing in Latin lookup 2 subtable" dx=7 dy=0 dh=35 dv=0
EndChar

StartChar: Ugrave
Encoding: 217 217 153
Width: 760
GlyphClass: 2
Flags: W
LayerCount: 2
Fore
SplineSet
493 688 m 1,0,1
 556 685 556 685 617.5 685 c 128,-1,2
 679 685 679 685 742 688 c 1,3,-1
 745 659 l 1,4,5
 696 649 696 649 680 641.5 c 128,-1,6
 664 634 664 634 663 616 c 0,7,8
 658 508 658 508 652 247 c 0,9,10
 649 130 649 130 584 59 c 128,-1,11
 519 -12 519 -12 380 -12 c 0,12,13
 313 -12 313 -12 266.5 -1.5 c 128,-1,14
 220 9 220 9 184 36 c 0,15,16
 113 89 113 89 111 236 c 0,17,18
 107 487 107 487 104 616 c 0,19,20
 104 634 104 634 87.5 641.5 c 128,-1,21
 71 649 71 649 22 659 c 1,22,-1
 25 688 l 1,23,24
 88 685 88 685 157 685 c 128,-1,25
 226 685 226 685 289 688 c 1,26,-1
 292 659 l 1,27,28
 244 649 244 649 228 641.5 c 128,-1,29
 212 634 212 634 210 616 c 0,30,31
 201 551 201 551 201 416.5 c 128,-1,32
 201 282 201 282 201.5 260 c 128,-1,33
 202 238 202 238 204 206.5 c 128,-1,34
 206 175 206 175 211 158 c 128,-1,35
 216 141 216 141 224.5 119.5 c 128,-1,36
 233 98 233 98 246 87 c 128,-1,37
 259 76 259 76 278 65 c 0,38,39
 311 45 311 45 378.5 45 c 128,-1,40
 446 45 446 45 489 65.5 c 128,-1,41
 532 86 532 86 554 127.5 c 128,-1,42
 576 169 576 169 584 218 c 128,-1,43
 592 267 592 267 592 351 c 0,44,45
 592 530 592 530 586 594 c 2,46,-1
 584 616 l 2,47,48
 581 640 581 640 531 650 c 0,49,50
 519 653 519 653 490 659 c 1,51,-1
 493 688 l 1,0,1
415 747 m 1,52,-1
 242 909 l 1,53,54
 244 926 244 926 265 938.5 c 128,-1,55
 286 951 286 951 311 951 c 1,56,-1
 445 752 l 1,57,-1
 415 747 l 1,52,-1
EndSplineSet
Position2: "'cpsp' Capital Spacing in Latin lookup 2 subtable" dx=7 dy=0 dh=35 dv=0
EndChar

StartChar: Uacute
Encoding: 218 218 154
Width: 760
GlyphClass: 2
Flags: W
LayerCount: 2
Fore
SplineSet
493 688 m 1,0,1
 556 685 556 685 617.5 685 c 128,-1,2
 679 685 679 685 742 688 c 1,3,-1
 745 659 l 1,4,5
 696 649 696 649 680 641.5 c 128,-1,6
 664 634 664 634 663 616 c 0,7,8
 658 508 658 508 652 247 c 0,9,10
 649 130 649 130 584 59 c 128,-1,11
 519 -12 519 -12 380 -12 c 0,12,13
 313 -12 313 -12 266.5 -1.5 c 128,-1,14
 220 9 220 9 184 36 c 0,15,16
 113 89 113 89 111 236 c 0,17,18
 107 487 107 487 104 616 c 0,19,20
 104 634 104 634 87.5 641.5 c 128,-1,21
 71 649 71 649 22 659 c 1,22,-1
 25 688 l 1,23,24
 88 685 88 685 157 685 c 128,-1,25
 226 685 226 685 289 688 c 1,26,-1
 292 659 l 1,27,28
 244 649 244 649 228 641.5 c 128,-1,29
 212 634 212 634 210 616 c 0,30,31
 201 551 201 551 201 416.5 c 128,-1,32
 201 282 201 282 201.5 260 c 128,-1,33
 202 238 202 238 204 206.5 c 128,-1,34
 206 175 206 175 211 158 c 128,-1,35
 216 141 216 141 224.5 119.5 c 128,-1,36
 233 98 233 98 246 87 c 128,-1,37
 259 76 259 76 278 65 c 0,38,39
 311 45 311 45 378.5 45 c 128,-1,40
 446 45 446 45 489 65.5 c 128,-1,41
 532 86 532 86 554 127.5 c 128,-1,42
 576 169 576 169 584 218 c 128,-1,43
 592 267 592 267 592 351 c 0,44,45
 592 530 592 530 586 594 c 2,46,-1
 584 616 l 2,47,48
 581 640 581 640 531 650 c 0,49,50
 519 653 519 653 490 659 c 1,51,-1
 493 688 l 1,0,1
566 909 m 1,52,-1
 393 747 l 1,53,-1
 363 752 l 1,54,-1
 497 951 l 1,55,56
 522 951 522 951 543 938.5 c 128,-1,57
 564 926 564 926 566 909 c 1,52,-1
EndSplineSet
Position2: "'cpsp' Capital Spacing in Latin lookup 2 subtable" dx=7 dy=0 dh=35 dv=0
EndChar

StartChar: Ucircumflex
Encoding: 219 219 155
Width: 760
GlyphClass: 2
Flags: W
LayerCount: 2
Fore
SplineSet
493 688 m 1,0,1
 556 685 556 685 617.5 685 c 128,-1,2
 679 685 679 685 742 688 c 1,3,-1
 745 659 l 1,4,5
 696 649 696 649 680 641.5 c 128,-1,6
 664 634 664 634 663 616 c 0,7,8
 658 508 658 508 652 247 c 0,9,10
 649 130 649 130 584 59 c 128,-1,11
 519 -12 519 -12 380 -12 c 0,12,13
 313 -12 313 -12 266.5 -1.5 c 128,-1,14
 220 9 220 9 184 36 c 0,15,16
 113 89 113 89 111 236 c 0,17,18
 107 487 107 487 104 616 c 0,19,20
 104 634 104 634 87.5 641.5 c 128,-1,21
 71 649 71 649 22 659 c 1,22,-1
 25 688 l 1,23,24
 88 685 88 685 157 685 c 128,-1,25
 226 685 226 685 289 688 c 1,26,-1
 292 659 l 1,27,28
 244 649 244 649 228 641.5 c 128,-1,29
 212 634 212 634 210 616 c 0,30,31
 201 551 201 551 201 416.5 c 128,-1,32
 201 282 201 282 201.5 260 c 128,-1,33
 202 238 202 238 204 206.5 c 128,-1,34
 206 175 206 175 211 158 c 128,-1,35
 216 141 216 141 224.5 119.5 c 128,-1,36
 233 98 233 98 246 87 c 128,-1,37
 259 76 259 76 278 65 c 0,38,39
 311 45 311 45 378.5 45 c 128,-1,40
 446 45 446 45 489 65.5 c 128,-1,41
 532 86 532 86 554 127.5 c 128,-1,42
 576 169 576 169 584 218 c 128,-1,43
 592 267 592 267 592 351 c 0,44,45
 592 530 592 530 586 594 c 2,46,-1
 584 616 l 2,47,48
 581 640 581 640 531 650 c 0,49,50
 519 653 519 653 490 659 c 1,51,-1
 493 688 l 1,0,1
376 947 m 1,52,53
 382 950 382 950 393.5 950 c 128,-1,54
 405 950 405 950 413 946 c 1,55,-1
 507 752 l 1,56,-1
 477 747 l 1,57,-1
 394 851 l 1,58,-1
 312 747 l 1,59,-1
 282 752 l 1,60,-1
 376 947 l 1,52,53
EndSplineSet
Position2: "'cpsp' Capital Spacing in Latin lookup 2 subtable" dx=7 dy=0 dh=35 dv=0
EndChar

StartChar: Udieresis
Encoding: 220 220 156
Width: 760
GlyphClass: 2
Flags: W
LayerCount: 2
Fore
SplineSet
493 688 m 1,0,1
 556 685 556 685 617.5 685 c 128,-1,2
 679 685 679 685 742 688 c 1,3,-1
 745 659 l 1,4,5
 696 649 696 649 680 641.5 c 128,-1,6
 664 634 664 634 663 616 c 0,7,8
 658 508 658 508 652 247 c 0,9,10
 649 130 649 130 584 59 c 128,-1,11
 519 -12 519 -12 380 -12 c 0,12,13
 313 -12 313 -12 266.5 -1.5 c 128,-1,14
 220 9 220 9 184 36 c 0,15,16
 113 89 113 89 111 236 c 0,17,18
 107 487 107 487 104 616 c 0,19,20
 104 634 104 634 87.5 641.5 c 128,-1,21
 71 649 71 649 22 659 c 1,22,-1
 25 688 l 1,23,24
 88 685 88 685 157 685 c 128,-1,25
 226 685 226 685 289 688 c 1,26,-1
 292 659 l 1,27,28
 244 649 244 649 228 641.5 c 128,-1,29
 212 634 212 634 210 616 c 0,30,31
 201 551 201 551 201 416.5 c 128,-1,32
 201 282 201 282 201.5 260 c 128,-1,33
 202 238 202 238 204 206.5 c 128,-1,34
 206 175 206 175 211 158 c 128,-1,35
 216 141 216 141 224.5 119.5 c 128,-1,36
 233 98 233 98 246 87 c 128,-1,37
 259 76 259 76 278 65 c 0,38,39
 311 45 311 45 378.5 45 c 128,-1,40
 446 45 446 45 489 65.5 c 128,-1,41
 532 86 532 86 554 127.5 c 128,-1,42
 576 169 576 169 584 218 c 128,-1,43
 592 267 592 267 592 351 c 0,44,45
 592 530 592 530 586 594 c 2,46,-1
 584 616 l 2,47,48
 581 640 581 640 531 650 c 0,49,50
 519 653 519 653 490 659 c 1,51,-1
 493 688 l 1,0,1
499 792 m 128,-1,53
 477 792 477 792 462 807.5 c 128,-1,54
 447 823 447 823 447 845.5 c 128,-1,55
 447 868 447 868 462 883 c 128,-1,56
 477 898 477 898 499 898 c 128,-1,57
 521 898 521 898 536 883 c 128,-1,58
 551 868 551 868 551 845.5 c 128,-1,59
 551 823 551 823 536 807.5 c 128,-1,52
 521 792 521 792 499 792 c 128,-1,53
319 792 m 128,-1,61
 297 792 297 792 282 807.5 c 128,-1,62
 267 823 267 823 267 845.5 c 128,-1,63
 267 868 267 868 282 883 c 128,-1,64
 297 898 297 898 319 898 c 128,-1,65
 341 898 341 898 356 883 c 128,-1,66
 371 868 371 868 371 845.5 c 128,-1,67
 371 823 371 823 356 807.5 c 128,-1,60
 341 792 341 792 319 792 c 128,-1,61
EndSplineSet
Position2: "'cpsp' Capital Spacing in Latin lookup 2 subtable" dx=7 dy=0 dh=35 dv=0
EndChar

StartChar: Yacute
Encoding: 221 221 157
Width: 641
GlyphClass: 2
Flags: W
LayerCount: 2
Fore
SplineSet
482 623 m 0,0,1
 482 641 482 641 395 659 c 1,2,-1
 398 688 l 1,3,4
 461 685 461 685 521.5 685 c 128,-1,5
 582 685 582 685 645 688 c 1,6,-1
 648 659 l 1,7,8
 604 650 604 650 585 639.5 c 128,-1,9
 566 629 566 629 558 610 c 1,10,-1
 365 269 l 1,11,12
 365 133 365 133 371 85 c 2,13,-1
 373 69 l 2,14,15
 375 51 375 51 392 43.5 c 128,-1,16
 409 36 409 36 458 26 c 1,17,-1
 455 -3 l 1,18,19
 392 0 392 0 318 0 c 128,-1,20
 244 0 244 0 181 -3 c 1,21,-1
 178 26 l 1,22,23
 229 36 229 36 247 44 c 128,-1,24
 265 52 265 52 267 69 c 0,25,26
 273 113 273 113 274 262 c 1,27,-1
 81 616 l 2,28,29
 72 633 72 633 55.5 641.5 c 128,-1,30
 39 650 39 650 -4 659 c 1,31,-1
 -1 688 l 1,32,33
 62 685 62 685 136 685 c 128,-1,34
 210 685 210 685 273 688 c 1,35,-1
 276 659 l 1,36,37
 187 642 187 642 187 623 c 0,38,39
 187 621 187 621 189 615 c 2,40,-1
 337 324 l 1,41,-1
 480 616 l 2,42,43
 482 620 482 620 482 623 c 0,0,1
511 909 m 1,44,-1
 338 747 l 1,45,-1
 308 752 l 1,46,-1
 442 951 l 1,47,48
 467 951 467 951 488 938.5 c 128,-1,49
 509 926 509 926 511 909 c 1,44,-1
EndSplineSet
Position2: "'cpsp' Capital Spacing in Latin lookup 2 subtable" dx=7 dy=0 dh=35 dv=0
EndChar

StartChar: Thorn
Encoding: 222 222 158
Width: 576
GlyphClass: 2
Flags: W
LayerCount: 2
Fore
SplineSet
306 -3 m 1,0,1
 243 0 243 0 169 0 c 128,-1,2
 95 0 95 0 32 -3 c 1,3,-1
 29 26 l 1,4,5
 80 36 80 36 98 44 c 128,-1,6
 116 52 116 52 118 69 c 0,7,8
 126 128 126 128 126 283 c 0,9,10
 126 534 126 534 120 596 c 2,11,-1
 118 616 l 2,12,13
 116 634 116 634 100 641.5 c 128,-1,14
 84 649 84 649 36 659 c 1,15,-1
 39 688 l 1,16,17
 102 685 102 685 171 685 c 128,-1,18
 240 685 240 685 303 688 c 1,19,-1
 306 659 l 1,20,21
 258 649 258 649 242 641.5 c 128,-1,22
 226 634 226 634 224 620 c 128,-1,23
 222 606 222 606 221 580 c 1,24,-1
 325 580 l 2,25,26
 435 580 435 580 493 527 c 128,-1,27
 551 474 551 474 551 392.5 c 128,-1,28
 551 311 551 311 479 243 c 128,-1,29
 407 175 407 175 287 175 c 0,30,31
 248 175 248 175 218 180 c 1,32,-1
 224 69 l 1,33,34
 226 51 226 51 243 43.5 c 128,-1,35
 260 36 260 36 309 26 c 1,36,-1
 306 -3 l 1,0,1
271 217 m 0,37,38
 357 217 357 217 406 258 c 128,-1,39
 455 299 455 299 455 382.5 c 128,-1,40
 455 466 455 466 413 502 c 128,-1,41
 371 538 371 538 287 538 c 0,42,43
 250 538 250 538 240 533 c 128,-1,44
 230 528 230 528 226 504 c 0,45,46
 216 452 216 452 216 220 c 1,47,48
 244 217 244 217 271 217 c 0,37,38
EndSplineSet
Position2: "'cpsp' Capital Spacing in Latin lookup 2 subtable" dx=7 dy=0 dh=35 dv=0
EndChar

StartChar: germandbls
Encoding: 223 223 159
Width: 576
GlyphClass: 2
Flags: W
LayerCount: 2
Fore
SplineSet
386 31 m 0,0,1
 453 31 453 31 453 97 c 0,2,3
 453 136 453 136 381 186 c 0,4,5
 351 206 351 206 321 229 c 128,-1,6
 291 252 291 252 270 285 c 128,-1,7
 249 318 249 318 249 354 c 128,-1,8
 249 390 249 390 262 415.5 c 128,-1,9
 275 441 275 441 295 456 c 128,-1,10
 315 471 315 471 337.5 487.5 c 128,-1,11
 360 504 360 504 380 518 c 0,12,13
 426 550 426 550 426 608 c 0,14,15
 426 642 426 642 397 664 c 128,-1,16
 368 686 368 686 325 686 c 0,17,18
 180 686 180 686 180 456 c 0,19,20
 180 251 180 251 185 127 c 128,-1,21
 190 3 190 3 190 0 c 1,22,23
 84 0 84 0 23 -3 c 1,24,-1
 26 26 l 1,25,26
 46 28 46 28 69.5 34.5 c 128,-1,27
 93 41 93 41 94 48 c 1,28,29
 102 48 102 48 102 406 c 1,30,-1
 33 405 l 1,31,-1
 30 416 l 1,32,-1
 53 455 l 1,33,34
 67 453 67 453 101 451 c 1,35,36
 101 612 101 612 210 690 c 0,37,38
 267 730 267 730 347 730 c 0,39,40
 396 730 396 730 430.5 718 c 128,-1,41
 465 706 465 706 481 687 c 0,42,43
 510 653 510 653 510 617.5 c 128,-1,44
 510 582 510 582 491 553.5 c 128,-1,45
 472 525 472 525 445 508 c 128,-1,46
 418 491 418 491 392 474 c 0,47,48
 327 433 327 433 327 369 c 0,49,50
 327 319 327 319 401 272 c 0,51,52
 432 253 432 253 462 232 c 0,53,54
 536 180 536 180 536 117 c 0,55,56
 536 65 536 65 497 28 c 128,-1,57
 458 -9 458 -9 376 -9 c 128,-1,58
 294 -9 294 -9 231 16 c 1,59,-1
 244 87 l 1,60,61
 267 66 267 66 309 48.5 c 128,-1,62
 351 31 351 31 386 31 c 0,0,1
EndSplineSet
Position2: "'cpsp' Capital Spacing in Latin lookup 2 subtable" dx=7 dy=0 dh=35 dv=0
EndChar

StartChar: agrave
Encoding: 224 224 160
Width: 457
GlyphClass: 2
Flags: W
LayerCount: 2
Fore
SplineSet
166 179 m 128,-1,1
 123 150 123 150 123 116 c 128,-1,2
 123 82 123 82 140.5 66.5 c 128,-1,3
 158 51 158 51 197 51 c 128,-1,4
 236 51 236 51 291 84 c 1,5,-1
 291 210 l 1,6,0
 209 208 209 208 166 179 c 128,-1,1
364 -9 m 0,7,8
 304 -9 304 -9 294 56 c 1,9,10
 206 -9 206 -9 142 -9 c 0,11,12
 99 -9 99 -9 69 17.5 c 128,-1,13
 39 44 39 44 39 100 c 128,-1,14
 39 156 39 156 98.5 201 c 128,-1,15
 158 246 158 246 291 255 c 1,16,-1
 291 348 l 2,17,18
 291 376 291 376 270.5 391 c 128,-1,19
 250 406 250 406 213 406 c 128,-1,20
 176 406 176 406 154 385.5 c 128,-1,21
 132 365 132 365 132 333 c 0,22,23
 132 321 132 321 135 306 c 1,24,-1
 113 296 l 1,25,26
 93 307 93 307 75.5 326 c 128,-1,27
 58 345 58 345 58 353.5 c 128,-1,28
 58 362 58 362 71.5 378.5 c 128,-1,29
 85 395 85 395 108 414 c 128,-1,30
 131 433 131 433 169.5 446.5 c 128,-1,31
 208 460 208 460 256 460 c 128,-1,32
 304 460 304 460 334 436.5 c 128,-1,33
 364 413 364 413 364 351.5 c 128,-1,34
 364 290 364 290 370 92 c 0,35,36
 371 44 371 44 406 44 c 0,37,38
 421 44 421 44 437 52 c 1,39,-1
 447 26 l 1,40,41
 409 -9 409 -9 364 -9 c 0,7,8
261 518 m 1,42,-1
 88 680 l 1,43,44
 90 697 90 697 111 709.5 c 128,-1,45
 132 722 132 722 157 722 c 1,46,-1
 291 523 l 1,47,-1
 261 518 l 1,42,-1
EndSplineSet
EndChar

StartChar: aacute
Encoding: 225 225 161
Width: 457
GlyphClass: 2
Flags: W
LayerCount: 2
Fore
SplineSet
166 179 m 128,-1,1
 123 150 123 150 123 116 c 128,-1,2
 123 82 123 82 140.5 66.5 c 128,-1,3
 158 51 158 51 197 51 c 128,-1,4
 236 51 236 51 291 84 c 1,5,-1
 291 210 l 1,6,0
 209 208 209 208 166 179 c 128,-1,1
364 -9 m 0,7,8
 304 -9 304 -9 294 56 c 1,9,10
 206 -9 206 -9 142 -9 c 0,11,12
 99 -9 99 -9 69 17.5 c 128,-1,13
 39 44 39 44 39 100 c 128,-1,14
 39 156 39 156 98.5 201 c 128,-1,15
 158 246 158 246 291 255 c 1,16,-1
 291 348 l 2,17,18
 291 376 291 376 270.5 391 c 128,-1,19
 250 406 250 406 213 406 c 128,-1,20
 176 406 176 406 154 385.5 c 128,-1,21
 132 365 132 365 132 333 c 0,22,23
 132 321 132 321 135 306 c 1,24,-1
 113 296 l 1,25,26
 93 307 93 307 75.5 326 c 128,-1,27
 58 345 58 345 58 353.5 c 128,-1,28
 58 362 58 362 71.5 378.5 c 128,-1,29
 85 395 85 395 108 414 c 128,-1,30
 131 433 131 433 169.5 446.5 c 128,-1,31
 208 460 208 460 256 460 c 128,-1,32
 304 460 304 460 334 436.5 c 128,-1,33
 364 413 364 413 364 351.5 c 128,-1,34
 364 290 364 290 370 92 c 0,35,36
 371 44 371 44 406 44 c 0,37,38
 421 44 421 44 437 52 c 1,39,-1
 447 26 l 1,40,41
 409 -9 409 -9 364 -9 c 0,7,8
375 680 m 1,42,-1
 202 518 l 1,43,-1
 172 523 l 1,44,-1
 306 722 l 1,45,46
 331 722 331 722 352 709.5 c 128,-1,47
 373 697 373 697 375 680 c 1,42,-1
EndSplineSet
EndChar

StartChar: acircumflex
Encoding: 226 226 162
Width: 457
GlyphClass: 2
Flags: W
LayerCount: 2
Fore
SplineSet
166 179 m 128,-1,1
 123 150 123 150 123 116 c 128,-1,2
 123 82 123 82 140.5 66.5 c 128,-1,3
 158 51 158 51 197 51 c 128,-1,4
 236 51 236 51 291 84 c 1,5,-1
 291 210 l 1,6,0
 209 208 209 208 166 179 c 128,-1,1
364 -9 m 0,7,8
 304 -9 304 -9 294 56 c 1,9,10
 206 -9 206 -9 142 -9 c 0,11,12
 99 -9 99 -9 69 17.5 c 128,-1,13
 39 44 39 44 39 100 c 128,-1,14
 39 156 39 156 98.5 201 c 128,-1,15
 158 246 158 246 291 255 c 1,16,-1
 291 348 l 2,17,18
 291 376 291 376 270.5 391 c 128,-1,19
 250 406 250 406 213 406 c 128,-1,20
 176 406 176 406 154 385.5 c 128,-1,21
 132 365 132 365 132 333 c 0,22,23
 132 321 132 321 135 306 c 1,24,-1
 113 296 l 1,25,26
 93 307 93 307 75.5 326 c 128,-1,27
 58 345 58 345 58 353.5 c 128,-1,28
 58 362 58 362 71.5 378.5 c 128,-1,29
 85 395 85 395 108 414 c 128,-1,30
 131 433 131 433 169.5 446.5 c 128,-1,31
 208 460 208 460 256 460 c 128,-1,32
 304 460 304 460 334 436.5 c 128,-1,33
 364 413 364 413 364 351.5 c 128,-1,34
 364 290 364 290 370 92 c 0,35,36
 371 44 371 44 406 44 c 0,37,38
 421 44 421 44 437 52 c 1,39,-1
 447 26 l 1,40,41
 409 -9 409 -9 364 -9 c 0,7,8
209 718 m 1,42,43
 215 721 215 721 226.5 721 c 128,-1,44
 238 721 238 721 246 717 c 1,45,-1
 340 523 l 1,46,-1
 310 518 l 1,47,-1
 227 622 l 1,48,-1
 145 518 l 1,49,-1
 115 523 l 1,50,-1
 209 718 l 1,42,43
EndSplineSet
EndChar

StartChar: atilde
Encoding: 227 227 163
Width: 457
GlyphClass: 2
Flags: W
LayerCount: 2
Fore
SplineSet
166 179 m 128,-1,1
 123 150 123 150 123 116 c 128,-1,2
 123 82 123 82 140.5 66.5 c 128,-1,3
 158 51 158 51 197 51 c 128,-1,4
 236 51 236 51 291 84 c 1,5,-1
 291 210 l 1,6,0
 209 208 209 208 166 179 c 128,-1,1
364 -9 m 0,7,8
 304 -9 304 -9 294 56 c 1,9,10
 206 -9 206 -9 142 -9 c 0,11,12
 99 -9 99 -9 69 17.5 c 128,-1,13
 39 44 39 44 39 100 c 128,-1,14
 39 156 39 156 98.5 201 c 128,-1,15
 158 246 158 246 291 255 c 1,16,-1
 291 348 l 2,17,18
 291 376 291 376 270.5 391 c 128,-1,19
 250 406 250 406 213 406 c 128,-1,20
 176 406 176 406 154 385.5 c 128,-1,21
 132 365 132 365 132 333 c 0,22,23
 132 321 132 321 135 306 c 1,24,-1
 113 296 l 1,25,26
 93 307 93 307 75.5 326 c 128,-1,27
 58 345 58 345 58 353.5 c 128,-1,28
 58 362 58 362 71.5 378.5 c 128,-1,29
 85 395 85 395 108 414 c 128,-1,30
 131 433 131 433 169.5 446.5 c 128,-1,31
 208 460 208 460 256 460 c 128,-1,32
 304 460 304 460 334 436.5 c 128,-1,33
 364 413 364 413 364 351.5 c 128,-1,34
 364 290 364 290 370 92 c 0,35,36
 371 44 371 44 406 44 c 0,37,38
 421 44 421 44 437 52 c 1,39,-1
 447 26 l 1,40,41
 409 -9 409 -9 364 -9 c 0,7,8
306 555 m 0,42,43
 283 555 283 555 234 574.5 c 128,-1,44
 185 594 185 594 161 594 c 0,45,46
 121 594 121 594 94 556 c 1,47,-1
 68 564 l 1,48,49
 98 665 98 665 158 665 c 0,50,51
 180 665 180 665 229.5 645.5 c 128,-1,52
 279 626 279 626 303 626 c 0,53,54
 342 626 342 626 370 664 c 1,55,-1
 396 656 l 1,56,57
 365 555 365 555 306 555 c 0,42,43
EndSplineSet
EndChar

StartChar: adieresis
Encoding: 228 228 164
Width: 457
GlyphClass: 2
Flags: W
LayerCount: 2
Fore
SplineSet
166 179 m 128,-1,1
 123 150 123 150 123 116 c 128,-1,2
 123 82 123 82 140.5 66.5 c 128,-1,3
 158 51 158 51 197 51 c 128,-1,4
 236 51 236 51 291 84 c 1,5,-1
 291 210 l 1,6,0
 209 208 209 208 166 179 c 128,-1,1
364 -9 m 0,7,8
 304 -9 304 -9 294 56 c 1,9,10
 206 -9 206 -9 142 -9 c 0,11,12
 99 -9 99 -9 69 17.5 c 128,-1,13
 39 44 39 44 39 100 c 128,-1,14
 39 156 39 156 98.5 201 c 128,-1,15
 158 246 158 246 291 255 c 1,16,-1
 291 348 l 2,17,18
 291 376 291 376 270.5 391 c 128,-1,19
 250 406 250 406 213 406 c 128,-1,20
 176 406 176 406 154 385.5 c 128,-1,21
 132 365 132 365 132 333 c 0,22,23
 132 321 132 321 135 306 c 1,24,-1
 113 296 l 1,25,26
 93 307 93 307 75.5 326 c 128,-1,27
 58 345 58 345 58 353.5 c 128,-1,28
 58 362 58 362 71.5 378.5 c 128,-1,29
 85 395 85 395 108 414 c 128,-1,30
 131 433 131 433 169.5 446.5 c 128,-1,31
 208 460 208 460 256 460 c 128,-1,32
 304 460 304 460 334 436.5 c 128,-1,33
 364 413 364 413 364 351.5 c 128,-1,34
 364 290 364 290 370 92 c 0,35,36
 371 44 371 44 406 44 c 0,37,38
 421 44 421 44 437 52 c 1,39,-1
 447 26 l 1,40,41
 409 -9 409 -9 364 -9 c 0,7,8
317 563 m 128,-1,43
 295 563 295 563 280 578.5 c 128,-1,44
 265 594 265 594 265 616.5 c 128,-1,45
 265 639 265 639 280 654 c 128,-1,46
 295 669 295 669 317 669 c 128,-1,47
 339 669 339 669 354 654 c 128,-1,48
 369 639 369 639 369 616.5 c 128,-1,49
 369 594 369 594 354 578.5 c 128,-1,42
 339 563 339 563 317 563 c 128,-1,43
137 563 m 128,-1,51
 115 563 115 563 100 578.5 c 128,-1,52
 85 594 85 594 85 616.5 c 128,-1,53
 85 639 85 639 100 654 c 128,-1,54
 115 669 115 669 137 669 c 128,-1,55
 159 669 159 669 174 654 c 128,-1,56
 189 639 189 639 189 616.5 c 128,-1,57
 189 594 189 594 174 578.5 c 128,-1,50
 159 563 159 563 137 563 c 128,-1,51
EndSplineSet
EndChar

StartChar: aring
Encoding: 229 229 165
Width: 457
GlyphClass: 2
Flags: W
LayerCount: 2
Fore
SplineSet
166 179 m 128,-1,1
 123 150 123 150 123 116 c 128,-1,2
 123 82 123 82 140.5 66.5 c 128,-1,3
 158 51 158 51 197 51 c 128,-1,4
 236 51 236 51 291 84 c 1,5,-1
 291 210 l 1,6,0
 209 208 209 208 166 179 c 128,-1,1
364 -9 m 0,7,8
 304 -9 304 -9 294 56 c 1,9,10
 206 -9 206 -9 142 -9 c 0,11,12
 99 -9 99 -9 69 17.5 c 128,-1,13
 39 44 39 44 39 100 c 128,-1,14
 39 156 39 156 98.5 201 c 128,-1,15
 158 246 158 246 291 255 c 1,16,-1
 291 348 l 2,17,18
 291 376 291 376 270.5 391 c 128,-1,19
 250 406 250 406 213 406 c 128,-1,20
 176 406 176 406 154 385.5 c 128,-1,21
 132 365 132 365 132 333 c 0,22,23
 132 321 132 321 135 306 c 1,24,-1
 113 296 l 1,25,26
 93 307 93 307 75.5 326 c 128,-1,27
 58 345 58 345 58 353.5 c 128,-1,28
 58 362 58 362 71.5 378.5 c 128,-1,29
 85 395 85 395 108 414 c 128,-1,30
 131 433 131 433 169.5 446.5 c 128,-1,31
 208 460 208 460 256 460 c 128,-1,32
 304 460 304 460 334 436.5 c 128,-1,33
 364 413 364 413 364 351.5 c 128,-1,34
 364 290 364 290 370 92 c 0,35,36
 371 44 371 44 406 44 c 0,37,38
 421 44 421 44 437 52 c 1,39,-1
 447 26 l 1,40,41
 409 -9 409 -9 364 -9 c 0,7,8
227 545 m 0,42,43
 276 545 276 545 276 619.5 c 128,-1,44
 276 694 276 694 225.5 694 c 128,-1,45
 175 694 175 694 175 624 c 0,46,47
 175 591 175 591 188 568 c 128,-1,48
 201 545 201 545 227 545 c 0,42,43
123 619 m 128,-1,50
 123 662 123 662 153.5 693 c 128,-1,51
 184 724 184 724 227.5 724 c 128,-1,52
 271 724 271 724 301.5 693.5 c 128,-1,53
 332 663 332 663 332 619.5 c 128,-1,54
 332 576 332 576 302 545.5 c 128,-1,55
 272 515 272 515 228 515 c 128,-1,56
 184 515 184 515 153.5 545.5 c 128,-1,49
 123 576 123 576 123 619 c 128,-1,50
EndSplineSet
EndChar

StartChar: ae
Encoding: 230 230 166
Width: 700
GlyphClass: 2
Flags: W
LayerCount: 2
Fore
SplineSet
579 316 m 0,0,1
 579 362 579 362 552.5 386.5 c 128,-1,2
 526 411 526 411 495 411 c 0,3,4
 446 411 446 411 414 371.5 c 128,-1,5
 382 332 382 332 371 262 c 1,6,7
 526 279 526 279 576 287 c 1,8,9
 579 302 579 302 579 316 c 0,0,1
284 351 m 2,10,11
 284 379 284 379 263.5 393 c 128,-1,12
 243 407 243 407 205.5 407 c 128,-1,13
 168 407 168 407 146.5 387.5 c 128,-1,14
 125 368 125 368 125 334 c 0,15,16
 125 321 125 321 128 306 c 1,17,-1
 106 296 l 1,18,19
 86 307 86 307 68.5 326 c 128,-1,20
 51 345 51 345 51 353.5 c 128,-1,21
 51 362 51 362 64.5 378.5 c 128,-1,22
 78 395 78 395 101 414 c 128,-1,23
 124 433 124 433 162.5 446.5 c 128,-1,24
 201 460 201 460 245.5 460 c 128,-1,25
 290 460 290 460 317 448.5 c 128,-1,26
 344 437 344 437 354 403 c 1,27,28
 418 460 418 460 517 460 c 0,29,30
 577 460 577 460 623 415.5 c 128,-1,31
 669 371 669 371 669 285 c 1,32,-1
 635 244 l 1,33,34
 554 234 554 234 475 228.5 c 128,-1,35
 396 223 396 223 366 220 c 1,36,37
 366 53 366 53 516 53 c 0,38,39
 584 53 584 53 644 83 c 1,40,-1
 656 53 l 1,41,42
 583 -9 583 -9 492 -9 c 0,43,44
 379 -9 379 -9 322 63 c 1,45,46
 236 -9 236 -9 142 -9 c 0,47,48
 99 -9 99 -9 69 17.5 c 128,-1,49
 39 44 39 44 39 100 c 128,-1,50
 39 156 39 156 97 201 c 128,-1,51
 155 246 155 246 284 255 c 1,52,-1
 284 351 l 2,10,11
163 177.5 m 128,-1,54
 123 149 123 149 123 116 c 0,55,56
 123 51 123 51 188 51 c 0,57,58
 243 51 243 51 303 90 c 1,59,60
 284 152 284 152 284 213 c 1,61,53
 203 206 203 206 163 177.5 c 128,-1,54
EndSplineSet
EndChar

StartChar: ccedilla
Encoding: 231 231 167
Width: 443
GlyphClass: 2
Flags: W
LayerCount: 2
Fore
SplineSet
244 -4 m 2,0,-1
 238 -4 l 1,1,2
 234 -13 234 -13 234 -26 c 128,-1,3
 234 -39 234 -39 273 -69.5 c 128,-1,4
 312 -100 312 -100 312 -125 c 0,5,6
 312 -160 312 -160 272 -195 c 128,-1,7
 232 -230 232 -230 154 -259 c 1,8,9
 138 -246 138 -246 138 -222.5 c 128,-1,10
 138 -199 138 -199 161 -180 c 1,11,12
 258 -175 258 -175 258 -145 c 0,13,14
 258 -130 258 -130 224.5 -104 c 128,-1,15
 191 -78 191 -78 191 -54 c 128,-1,16
 191 -30 191 -30 211 -2 c 1,17,18
 125 8 125 8 80.5 68 c 128,-1,19
 36 128 36 128 36 223.5 c 128,-1,20
 36 319 36 319 97.5 392 c 128,-1,21
 159 465 159 465 269 465 c 0,22,23
 314 465 314 465 349.5 450.5 c 128,-1,24
 385 436 385 436 400 421 c 128,-1,25
 415 406 415 406 415 397 c 0,26,27
 415 357 415 357 391 324 c 1,28,-1
 367 324 l 1,29,30
 355 357 355 357 326.5 384 c 128,-1,31
 298 411 298 411 253 411 c 0,32,33
 191 411 191 411 157.5 355.5 c 128,-1,34
 124 300 124 300 124 219.5 c 128,-1,35
 124 139 124 139 163 97 c 128,-1,36
 202 55 202 55 272 55 c 128,-1,37
 342 55 342 55 409 95 c 1,38,-1
 421 62 l 1,39,40
 338 -4 338 -4 244 -4 c 2,0,-1
EndSplineSet
EndChar

StartChar: egrave
Encoding: 232 232 168
Width: 459
GlyphClass: 2
Flags: W
LayerCount: 2
Fore
SplineSet
338 320 m 0,0,1
 338 366 338 366 312 388.5 c 128,-1,2
 286 411 286 411 254 411 c 0,3,4
 207 411 207 411 173 374 c 128,-1,5
 139 337 139 337 128 283 c 1,6,-1
 335 291 l 1,7,8
 338 306 338 306 338 320 c 0,0,1
251 -9 m 0,9,10
 145 -9 145 -9 91 51.5 c 128,-1,11
 37 112 37 112 37 212.5 c 128,-1,12
 37 313 37 313 96.5 386.5 c 128,-1,13
 156 460 156 460 276 460 c 0,14,15
 337 460 337 460 382.5 417 c 128,-1,16
 428 374 428 374 428 289 c 1,17,-1
 394 248 l 1,18,19
 388 249 388 249 299.5 249 c 128,-1,20
 211 249 211 249 122 242 c 1,21,-1
 122 233 l 2,22,23
 122 142 122 142 160 96.5 c 128,-1,24
 198 51 198 51 264 51 c 128,-1,25
 330 51 330 51 403 83 c 1,26,-1
 415 53 l 1,27,28
 338 -9 338 -9 251 -9 c 0,9,10
285 518 m 1,29,-1
 112 680 l 1,30,31
 114 697 114 697 135 709.5 c 128,-1,32
 156 722 156 722 181 722 c 1,33,-1
 315 523 l 1,34,-1
 285 518 l 1,29,-1
EndSplineSet
EndChar

StartChar: eacute
Encoding: 233 233 169
Width: 459
GlyphClass: 2
Flags: W
LayerCount: 2
Fore
SplineSet
338 320 m 0,0,1
 338 366 338 366 312 388.5 c 128,-1,2
 286 411 286 411 254 411 c 0,3,4
 207 411 207 411 173 374 c 128,-1,5
 139 337 139 337 128 283 c 1,6,-1
 335 291 l 1,7,8
 338 306 338 306 338 320 c 0,0,1
251 -9 m 0,9,10
 145 -9 145 -9 91 51.5 c 128,-1,11
 37 112 37 112 37 212.5 c 128,-1,12
 37 313 37 313 96.5 386.5 c 128,-1,13
 156 460 156 460 276 460 c 0,14,15
 337 460 337 460 382.5 417 c 128,-1,16
 428 374 428 374 428 289 c 1,17,-1
 394 248 l 1,18,19
 388 249 388 249 299.5 249 c 128,-1,20
 211 249 211 249 122 242 c 1,21,-1
 122 233 l 2,22,23
 122 142 122 142 160 96.5 c 128,-1,24
 198 51 198 51 264 51 c 128,-1,25
 330 51 330 51 403 83 c 1,26,-1
 415 53 l 1,27,28
 338 -9 338 -9 251 -9 c 0,9,10
397 680 m 1,29,-1
 224 518 l 1,30,-1
 194 523 l 1,31,-1
 328 722 l 1,32,33
 353 722 353 722 374 709.5 c 128,-1,34
 395 697 395 697 397 680 c 1,29,-1
EndSplineSet
EndChar

StartChar: ecircumflex
Encoding: 234 234 170
Width: 459
GlyphClass: 2
Flags: W
LayerCount: 2
Fore
SplineSet
338 320 m 0,0,1
 338 366 338 366 312 388.5 c 128,-1,2
 286 411 286 411 254 411 c 0,3,4
 207 411 207 411 173 374 c 128,-1,5
 139 337 139 337 128 283 c 1,6,-1
 335 291 l 1,7,8
 338 306 338 306 338 320 c 0,0,1
251 -9 m 0,9,10
 145 -9 145 -9 91 51.5 c 128,-1,11
 37 112 37 112 37 212.5 c 128,-1,12
 37 313 37 313 96.5 386.5 c 128,-1,13
 156 460 156 460 276 460 c 0,14,15
 337 460 337 460 382.5 417 c 128,-1,16
 428 374 428 374 428 289 c 1,17,-1
 394 248 l 1,18,19
 388 249 388 249 299.5 249 c 128,-1,20
 211 249 211 249 122 242 c 1,21,-1
 122 233 l 2,22,23
 122 142 122 142 160 96.5 c 128,-1,24
 198 51 198 51 264 51 c 128,-1,25
 330 51 330 51 403 83 c 1,26,-1
 415 53 l 1,27,28
 338 -9 338 -9 251 -9 c 0,9,10
211 718 m 1,29,30
 217 721 217 721 228.5 721 c 128,-1,31
 240 721 240 721 248 717 c 1,32,-1
 342 523 l 1,33,-1
 312 518 l 1,34,-1
 229 622 l 1,35,-1
 147 518 l 1,36,-1
 117 523 l 1,37,-1
 211 718 l 1,29,30
EndSplineSet
EndChar

StartChar: edieresis
Encoding: 235 235 171
Width: 459
GlyphClass: 2
Flags: W
LayerCount: 2
Fore
SplineSet
338 320 m 0,0,1
 338 366 338 366 312 388.5 c 128,-1,2
 286 411 286 411 254 411 c 0,3,4
 207 411 207 411 173 374 c 128,-1,5
 139 337 139 337 128 283 c 1,6,-1
 335 291 l 1,7,8
 338 306 338 306 338 320 c 0,0,1
251 -9 m 0,9,10
 145 -9 145 -9 91 51.5 c 128,-1,11
 37 112 37 112 37 212.5 c 128,-1,12
 37 313 37 313 96.5 386.5 c 128,-1,13
 156 460 156 460 276 460 c 0,14,15
 337 460 337 460 382.5 417 c 128,-1,16
 428 374 428 374 428 289 c 1,17,-1
 394 248 l 1,18,19
 388 249 388 249 299.5 249 c 128,-1,20
 211 249 211 249 122 242 c 1,21,-1
 122 233 l 2,22,23
 122 142 122 142 160 96.5 c 128,-1,24
 198 51 198 51 264 51 c 128,-1,25
 330 51 330 51 403 83 c 1,26,-1
 415 53 l 1,27,28
 338 -9 338 -9 251 -9 c 0,9,10
353 563 m 128,-1,30
 331 563 331 563 316 578.5 c 128,-1,31
 301 594 301 594 301 616.5 c 128,-1,32
 301 639 301 639 316 654 c 128,-1,33
 331 669 331 669 353 669 c 128,-1,34
 375 669 375 669 390 654 c 128,-1,35
 405 639 405 639 405 616.5 c 128,-1,36
 405 594 405 594 390 578.5 c 128,-1,29
 375 563 375 563 353 563 c 128,-1,30
173 563 m 128,-1,38
 151 563 151 563 136 578.5 c 128,-1,39
 121 594 121 594 121 616.5 c 128,-1,40
 121 639 121 639 136 654 c 128,-1,41
 151 669 151 669 173 669 c 128,-1,42
 195 669 195 669 210 654 c 128,-1,43
 225 639 225 639 225 616.5 c 128,-1,44
 225 594 225 594 210 578.5 c 128,-1,37
 195 563 195 563 173 563 c 128,-1,38
EndSplineSet
EndChar

StartChar: igrave
Encoding: 236 236 172
Width: 275
GlyphClass: 2
Flags: W
LayerCount: 2
Fore
SplineSet
180 450 m 1,0,-1
 178 229 l 1,1,2
 178 100 178 100 186 61 c 1,3,-1
 188 48 l 2,4,5
 189 41 189 41 213.5 34.5 c 128,-1,6
 238 28 238 28 259 26 c 1,7,-1
 256 -3 l 1,8,9
 208 0 208 0 139 0 c 128,-1,10
 70 0 70 0 22 -3 c 1,11,-1
 25 26 l 1,12,13
 46 28 46 28 70 34.5 c 128,-1,14
 94 41 94 41 95 48 c 0,15,16
 103 83 103 83 103 188 c 0,17,18
 103 358 103 358 95 396 c 1,19,-1
 31 415 l 1,20,-1
 29 441 l 1,21,22
 93 441 93 441 161 459 c 1,23,-1
 180 450 l 1,0,-1
161 518 m 1,24,-1
 -12 680 l 1,25,26
 -10 697 -10 697 11 709.5 c 128,-1,27
 32 722 32 722 57 722 c 1,28,-1
 191 523 l 1,29,-1
 161 518 l 1,24,-1
EndSplineSet
EndChar

StartChar: iacute
Encoding: 237 237 173
Width: 275
GlyphClass: 2
Flags: W
LayerCount: 2
Fore
SplineSet
283 680 m 1,0,-1
 110 518 l 1,1,-1
 80 523 l 1,2,-1
 214 722 l 1,3,4
 239 722 239 722 260 709.5 c 128,-1,5
 281 697 281 697 283 680 c 1,0,-1
180 450 m 1,6,-1
 178 229 l 1,7,8
 178 100 178 100 186 61 c 1,9,-1
 188 48 l 2,10,11
 189 41 189 41 213.5 34.5 c 128,-1,12
 238 28 238 28 259 26 c 1,13,-1
 256 -3 l 1,14,15
 208 0 208 0 139 0 c 128,-1,16
 70 0 70 0 22 -3 c 1,17,-1
 25 26 l 1,18,19
 46 28 46 28 70 34.5 c 128,-1,20
 94 41 94 41 95 48 c 0,21,22
 103 83 103 83 103 188 c 0,23,24
 103 358 103 358 95 396 c 1,25,-1
 31 415 l 1,26,-1
 29 441 l 1,27,28
 93 441 93 441 161 459 c 1,29,-1
 180 450 l 1,6,-1
EndSplineSet
EndChar

StartChar: icircumflex
Encoding: 238 238 174
Width: 275
GlyphClass: 2
Flags: W
LayerCount: 2
Fore
SplineSet
180 450 m 1,0,-1
 178 229 l 1,1,2
 178 100 178 100 186 61 c 1,3,-1
 188 48 l 2,4,5
 189 41 189 41 213.5 34.5 c 128,-1,6
 238 28 238 28 259 26 c 1,7,-1
 256 -3 l 1,8,9
 208 0 208 0 139 0 c 128,-1,10
 70 0 70 0 22 -3 c 1,11,-1
 25 26 l 1,12,13
 46 28 46 28 70 34.5 c 128,-1,14
 94 41 94 41 95 48 c 0,15,16
 103 83 103 83 103 188 c 0,17,18
 103 358 103 358 95 396 c 1,19,-1
 31 415 l 1,20,-1
 29 441 l 1,21,22
 93 441 93 441 161 459 c 1,23,-1
 180 450 l 1,0,-1
115 718 m 1,24,25
 121 721 121 721 132.5 721 c 128,-1,26
 144 721 144 721 152 717 c 1,27,-1
 246 523 l 1,28,-1
 216 518 l 1,29,-1
 133 622 l 1,30,-1
 51 518 l 1,31,-1
 21 523 l 1,32,-1
 115 718 l 1,24,25
EndSplineSet
EndChar

StartChar: idieresis
Encoding: 239 239 175
Width: 275
GlyphClass: 2
Flags: W
LayerCount: 2
Fore
SplineSet
180 450 m 1,0,-1
 178 229 l 1,1,2
 178 100 178 100 186 61 c 1,3,-1
 188 48 l 2,4,5
 189 41 189 41 213.5 34.5 c 128,-1,6
 238 28 238 28 259 26 c 1,7,-1
 256 -3 l 1,8,9
 208 0 208 0 139 0 c 128,-1,10
 70 0 70 0 22 -3 c 1,11,-1
 25 26 l 1,12,13
 46 28 46 28 70 34.5 c 128,-1,14
 94 41 94 41 95 48 c 0,15,16
 103 83 103 83 103 188 c 0,17,18
 103 358 103 358 95 396 c 1,19,-1
 31 415 l 1,20,-1
 29 441 l 1,21,22
 93 441 93 441 161 459 c 1,23,-1
 180 450 l 1,0,-1
228 563 m 128,-1,25
 206 563 206 563 191 578.5 c 128,-1,26
 176 594 176 594 176 616.5 c 128,-1,27
 176 639 176 639 191 654 c 128,-1,28
 206 669 206 669 228 669 c 128,-1,29
 250 669 250 669 265 654 c 128,-1,30
 280 639 280 639 280 616.5 c 128,-1,31
 280 594 280 594 265 578.5 c 128,-1,24
 250 563 250 563 228 563 c 128,-1,25
48 563 m 128,-1,33
 26 563 26 563 11 578.5 c 128,-1,34
 -4 594 -4 594 -4 616.5 c 128,-1,35
 -4 639 -4 639 11 654 c 128,-1,36
 26 669 26 669 48 669 c 128,-1,37
 70 669 70 669 85 654 c 128,-1,38
 100 639 100 639 100 616.5 c 128,-1,39
 100 594 100 594 85 578.5 c 128,-1,32
 70 563 70 563 48 563 c 128,-1,33
EndSplineSet
EndChar

StartChar: eth
Encoding: 240 240 176
Width: 529
GlyphClass: 2
Flags: W
LayerCount: 2
Fore
SplineSet
430.5 64 m 128,-1,1
 371 -9 371 -9 257 -9 c 128,-1,2
 143 -9 143 -9 91 48.5 c 128,-1,3
 39 106 39 106 39 209 c 128,-1,4
 39 312 39 312 98.5 385.5 c 128,-1,5
 158 459 158 459 278 459 c 0,6,7
 312 459 312 459 344 443 c 1,8,9
 301 534 301 534 226 600 c 1,10,-1
 103 510 l 1,11,-1
 103 567 l 1,12,-1
 188 629 l 1,13,14
 141 664 141 664 76 695 c 1,15,-1
 92 730 l 1,16,17
 158 703 158 703 225 656 c 1,18,-1
 328 731 l 1,19,-1
 328 674 l 1,20,-1
 265 628 l 1,21,22
 363 553 363 553 426 455.5 c 128,-1,23
 489 358 489 358 489.5 247.5 c 128,-1,0
 490 137 490 137 430.5 64 c 128,-1,1
267 419 m 0,24,25
 225 419 225 419 195.5 398 c 128,-1,26
 166 377 166 377 152 344 c 0,27,28
 127 286 127 286 127 216.5 c 128,-1,29
 127 147 127 147 159 89 c 128,-1,30
 191 31 191 31 262 31 c 0,31,32
 300 31 300 31 329 49 c 128,-1,33
 358 67 358 67 372 96 c 0,34,35
 400 151 400 151 402 206 c 1,36,37
 402 419 402 419 267 419 c 0,24,25
EndSplineSet
EndChar

StartChar: ntilde
Encoding: 241 241 177
Width: 560
GlyphClass: 2
Flags: W
LayerCount: 2
Fore
SplineSet
173 367 m 1,0,-1
 172 229 l 2,1,2
 172 100 172 100 180 61 c 1,3,-1
 182 48 l 2,4,5
 183 41 183 41 204.5 34.5 c 128,-1,6
 226 28 226 28 246 26 c 1,7,-1
 243 -3 l 1,8,9
 195 0 195 0 133 0 c 128,-1,10
 71 0 71 0 23 -3 c 1,11,-1
 26 26 l 1,12,13
 45 28 45 28 66.5 34.5 c 128,-1,14
 88 41 88 41 89 48 c 0,15,16
 97 83 97 83 97 188 c 0,17,18
 97 358 97 358 89 396 c 1,19,-1
 25 415 l 1,20,-1
 23 441 l 1,21,22
 87 441 87 441 155 459 c 1,23,-1
 174 450 l 1,24,-1
 174 402 l 1,25,26
 285 460 285 460 367 460 c 0,27,28
 417 460 417 460 443 440 c 128,-1,29
 469 420 469 420 469 365 c 2,30,-1
 469 229 l 2,31,32
 469 100 469 100 476 61 c 1,33,-1
 479 48 l 2,34,35
 480 41 480 41 501.5 34.5 c 128,-1,36
 523 28 523 28 543 26 c 1,37,-1
 540 -3 l 1,38,39
 492 0 492 0 430 0 c 128,-1,40
 368 0 368 0 320 -3 c 1,41,-1
 323 26 l 1,42,43
 342 28 342 28 363.5 34.5 c 128,-1,44
 385 41 385 41 386 48 c 0,45,46
 394 83 394 83 394 229 c 2,47,-1
 394 326 l 2,48,49
 394 365 394 365 371 380 c 128,-1,50
 348 395 348 395 293 395 c 128,-1,51
 238 395 238 395 173 367 c 1,0,-1
362 555 m 0,52,53
 339 555 339 555 290 574.5 c 128,-1,54
 241 594 241 594 217 594 c 0,55,56
 177 594 177 594 150 556 c 1,57,-1
 124 564 l 1,58,59
 154 665 154 665 214 665 c 0,60,61
 236 665 236 665 285.5 645.5 c 128,-1,62
 335 626 335 626 359 626 c 0,63,64
 398 626 398 626 426 664 c 1,65,-1
 452 656 l 1,66,67
 421 555 421 555 362 555 c 0,52,53
EndSplineSet
EndChar

StartChar: ograve
Encoding: 242 242 178
Width: 529
GlyphClass: 2
Flags: W
LayerCount: 2
Fore
SplineSet
267 411 m 0,0,1
 226 411 226 411 196 390.5 c 128,-1,2
 166 370 166 370 152 339 c 0,3,4
 125 282 125 282 125 230 c 0,5,6
 125 148 125 148 158 93.5 c 128,-1,7
 191 39 191 39 262 39 c 0,8,9
 300 39 300 39 329 56.5 c 128,-1,10
 358 74 358 74 373 102 c 0,11,12
 402 154 402 154 404 206 c 1,13,14
 404 411 404 411 267 411 c 0,0,1
438 402 m 128,-1,16
 490 344 490 344 490 240.5 c 128,-1,17
 490 137 490 137 430.5 64 c 128,-1,18
 371 -9 371 -9 257 -9 c 128,-1,19
 143 -9 143 -9 91 48.5 c 128,-1,20
 39 106 39 106 39 209 c 128,-1,21
 39 312 39 312 98.5 386 c 128,-1,22
 158 460 158 460 272 460 c 128,-1,15
 386 460 386 460 438 402 c 128,-1,16
304 518 m 1,23,-1
 131 680 l 1,24,25
 133 697 133 697 154 709.5 c 128,-1,26
 175 722 175 722 200 722 c 1,27,-1
 334 523 l 1,28,-1
 304 518 l 1,23,-1
EndSplineSet
EndChar

